<?xml version="1.0" encoding="UTF-8"?>
<!DOCTYPE svg PUBLIC "-//W3C//DTD SVG 1.1//EN" "http://www.w3.org/Graphics/SVG/1.1/DTD/svg11.dtd">
<!-- Creator: CorelDRAW -->
<svg xmlns="http://www.w3.org/2000/svg" xml:space="preserve" width="22.5831mm" height="22.8438mm" version="1.1" style="shape-rendering:geometricPrecision; text-rendering:geometricPrecision; image-rendering:optimizeQuality; fill-rule:evenodd; clip-rule:evenodd"
viewBox="0 0 92.45 93.51"
 xmlns:xlink="http://www.w3.org/1999/xlink"
 xmlns:xodm="http://www.corel.com/coreldraw/odm/2003">
 <defs>
  <style type="text/css">
   <![CDATA[
    .fil0 {fill:#92C8CC;fill-rule:nonzero}
   ]]>
  </style>
 </defs>
 <g id="Camada_x0020_1">
  <metadata id="CorelCorpID_0Corel-Layer"/>
  <path class="fil0" d="M3.2 40.76l0 -40.76 37.57 0 0 32.37c0,17.32 -2,29.84 -6.06,37.43 -5.66,10.52 -14.39,18.38 -26.31,23.71l-8.39 -13.85c7.06,-2.86 12.26,-7.33 15.72,-13.52 3.46,-6.13 5.39,-14.59 5.79,-25.38l-18.32 0z"/>
  <path class="fil0" d="M54.88 40.76l0 -40.76 37.57 0 0 32.37c0,17.32 -2,29.84 -6.06,37.43 -5.66,10.52 -14.39,18.38 -26.31,23.71l-8.39 -13.85c7.06,-2.86 12.26,-7.33 15.72,-13.52 3.46,-6.13 5.39,-14.59 5.79,-25.38l-18.32 0z"/>
 </g>
</svg>
