<?xml version="1.0" encoding="UTF-8"?>
<!DOCTYPE svg PUBLIC "-//W3C//DTD SVG 1.1//EN" "http://www.w3.org/Graphics/SVG/1.1/DTD/svg11.dtd">
<!-- Creator: CorelDRAW -->
<svg xmlns="http://www.w3.org/2000/svg" xml:space="preserve" width="22.5831mm" height="22.8438mm" version="1.1" style="shape-rendering:geometricPrecision; text-rendering:geometricPrecision; image-rendering:optimizeQuality; fill-rule:evenodd; clip-rule:evenodd"
viewBox="0 0 315.77 319.42"
 xmlns:xlink="http://www.w3.org/1999/xlink"
 xmlns:xodm="http://www.corel.com/coreldraw/odm/2003">
 <defs>
  <style type="text/css">
   <![CDATA[
    .fil0 {fill:#92C8CC;fill-rule:nonzero}
   ]]>
  </style>
 </defs>
 <g id="Camada_x0020_1">
  <metadata id="CorelCorpID_0Corel-Layer"/>
  <path class="fil0" d="M304.85 180.18l0 139.23 -128.31 0 0 -110.57c0,-59.15 6.82,-101.92 20.7,-127.86 19.34,-35.95 49.14,-62.79 89.86,-80.99l28.66 47.32c-24.11,9.78 -41.86,25.02 -53.69,46.18 -11.83,20.93 -18.43,49.82 -19.79,86.68l62.56 0z"/>
  <path class="fil0" d="M128.31 180.18l0 139.23 -128.31 0 0 -110.57c0,-59.15 6.82,-101.92 20.7,-127.86 19.34,-35.95 49.14,-62.79 89.86,-80.99l28.66 47.32c-24.11,9.78 -41.86,25.02 -53.69,46.18 -11.83,20.93 -18.43,49.82 -19.79,86.68l62.56 0z"/>
 </g>
</svg>
