<?xml version="1.0" encoding="UTF-8"?>
<!DOCTYPE svg PUBLIC "-//W3C//DTD SVG 1.1//EN" "http://www.w3.org/Graphics/SVG/1.1/DTD/svg11.dtd">
<!-- Creator: CorelDRAW -->
<svg xmlns="http://www.w3.org/2000/svg" xml:space="preserve" width="195.083mm" height="194.846mm" version="1.1" style="shape-rendering:geometricPrecision; text-rendering:geometricPrecision; image-rendering:optimizeQuality; fill-rule:evenodd; clip-rule:evenodd"
viewBox="0 0 12874.35 12858.67"
 xmlns:xlink="http://www.w3.org/1999/xlink"
 xmlns:xodm="http://www.corel.com/coreldraw/odm/2003">
 <defs>
  <style type="text/css">
   <![CDATA[
    .fil0 {fill:#CFE6E7;fill-opacity:0.368627}
   ]]>
  </style>
 </defs>
 <g id="Conteúdo_x0020_do_x0020_PowerClip">
  <metadata id="CorelCorpID_0Corel-Layer"/>
  <g id="_2697320842336">
   <polygon class="fil0" points="5587.51,6008.1 4511.39,10385.1 7291.53,6837.26 8367.64,2460.16 "/>
   <polygon class="fil0" points="4511.39,10385.1 7291.53,6837.26 6529.94,6596.03 5587.51,6008.1 "/>
   <polygon class="fil0" points="6567.76,6519.81 4506.63,10398.51 7286.76,6850.68 8362.88,2473.58 "/>
   <path class="fil0" d="M12874.35 6431.33l0 -4.09c-27.02,-2295.64 -1218.16,-4372.34 -3186.25,-5554.82l0 0c-950.31,-571.02 -2058.8,-872.43 -3208.72,-872.43l0 0c-13.71,0 -27.51,0.1 -41.42,0.29 -1140.19,7.19 -2263.27,307.92 -3248,870l0 0c-960.9,548.65 -1765.95,1364.59 -2328.41,2359.33l0 0c-550.21,973.44 -848.12,2079.22 -861.15,3197.63l0 0c-12.93,1105.58 284.49,2212.52 860.37,3201.13l0 0c562.75,966.64 1367.12,1781.99 2325.88,2357.97l0 0c950.31,571.02 2058.7,872.33 3208.43,872.33l0 0c13.9,0 27.8,0 41.62,-0.1l0 0c1140.09,-7.29 2263.36,-308.11 3247.99,-870.09l0 0c960.91,-548.56 1766.05,-1364.49 2328.41,-2359.43l0 0c550.31,-973.44 848.12,-2079.31 861.24,-3197.73zm-5934.1 -5302.51c334.27,28.49 663.68,87.02 980.35,174.04l0 0c2044.02,562.17 3566.42,2392.68 3816.48,4574.47l0 0 -854.73 541.17 857.65 543.22c-226.64,2065.6 -1620.01,3831.84 -3574.38,4517.69l0 0c-385.8,135.15 -790.46,223.24 -1204.17,262.13l0 0 -543.8 -858.42 -536.99 848.41c-1467.85,-164.12 -2811.15,-917.83 -3698.75,-2079.5l0 0c-597.46,-782 -957.69,-1719.47 -1045,-2716.64l0 0 816.04 -516.87 -808.45 -512.09c90.72,-890.32 398.05,-1751.08 891.78,-2495.16l0 0c852.98,-1285.83 2257.14,-2110.52 3864.41,-2273.67l0 0 517.06 816.23 522.5 -824.98z"/>
  </g>
 </g>
</svg>
