<?xml version="1.0" encoding="UTF-8"?>
<!DOCTYPE svg PUBLIC "-//W3C//DTD SVG 1.1//EN" "http://www.w3.org/Graphics/SVG/1.1/DTD/svg11.dtd">
<!-- Creator: CorelDRAW -->
<svg xmlns="http://www.w3.org/2000/svg" xml:space="preserve" width="564.444mm" height="329.287mm" version="1.1" style="shape-rendering:geometricPrecision; text-rendering:geometricPrecision; image-rendering:optimizeQuality; fill-rule:evenodd; clip-rule:evenodd"
viewBox="0 0 95793.5 55884.22"
 xmlns:xlink="http://www.w3.org/1999/xlink"
 xmlns:xodm="http://www.corel.com/coreldraw/odm/2003">
 <defs>
  <style type="text/css">
   <![CDATA[
    .fil0 {fill:#92C8CC;fill-opacity:0.200000}
   ]]>
  </style>
 </defs>
 <g id="Conteúdo_x0020_do_x0020_PowerClip">
  <metadata id="CorelCorpID_0Corel-Layer"/>
  <g id="_2697567732784">
   <g id="_1937642923392">
    <path class="fil0" d="M52728.42 6.42l-233.05 0c-363.59,674.32 -890.08,1272 -1584.91,1803.93 -462.82,354.97 -952.65,690.49 -1427.39,1015.22 -844.8,579.35 -1718.68,1177.09 -2478.23,1909.63 -894.42,859.9 -1559,1650.73 -1903.16,2710.2 -582.59,1795.24 -1007.7,3793.35 -1335.66,6287.78 -141.34,1072.42 -499.55,1840.59 -1786.64,2101.69 -1403.61,284.83 -2535.36,819.93 -3458.92,1633.44l-43.14 38.86c-459.58,404.58 -934.32,822.12 -1431.66,1186.8 -1236.43,904.13 -2568.84,1196.48 -3957.37,869.61 -928.94,-217.89 -1793.1,-710.96 -2718.8,-1549.29 -296.68,-268.62 -589.07,-541.59 -881.47,-814.54 -357.09,-333.4 -726.07,-677.56 -1097.21,-1007.7 -1095.09,-975.32 -2503.04,-1331.33 -3744.85,-1646.4 -2101.69,-531.86 -3657.47,-1385.28 -4894.93,-2684.28 -1020.59,-1071.31 -1754.31,-2336.88 -2478.22,-3647.74 -685.13,-1242.89 -1596.78,-2628.17 -3163.3,-3489.11 -1132.85,-621.45 -2325.03,-1004.46 -3544.17,-1137.13 -1086.49,-118.66 -2080.14,275.1 -3043.53,1202.94 -882.56,850.18 -1790.96,1442.47 -2774.91,1811.43 -1065.93,399.22 -2261.36,921.37 -2951.87,2069.31 -477.96,794.09 -867.4,1656.11 -1243.93,2488.99l-103.58 229.81c-156.44,345.26 -302.12,701.27 -443.46,1048.71l0 548.07c44.24,-107.92 87.39,-215.77 130.53,-322.57 158.58,-392.73 322.57,-798.36 499.55,-1188.96l104.68 -229.83c374.39,-827.49 760.59,-1684.15 1232.08,-2467.4 655.97,-1090.74 1813.64,-1595.67 2848.29,-1983.03 1010.95,-378.68 1942.01,-986.13 2846.09,-1855.67 915.99,-882.56 1858.92,-1258 2878.48,-1145.8 1192.18,129.47 2358.45,503.81 3467.54,1113.42 1520.14,835.07 2411.31,2191.21 3082.38,3407.11 730.41,1323.81 1471.63,2601.17 2508.42,3690.88 1265.52,1328.09 2852.57,2199.84 4993.12,2741.47 1219.13,308.59 2601.17,659.22 3658.5,1601.05 368.96,329.06 737.98,672.16 1092.88,1004.46 293.43,274.05 586.92,548.05 883.59,816.74 952.65,863.13 1845.97,1370.19 2809.43,1596.78 384.11,90.61 763.83,135.96 1139.33,135.96 1040.02,0 2040.15,-347.39 2986.39,-1039 506.02,-368.96 983.93,-790.83 1446.8,-1197.56l43.14 -38.86c895.46,-789.73 1995.93,-1307.6 3363.98,-1585.95 1489.94,-303.14 1817.91,-1273.08 1949.53,-2276.46 326.92,-2481.46 747.7,-4467.66 1327.05,-6251.05 330.16,-1019.55 978.55,-1786.62 1850.29,-2626.04 747.7,-719.6 1614,-1313 2452.32,-1888.07 475.77,-326.92 968.84,-663.49 1436.01,-1021.69 753.07,-577.21 1315.19,-1227.75 1692.77,-1966.84l1.15 -3.31zm-24265.26 0l-338.78 0c-391.63,261.12 -906.27,402.46 -1542.81,171.53 -159.67,-57.19 -318.25,-114.39 -477.98,-171.53l-613.87 0c340.9,120.82 681.89,242.79 1022.79,365.73 234.1,84.14 465.03,126.25 690.51,126.25 450.96,0 880.35,-166.15 1261.22,-491.98l-1.09 0z"/>
    <path class="fil0" d="M54122.38 6.42l-453.1 0c-762.79,1616.21 -1891.3,2852.57 -3425.5,3758.84 -1924.71,1137.14 -3167.62,2539.7 -3799.84,4285.34 -942.92,2605.52 -819.92,5067.54 365.73,7317 577.21,1095.09 1652.87,1544.95 2628.17,1840.59 151.06,45.33 303.16,89.51 455.31,133.75 640.89,185.58 1303.28,376.54 1855.67,703.46 954.79,566.4 1524.5,1518 1793.12,2992.87 36.66,201.77 75.52,404.58 113.28,606.35 100.33,526.5 202.81,1070.28 275.1,1606.49 143.48,1077.8 744.46,1849.21 1892.33,2429.66l49.62 24.8c685.13,346.37 1393.9,704.5 2056.36,1105.85 1104.8,667.84 1986.25,1671.2 2695.02,3067.29 262.16,516.78 541.59,1034.65 811.31,1536.34 320.43,594.44 650.59,1209.41 954.79,1823.34 672.16,1358.33 606.35,1922.59 -373.3,3178.4 -521.12,667.82 -1105.85,1284.93 -1661.49,1861.05 -611.73,634.4 -1019.55,1394.99 -1412.28,2130.78 -95.99,177.99 -190.96,357.09 -290.19,534.07 -243.81,438 -479.01,880.35 -713.17,1322.69 -311.83,587.97 -634.42,1195.42 -972.08,1779.12 -607.4,1048.71 -1168.42,2212.78 -1165.18,3612.12 2.14,635.46 -18.33,1283.91 -38.86,1910.73 -23.71,732.55 -47.49,1491 -35.62,2237.6 10.81,652.75 89.52,1491 618.21,2193.35 469.29,623.59 1223.48,953.75 2027.2,953.75 513.53,0 1047.6,-134.87 1540.67,-413.2 776.79,-440.22 1387.49,-1144.71 1867.54,-2154.56 135.96,-284.81 275.1,-568.59 414.3,-852.32 260,-528.62 527.59,-1074.55 767.07,-1624.81 568.59,-1308.71 1602.14,-2043.39 3252.87,-2309.88 1423.04,-229.83 2743.61,61.47 3957.37,411.06 855.56,246.02 1720.82,511.4 2559.13,768.17 924.6,283.78 1880.49,576.11 2826.72,844.8 703.46,199.57 1431.66,336.63 2137.26,469.29l444.48 84.14c1219.13,234.1 2274.32,813.52 3143.86,1349.73l95.99 59.33c813.52,501.67 1655.01,1020.59 2554.81,1375.56 1516.89,599.88 2999.29,354.97 4288.56,-708.82 781.12,-644.13 1515.88,-1314.1 2184.73,-1989.51 796.23,-803.79 1080,-1702.47 868.51,-2746.85 -256.76,-1270.95 250.29,-2258.11 1509.39,-2935.66 952.65,-512.5 1961.39,-894.42 3006.85,-1139.33l0 -421.82c-1114.5,252.43 -2187.97,653.79 -3201.06,1199.7 -1416.56,762.79 -2009.96,1931.21 -1717.56,3379.07 182.34,899.78 -65.81,1677.66 -757.36,2376.78 -659.22,665.7 -1383.14,1325.95 -2153.45,1961.41 -1167.37,962.36 -2507.3,1184.6 -3875.36,644.11 -866.37,-342.01 -1691.66,-851.26 -2491.18,-1343.24l-96.01 -59.33c-901.92,-555.64 -1998.11,-1156.56 -3281.96,-1402.58l-445.58 -84.14c-695.87,-130.51 -1415.52,-266.48 -2100.59,-460.67 -942.94,-267.59 -1896.69,-559.92 -2819.15,-842.61 -839.35,-256.76 -1706.82,-523.24 -2565.6,-770.29 -1200.8,-345.26 -2630.33,-665.7 -4137.52,-421.82 -1802.83,291.3 -2935.68,1102.61 -3564.63,2552.65 -235.21,541.59 -501.69,1083.23 -758.46,1607.52 -140.23,284.83 -280.54,569.64 -416.44,856.66 -442.34,931.08 -997.98,1576.24 -1698.15,1973.3 -1085.36,613.87 -2390.85,429.39 -3035.99,-429.39 -457.44,-607.4 -526.5,-1362.61 -535.12,-1952.78 -10.81,-737.98 12.97,-1489.94 35.64,-2218.22 20.47,-630.06 41,-1282.81 38.85,-1924.73 -3.22,-1301.14 530.84,-2405.93 1110.19,-3404.97 340.9,-590.16 665.68,-1200.8 979.65,-1792 234.1,-440.22 468.25,-880.37 709.93,-1315.19 99.25,-179.11 196.34,-359.25 292.4,-539.45 398.11,-743.36 773.55,-1445.72 1346.49,-2039.12 562.12,-583.69 1155.46,-1210.53 1689.53,-1893.45 1072.42,-1374.52 1158.7,-2117.88 418.58,-3614.26 -306.38,-620.35 -639.78,-1238.56 -961.27,-1836.24 -268.62,-498.45 -545.92,-1015.22 -805.93,-1527.72 -744.45,-1467.29 -1676.56,-2524.6 -2849.33,-3233.44 -676.44,-408.92 -1391.75,-771.41 -2083.36,-1120.94l-49.61 -25.92c-1029.27,-520 -1544.95,-1172.75 -1670.09,-2116.78 -73.4,-547.02 -176.98,-1097.23 -278.35,-1629.09 -37.76,-200.69 -76.63,-401.35 -112.2,-603.13 -288.05,-1579.47 -937.54,-2649.76 -1987.3,-3273.34 -597.68,-353.87 -1286.03,-553.45 -1950.63,-745.5 -151.06,-43.14 -301,-87.39 -449.93,-131.63 -939.7,-284.81 -1878.35,-680.79 -2383.26,-1638.82 -1129.63,-2142.69 -1245.05,-4493.57 -343.13,-6985.79 598.78,-1652.87 1783.39,-2984.2 3622.95,-4070.67 1663.61,-982.89 2870.9,-2334.69 3669.31,-4112.7l-8.69 -2.21z"/>
    <path class="fil0" d="M16825.2 55882.08c227.62,-1403.63 637.65,-2601.19 1493.2,-3653.12 948.37,-1165.18 2227.87,-1631.3 3422.26,-1248.29 669.98,215.77 1314.09,590.16 1935.54,951.61l97.09 56.09c293.43,170.49 580.45,376.54 856.66,575.07 281.57,202.81 572.87,412.16 880.35,591.21 1352.95,789.73 2181.51,733.63 2956.14,-200.69 375.44,-452.06 614.97,-1027.07 829.64,-1577.33 202.81,-522.16 384.11,-1061.61 558.88,-1581.67 141.34,-420.79 286.95,-856.66 443.44,-1278.48 412.16,-1113.42 1172.75,-1984.06 2323.95,-2664.85 744.45,-440.2 1511.51,-923.49 2279.69,-1438.13 821.02,-549.16 1323.81,-1348.62 1455.44,-2313.12 104.66,-772.5 -161.82,-1495.34 -419.68,-2194.46l-63.68 -172.61c-299.92,-824.28 -578.31,-1644.26 -838.31,-2413.47 -139.2,-411.06 24.81,-797.31 185.58,-1048.71 224.38,-349.57 488.72,-687.25 743.36,-1013.08 159.67,-202.81 318.23,-406.72 469.29,-613.87 1037.9,-1420.9 1546.05,-2941.04 1512.63,-4517.28 -6.48,-326.92 -48.59,-652.73 -89.52,-967.74 -42.11,-329.06 -82.01,-640.89 -86.28,-955.89 -5.38,-417.54 36.66,-848.04 76.63,-1264.48 20.47,-214.72 42.11,-428.29 57.19,-643.03 14.05,-194.19 38.86,-393.77 63.68,-586.92 67.95,-528.64 136.99,-1074.55 -6.48,-1652.87 -344.14,-1387.49 -1115.56,-1496.43 -2011.06,-1623.71 -296.68,-42.11 -625.73,-43.14 -1034.65,-4.34 -1222.37,119.77 -2317.46,-279.43 -3553.89,-1290.33 -1186.8,-969.94 -2199.82,-2022.93 -3013.34,-3130.9 -920.25,-1253.67 -2245.17,-2075.79 -4171,-2586.09 -1565.48,-415.41 -3202.14,-959.13 -4562.63,-2125.4 -704.5,-603.13 -1351.85,-1336.76 -1979.77,-2239.79 -332.3,-479.01 -660.27,-975.32 -976.43,-1454.34 -435.87,-660.25 -885.8,-1342.14 -1359.37,-1994.87 -808.07,-1112.33 -2011.08,-1852.45 -3477.26,-2141.61 -202.81,-39.9 -405.68,-59.33 -607.4,-59.33 -717.44,0 -1418.77,249.26 -2021.82,726.07 -312.87,247.05 -719.58,578.31 -1101.56,953.75 -556.68,548.05 -1300.03,910.61 -2273.22,1108.04 -2059.58,418.58 -3465.4,1726.2 -4296.15,3997.28 -535.1,1462.94 -865.26,2996.04 -1183.56,4479.52 -98.21,457.44 -196.34,914.87 -301.02,1371.28 -14.05,61.47 -25.9,123.01 -37.76,183.44l0 2574.22c119.77,217.91 279.43,430.49 480.12,639.78 316.09,330.16 644.11,688.3 1031.41,1128.52 399.2,454.2 614.97,1027.07 696.98,1857.81 69.06,689.41 148.91,1421.94 304.24,2143.73 228.72,1059.47 797.31,1313 1703.58,1391.76 263.26,22.67 527.6,17.23 782.22,11.85 139.2,-3.24 278.35,-5.38 416.44,-4.33 1448.96,17.23 2842.86,228.72 4015.61,433.74 593.4,103.56 1199.7,177.99 1786.62,249.24 279.45,33.43 557.78,67.95 836.12,104.68 1224.51,162.91 2645.42,370.06 4022.08,769.27 1016.33,294.52 2104.93,586.92 3251.78,634.4 946.17,39.9 1870.76,-87.39 2766.29,-209.29l428.29 -58.25c1532,-202.81 2589.33,84.14 3430.88,927.85 147.82,148.91 295.62,299.9 442.34,449.93 352.77,361.44 717.46,735.77 1099.37,1083.23 582.59,528.62 1186.82,1051.95 1771.53,1557.9 315.07,271.86 628.97,544.83 940.8,818.9 240.57,211.48 469.29,424.01 681.89,633.3 197.43,195.31 217.89,741.22 35.62,942.92 -445.6,495.22 -852.32,935.42 -1309.76,1308.72 -1166.27,951.61 -2113.55,2116.78 -3031.67,3244.2l-113.3 139.2c-366.82,450.96 -826.4,862.02 -1330.28,1188.94 -1799.58,1170.63 -3106.1,2380.04 -4111.67,3806.32 -539.45,764.93 -1321.61,1170.61 -2394.02,1242.91 -1383.14,92.75 -2430.75,44.23 -3396.35,-155.34 -664.6,-138.1 -1309.76,-473.63 -1915.02,-805.93 -354.95,-194.2 -700.22,-430.49 -1033.55,-658.11 -352.77,-240.59 -718.55,-489.83 -1103.69,-699.12 -790.85,-427.25 -1667.97,-836.12 -2682.14,-1248.29 -1503.94,-611.73 -2670.23,-1480.24 -3564.65,-2655.12 -522.14,-685.13 -858.78,-1544.95 -1032.5,-2626.05 -363.59,-2269.98 -985.05,-4525.95 -1850.31,-6704.22 -288.05,-726.07 -673.2,-1511.53 -1597.81,-1636.68 -152.08,-20.47 -304.24,-31.28 -457.43,-36.66l0 411.06c134.85,4.34 269.72,15.09 402.44,32.38 705.6,94.97 1004.46,706.7 1270.95,1379.9 853.42,2150.21 1468.39,4377.05 1826.54,6617.89 183.44,1150.08 547.02,2069.31 1111.28,2810.53 940.79,1235.32 2163.16,2146.97 3737.26,2786.75 1000.14,406.72 1864.3,808.07 2641.14,1228.84 366.82,198.55 722.82,441.25 1067.04,676.46 342.01,234.09 695.87,474.72 1068.07,679.68 632.21,347.39 1308.72,699.12 2029.41,848.04 1004.46,208.24 2086.6,257.86 3507.44,162.91 1202.94,-80.92 2086.6,-543.79 2702.61,-1416.58 974.22,-1382.04 2245.18,-2557 3999.42,-3698.4 539.45,-350.63 1031.41,-790.83 1425.18,-1274.19l113.28 -139.2c904.15,-1111.28 1838.45,-2260.27 2972.33,-3184.87 480.12,-391.63 897.66,-843.69 1355.11,-1351.85 324.71,-360.35 296.68,-1165.18 -52.87,-1510.43 -217.89,-215.77 -453.1,-433.74 -699.12,-650.61 -312.87,-275.09 -627.92,-548.05 -942.92,-819.92 -582.59,-504.93 -1184.61,-1026.03 -1763.96,-1552.53 -372.2,-338.76 -732.55,-707.74 -1081.04,-1064.83 -147.82,-151.06 -295.62,-303.16 -445.58,-453.12 -928.94,-931.08 -2128.64,-1262.27 -3776.13,-1045.47l-430.49 58.25c-877.13,119.77 -1784.5,243.81 -2694.01,206.05 -1100.45,-45.35 -2162.06,-330.16 -3154.67,-618.21 -1403.61,-406.73 -2842.84,-617.11 -4081.41,-782.22 -280.54,-37.76 -561.02,-71.19 -841.56,-105.71 -581.56,-71.19 -1182.47,-143.48 -1765.07,-246.02 -1188.94,-207.15 -2603.36,-421.82 -4081.41,-439.12 -144.58,-2.14 -286.95,1.1 -430.49,4.34 -256.78,5.38 -497.34,10.81 -739.01,-10.81 -796.23,-69.06 -1157.66,-233.07 -1337.81,-1069.19 -149.96,-700.22 -228.72,-1419.8 -296.68,-2097.35 -91.71,-921.37 -337.66,-1564.38 -798.35,-2087.64 -390.53,-444.5 -722.82,-807.04 -1042.22,-1141.47 -584.8,-610.63 -759.55,-1221.27 -548.07,-1924.73 64.71,-216.86 98.2,-439.1 131.63,-652.73 23.71,-154.29 45.33,-299.9 77.66,-443.44 104.68,-457.44 202.81,-917.09 302.11,-1375.57 316.11,-1469.43 641.92,-2988.53 1168.42,-4424.52 788.64,-2155.66 2056.34,-3342.39 3991.89,-3736.18 1054.09,-214.72 1864.3,-612.83 2479.27,-1218.08 366.83,-361.45 762.79,-682.92 1068.09,-923.51 687.25,-543.78 1480.24,-745.5 2294.79,-584.78 1382.04,271.86 2467.4,937.54 3223.71,1979.79 468.27,645.16 915.99,1322.71 1348.62,1979.79 318.25,482.24 646.27,979.65 981.81,1462.94 648.39,932.18 1318.41,1690.63 2049.86,2317.46 1423.04,1220.22 3111.53,1783.38 4724.45,2210.65 1854.62,491.96 3070.53,1241.79 3944.4,2431.78 833.99,1136.09 1871.88,2213.89 3084.53,3205.38 1309.76,1070.29 2535.36,1509.39 3853.79,1381 375.44,-36.66 673.22,-35.62 938.67,2.14 896.54,127.28 1390.66,197.44 1667.96,1316.24 125.15,502.77 63.68,988.27 -2.14,1500.7 -25.92,198.53 -51.76,403.49 -66.92,609.61 -15.09,210.38 -35.62,421.8 -56.09,632.2 -42.11,427.25 -85.25,869.61 -78.76,1309.76 4.34,338.76 47.49,676.44 89.52,1003.36 38.86,304.24 79.87,619.25 86.28,923.51 32.38,1505.05 -436.98,2900.04 -1433.87,4265.89 -148.91,203.91 -305.35,403.49 -461.77,603.13 -261.1,334.44 -530.83,678.65 -766.03,1044.36 -301,469.29 -380.87,954.79 -228.72,1402.58 260.02,771.41 539.45,1594.57 841.56,2423.18l63.68 173.72c240.57,651.65 488.72,1325.95 397.01,1997.01 -115.44,843.71 -556.68,1544.96 -1276.33,2026.17 -762.79,510.31 -1522.29,989.31 -2260.27,1425.18 -1235.32,730.41 -2053.1,1670.11 -2499.8,2875.24 -158.56,427.25 -305.35,866.37 -447.72,1290.33 -173.72,516.78 -352.77,1049.74 -552.4,1564.38 -201.77,518.91 -426.17,1058.36 -762.79,1464.05 -637.65,769.27 -1251.51,797.31 -2431.78,107.92 -290.21,-169.39 -572.88,-373.3 -846.94,-569.64 -284.83,-205.01 -579.35,-416.44 -890.08,-597.68l-97.11 -56.09c-640.87,-373.3 -1304.36,-758.46 -2016.44,-987.19 -1363.71,-438 -2808.32,77.68 -3867.79,1379.92 -949.41,1167.37 -1370.18,2532.12 -1589.19,3912.02l415.41 0 6.35 0.87z"/>
    <path class="fil0" d="M19023.93 55882.08c169.39,-504.93 456.34,-1035.76 972.08,-1432.77 1008.74,-776.79 2163.16,-831.85 3430.88,-162.91 624.68,330.16 1185.7,823.16 1728.39,1299 94.95,83.11 189.86,166.15 284.81,248.15 18.33,16.19 36.67,32.38 55,47.47l322.57 0c-79.87,-63.66 -160.77,-131.61 -243.81,-202.81 -94.95,-82.01 -188.82,-165.05 -283.78,-247.05 -551.31,-484.45 -1120.94,-983.93 -1767.2,-1325.95 -1345.38,-710.98 -2574.22,-649.49 -3652.02,181.24 -578.31,445.6 -886.83,1040.03 -1062.71,1595.67l216.88 0 -1.1 -0.05zm11488.05 0c205.01,-257.88 316.11,-562.12 336.64,-914.89 14.05,-237.34 36.66,-473.63 60.43,-709.94 12.95,-124.04 24.81,-248.15 35.62,-373.3 31.28,-349.57 58.23,-700.2 84.14,-1050.85 57.19,-756.31 117.56,-1537.43 222.24,-2298.01 235.21,-1708.96 911.65,-2929.19 2069.31,-3730.8 344.14,-238.43 690.49,-473.63 1037.9,-708.82 650.59,-441.25 1324.85,-898.7 1971.1,-1371.3 1362.61,-996.88 1920.45,-2445.83 1704.63,-4431 -100.33,-922.46 -165.05,-2132.99 222.24,-3312.2 434.77,-1325.95 937.56,-2619.57 1325.95,-3598.07 636.54,-1604.3 786.5,-2991.77 470.39,-4364.1 -179.1,-778.98 -144.58,-1626.95 -111.14,-2446.94l1.1 -36.67c30.17,-751.96 99.23,-1514.76 167.24,-2253.77 39.9,-432.65 78.76,-864.18 111.16,-1297.91 12.95,-167.24 7.57,-336.63 2.14,-499.53 -5.38,-184.48 -10.83,-359.25 6.47,-532.97 99.25,-977.46 236.31,-1840.59 903.04,-2505.18 110.04,-110.06 217.89,-223.34 325.81,-336.64 224.38,-236.29 455.31,-481.2 708.84,-685.11 973.17,-785.47 1913.97,-976.43 2962.61,-600.92 835.09,299.9 1713.3,518.91 2561.27,730.39 298.86,74.44 597.68,148.92 895.46,227.62 1930.11,506.03 3065.1,1612.97 3469.68,3382.31 201.77,879.32 317.21,1773.67 395.97,2454.46 172.61,1506.15 818.88,2226.84 2303.39,2568.84 851.28,196.34 1552.53,436.98 2143.73,734.76 1498.58,754.1 2452.33,2104.93 2835.34,4015.59 133.77,666.73 75.52,1450.06 -151.06,2044.5 -330.14,865.26 -892.21,1666.87 -1392.85,2349.84l-231.96 315.07c-703.46,949.41 -1430.61,1930.09 -1630.19,3148.19 -258.9,1584.91 -700.22,3026.29 -1349.71,4408.34 -431.55,918.11 -717.46,1948.49 -926.75,3340.26 -160.77,1070.28 -338.76,2111.4 -751.96,3080.24 -773.55,1816.88 -1689.53,2418.9 -3649.88,2392.99 -619.27,-8.6 -1251.53,-82.01 -1862.16,-153.18 -390.53,-45.35 -794.09,-92.77 -1192.18,-123.01 -669.98,-50.73 -1351.87,-71.19 -2011.08,-90.63l-362.47 -10.81c-155.34,-5.38 -311.83,2.14 -462.82,9.71 -264.34,12.97 -513.53,24.81 -750.95,-23.71 -997.98,-202.81 -1972.2,-31.28 -2914.09,133.77l-234.1 41c-870.64,151.06 -1747.82,343.11 -2596.9,528.62 -606.37,132.73 -1233.18,269.72 -1851.4,390.54 -1362.61,265.38 -2795.38,644.11 -4043.66,1600 -189.86,145.68 -396.99,326.92 -557.78,562.12l256.78 0c110.06,-133.77 251.4,-264.34 426.15,-399.22 1214.86,-929.98 2619.57,-1300.03 3957.38,-1561.14 620.35,-120.82 1248.27,-258.91 1855.67,-391.63 846.94,-185.58 1721.91,-376.54 2588.27,-526.5l234.1 -41c923.51,-162.91 1879.45,-330.16 2837.48,-134.85 263.24,53.95 537.29,39.9 801.59,26.95 147.82,-7.59 301,-14.07 446.68,-9.72l363.59 10.81c657.01,19.43 1336.76,39.92 2001.34,89.52 393.78,30.19 796.23,76.63 1183.58,121.9 616.07,71.19 1252.62,145.68 1882.69,155.34 2038.01,30.19 3038.13,-630.06 3841.93,-2518.13 421.82,-990.41 603.13,-2046.64 766.03,-3129.86 206.05,-1371.3 486.58,-2384.38 909.51,-3283.06 658.11,-1399.33 1104.8,-2859.05 1366.95,-4463.4 190.96,-1168.41 903.03,-2129.73 1592.43,-3058.67l233.05 -315.07c509.26,-694.77 1080,-1509.39 1418.77,-2398.37 243.83,-638.68 303.16,-1445.72 160.79,-2158.82 -395.97,-1975.46 -1386.38,-3374.79 -2944.3,-4159.15 -606.35,-305.35 -1322.71,-551.3 -2190.18,-750.93 -1400.37,-323.68 -1981.92,-970.98 -2145.92,-2391.88 -78.78,-687.27 -196.34,-1589.19 -399.22,-2478.23 -417.54,-1825.5 -1634.54,-3015.48 -3618.6,-3535.49 -298.86,-78.76 -597.68,-153.2 -897.65,-227.62 -843.69,-210.39 -1716.54,-428.3 -2541.84,-723.93 -370.06,-132.73 -728.27,-199.58 -1078.9,-199.58 -709.93,0 -1389.61,275.1 -2082.26,835.09 -263.24,212.53 -499.55,462.82 -729.31,703.46 -105.71,112.18 -212.51,224.38 -321.47,332.28 -714.22,712.08 -858.8,1611.87 -962.37,2629.23 -19.43,187.72 -12.95,376.54 -7.57,559.92 4.33,158.58 9.71,321.49 -2.14,479.01 -32.4,431.53 -71.19,863.13 -111.16,1293.57 -67.94,741.22 -138.1,1507.19 -168.29,2263.49l-1.09 36.66c-33.43,832.88 -69.06,1694.92 116.52,2500.84 306.38,1329.19 159.67,2677.81 -460.69,4241.09 -389.49,981.81 -893.32,2278.6 -1330.28,3609.98 -399.22,1216.99 -333.4,2455.56 -230.86,3398.5 207.15,1905.28 -323.68,3292.77 -1621.59,4242.18 -643.01,470.39 -1315.19,926.73 -1964.63,1366.95 -347.39,235.21 -694.77,471.5 -1040.02,709.93 -1207.29,837.23 -1911.78,2103.83 -2155.66,3872.14 -105.71,767.07 -165.05,1552.53 -223.34,2310.98 -26.95,349.59 -53.95,699.12 -84.14,1048.71 -10.81,124.04 -22.67,247.05 -35.62,371.16 -23.71,239.53 -47.49,479.01 -61.47,718.55 -20.47,371.16 -152.1,675.41 -404.6,926.73l274.07 0 1.04 2.39z"/>
    <path class="fil0" d="M74808.97 28368.26c330.14,-60.43 682.92,-76.63 1022.79,-90.61l182.34 -8.62c428.29,-20.47 857.7,-36.66 1286.05,-52.85 409.96,-15.1 819.92,-30.19 1229.94,-49.62 110.06,-5.38 221.14,-8.62 331.19,-11.86 371.16,-11.85 755.22,-24.8 1128.51,-99.23 873.89,-175.86 1097.23,-696.98 1204.05,-1596.76 160.77,-1357.24 347.39,-2468.53 1136.09,-3395.26 624.7,-733.65 1433.85,-1130.64 2474.99,-1214.86 780.02,-62.57 1541.71,142.44 2194.46,340.92 366.82,111.14 732.53,227.62 1098.31,344.14 803.79,255.67 1635.57,520.02 2469.56,726.07 679.68,168.29 1393.9,211.5 2084.4,253.53l169.39 10.81c1191.08,73.38 2158.82,350.63 2966.95,857.7l0 -473.63c-825.36,-461.79 -1798.48,-723.93 -2942.14,-794.09l-170.49 -10.81c-672.16,-39.9 -1365.85,-82.01 -2009.98,-241.67 -821.02,-203.91 -1646.38,-466.07 -2443.7,-719.6 -367.92,-116.52 -734.74,-233.05 -1103.71,-345.25 -688.29,-208.25 -1494.22,-426.15 -2346.6,-357.11 -1139.32,91.73 -2066.07,548.07 -2755.46,1358.33 -932.18,1095.09 -1098.33,2491.2 -1231,3613.22 -101.44,857.7 -290.19,1124.18 -877.13,1242.91 -339.87,67.95 -689.39,79.87 -1060.55,91.71 -112.2,3.24 -225.48,7.59 -337.68,12.97 -408.92,19.43 -817.78,34.52 -1226.7,49.61 -430.49,16.19 -860.94,32.4 -1290.33,52.87l-181.24 8.62c-353.87,15.09 -720.69,31.28 -1078.9,97.09 -1359.37,250.29 -2729.56,65.81 -4068.46,-545.93 -790.85,-361.44 -1430.63,-922.46 -2183.7,-1618.33 -1031.41,-952.65 -2098.45,-1937.68 -2976.68,-3094.24 -336.63,-444.5 -664.6,-894.42 -993.65,-1344.28 -766.02,-1050.85 -1557.9,-2136.23 -2454.46,-3127.74 -809.17,-894.4 -624.68,-1980.82 -326.92,-2733.89 372.2,-942.94 986.13,-1705.73 1635.57,-2467.42 1567.62,-1837.35 3252.87,-2805.08 5305.99,-3044.62 802.69,-93.87 1502.91,-285.92 2081.16,-568.61 1137.13,-556.68 1483.48,-1671.2 1819.02,-2747.94l21.57 -69.06c342.01,-1097.23 722.82,-2146.97 1617.25,-2918.38 658.11,-567.49 1428.42,-910.59 2163.16,-1196.46 1691.66,-659.22 3197.82,-1291.41 4500.06,-2347.64 53.95,-44.24 107.92,-88.49 162.91,-132.73l-660.25 0c-1202.94,908.41 -2595.79,1489.96 -4151.57,2096.26 -769.27,299.92 -1577.35,660.25 -2282.93,1268.76 -976.43,841.56 -1396.11,1995.91 -1741.36,3107.19l-21.57 69.06c-309.62,993.65 -628.97,2021.82 -1607.52,2500.84 -536.21,263.24 -1192.18,441.24 -1948.51,529.72 -2131.87,249.26 -3954.12,1291.43 -5571.37,3185.97 -673.2,789.74 -1309.74,1581.67 -1704.61,2582.84 -487.64,1235.32 -348.49,2328.21 404.58,3161.16 881.45,974.2 1667.96,2052.07 2427.51,3094.24 330.16,452.06 660.27,904.13 998,1350.74 899.78,1185.72 1979.79,2183.7 3025.18,3148.21 613.89,566.4 1377.78,1271.98 2291.57,1689.53 1007.7,460.69 2031.53,691.55 3058.67,691.55 418.58,0 837.23,-38.86 1254.76,-115.44l3.19 -2.02zm13681.41 -28361.84l603.11 0c993.65,945.15 1892.35,1980.84 2686.42,3100.72 923.51,1302.24 2213.89,2079.03 4010.23,2399.47l0 415.41c-1929.06,-335.54 -3357.48,-1183.58 -4345.77,-2576.38 -863.13,-1215.89 -1851.4,-2332.55 -2953.99,-3338.05l0 -1.17z"/>
    <path class="fil0" d="M86114.68 6.42l-549.17 0c302.11,98.21 604.16,242.79 906.27,435.87 1274.19,813.52 2082.26,1967.87 2766.29,3094.26 816.74,1345.37 1682.02,2182.59 2725.28,2634.66 1245.05,538.35 2527.86,874.97 3826.86,1004.46l0 -207.15c-1270.96,-129.49 -2526.75,-459.58 -3744.85,-986.13 -1002.26,-433.74 -1838.45,-1243.94 -2631.42,-2551.55 -695.89,-1147.96 -1521.26,-2325.05 -2831,-3161.16 -156.44,-99.25 -311.83,-186.62 -467.17,-262.16l-1.09 -1.1zm-2442.61 0l-562.12 0c-114.39,53.97 -228.72,113.3 -344.14,178.01l-1080 612.83c-1625.85,921.37 -3307.86,1875.11 -4935.91,2856.91 -572.88,345.25 -1143.61,819.92 -1795.26,1492.08 -649.49,669.98 -859.88,1550.4 -1063.79,2400.5 -35.62,149.96 -71.19,299.92 -110.06,447.74l-30.17 117.56c-181.25,708.84 -351.73,1377.76 -874.99,1915.01 -605.26,620.35 -1384.25,780.03 -2066.07,855.56 -308.59,34.52 -619.25,61.47 -929.98,88.49 -789.74,69.04 -1606.49,140.23 -2385.42,329.06 -1872.97,456.34 -3169.76,1772.63 -3750.21,3808.44 -252.43,884.71 -64.71,1908.54 529.74,2880.62 1123.13,1838.45 2254.87,3378.02 3460.02,4708.24l281.57 311.83c645.16,714.2 1313,1452.18 1993.79,2155.64 769.26,795.12 1661.47,1274.19 2578.57,1384.25 242.77,29.14 487.62,41 733.63,41 639.78,0 1289.27,-82.01 1921.49,-162.91l77.66 -9.72c720.69,-91.71 1427.39,-324.71 1895.59,-491.96 898.68,-321.47 1635.57,-976.41 2318.55,-2061.72 648.41,-1031.41 1288.19,-1772.63 2011.08,-2332.55 1437.09,-1112.32 3081.27,-1390.66 4888.44,-827.5 325.81,101.44 650.59,211.48 974.22,320.43 713.17,239.53 1451.08,487.64 2196.58,651.65 1733.77,379.77 3383.41,221.14 4902.45,-472.53 521.12,-237.34 942.94,-555.64 1279.57,-964.51l0 -340.92c-339.87,487.64 -786.5,854.45 -1364.81,1117.76 -1476.99,674.3 -3083.48,828.61 -4773.01,458.55 -734.76,-160.77 -1467.29,-407.82 -2175.02,-646.27 -325.81,-110.04 -651.65,-219 -979.65,-321.47 -1874.02,-584.8 -3581.94,-295.64 -5075.08,860.92 -742.26,575.07 -1397.13,1333.52 -2058.48,2385.42 -657.03,1044.36 -1360.47,1672.28 -2213.89,1977.58 -459.58,164.01 -1151.18,392.73 -1852.43,481.2l-78.76 9.72c-864.18,110.06 -1756.44,223.34 -2605.52,120.8 -869.61,-104.68 -1718.68,-562.11 -2454.46,-1322.71 -678.65,-701.25 -1345.38,-1438.13 -1989.51,-2150.21l-281.57 -311.81c-1195.42,-1320.57 -2320.71,-2850.43 -3436.26,-4678.07 -564.26,-923.49 -744.46,-1888.06 -508.15,-2717.7 558.88,-1960.35 1804.95,-3228.08 3601.31,-3666.09 762.77,-185.58 1571.95,-255.66 2354.12,-324.71 311.81,-26.95 624.68,-53.95 934.3,-88.49 717.46,-78.76 1539.58,-249.24 2190.18,-915.97 562.12,-576.11 747.7,-1303.28 927.84,-2007.84l30.19 -117.56c38.86,-148.92 74.42,-299.92 111.14,-450.98 197.44,-823.16 401.35,-1675.52 1010.95,-2305.6 639.78,-660.25 1197.56,-1123.13 1754.31,-1459.7 1625.85,-980.7 3305.74,-1933.35 4930.55,-2854.77l1079.99 -612.83c270.83,-154.29 538.35,-272.97 804.85,-357.11l2.07 6.42z"/>
    <path class="fil0" d="M77446.87 23195c430.49,-368.96 844.8,-770.31 1245.03,-1158.7 520.02,-504.93 1059.47,-1027.09 1634.54,-1478.1 1384.25,-1082.14 2741.47,-1562.26 4160.19,-1462.96 694.77,48.59 1401.47,222.26 2001.34,387.3 427.27,116.52 857.7,260 1274.2,398.11 567.49,188.81 1154.42,383.01 1747.82,516.78 1863.24,419.67 3378.02,-133.77 4500.06,-1648.54 680.79,-918.11 1233.18,-1601.04 1781.24,-2202.02l0 -294.54c-36.66,33.43 -71.18,67.95 -104.66,104.68 -569.64,619.25 -1137.13,1319.47 -1842.73,2269.98 -1069.17,1443.58 -2512.75,1971.11 -4289.66,1570.86 -582.59,-131.63 -1165.18,-324.71 -1727.3,-511.4 -418.58,-139.2 -851.26,-282.67 -1283.9,-401.35 -609.61,-167.24 -1329.19,-344.14 -2042.36,-393.77 -1467.29,-101.44 -2875.24,390.54 -4300.42,1506.15 -583.69,457.44 -1126.38,982.89 -1650.73,1492.1 -398.11,386.25 -810.28,785.47 -1236.43,1150.08 -1548.19,1327.05 -3111.53,1679.82 -4778.4,1075.66 -789.73,-285.92 -1443.56,-824.26 -2117.88,-1745.62 -401.34,-548.07 -796.21,-1116.66 -1178.13,-1666.87 -373.3,-538.35 -759.55,-1093.99 -1153.32,-1632.33 -164.01,-224.38 -338.78,-443.44 -508.15,-654.87 -436.98,-548.07 -890.08,-1114.52 -1163.04,-1789.88 -308.59,-764.93 -320.43,-1414.42 -37.76,-2045.58 444.48,-991.51 1288.17,-1519.12 2576.36,-1614 1698.15,-125.15 3325.17,224.38 4554.01,543.78 523.26,135.97 1149.06,270.83 1809.31,244.91 577.21,-22.66 1214.86,-401.34 1665.82,-987.17 387.28,-503.83 550.26,-1054.09 447.72,-1509.39 -106.82,-473.63 -247.05,-946.17 -383.01,-1402.58 -51.76,-175.86 -104.68,-352.77 -155.34,-529.72 -577.21,-2017.55 -187.72,-3289.53 1390.66,-4537.82 1287.15,-1018.46 2820.24,-1940.92 4684.53,-2822.38 933.22,-441.25 2282.93,-693.74 3410.35,606.35 553.43,637.65 1047.6,1344.28 1466.18,2101.69 739.01,1337.81 1667.96,2214.99 2838.58,2681.04 877.11,350.64 1829.76,545.93 2728.51,704.5 787.6,139.22 1595.67,234.1 2377.9,324.73l0 -207.15c-772.5,-89.52 -1568.72,-183.44 -2342.28,-320.43 -887.92,-157.54 -1827.62,-349.59 -2688.61,-693.75 -1125.28,-448.82 -2020.79,-1295.76 -2735.01,-2589.31 -426.15,-770.31 -927.84,-1488.86 -1491,-2137.26 -592.3,-682.92 -1322.69,-1029.27 -2131.87,-1029.27 -482.26,0 -993.65,123.01 -1520.15,372.2 -1879.43,886.83 -3425.5,1819.02 -4724.43,2846.09 -1634.54,1292.53 -2058.48,2671.33 -1460.8,4756.83 50.71,176.96 103.58,353.87 156.42,530.83 134.87,454.2 274.07,922.46 379.78,1389.63 89.52,395.96 -60.43,883.59 -409.96,1338.9 -407.84,530.83 -1001.24,887.94 -1510.43,907.37 -636.56,24.8 -1241.81,-106.82 -1749.98,-239.55 -1243.93,-323.68 -2895.69,-678.65 -4620.86,-550.26 -1371.28,101.44 -2271.08,668.94 -2748.99,1734.87 -306.38,685.13 -295.62,1385.28 35.62,2206.3 284.83,703.46 746.6,1281.71 1193.23,1841.69 168.29,210.39 342.01,428.29 502.77,648.41 391.63,536.21 776.79,1090.74 1150.09,1628.06 381.9,551.3 777.88,1119.88 1180.32,1671.2 700.22,955.89 1383.14,1516.89 2213.89,1817.91 550.26,199.57 1089.64,298.86 1620.49,298.86 1149.04,0 2260.25,-468.25 3361.83,-1412.28l-1.22 1.04z"/>
    <path class="fil0" d="M74999.92 21743.85c821.04,-268.64 1484.58,-794.09 2125.4,-1301.14l126.25 -100.35c1211.61,-956.98 2544.05,-1913.97 4071.7,-2438.27 1341.04,-458.53 2787.86,-461.77 4424.53,-6.47 467.15,129.47 938.65,278.33 1393.89,420.77 674.32,211.5 1370.19,430.49 2069.31,595.54 1184.61,280.55 2221.46,0 2997.15,-811.3 488.72,-511.41 944.03,-1068.09 1384.25,-1606.49 167.25,-205.01 334.44,-409.98 503.83,-612.83 510.29,-610.64 1076.74,-1133.9 1692.77,-1562.26l0 -249.24c-676.46,453.1 -1295.77,1015.21 -1850.31,1678.77 -169.39,203.91 -337.68,408.92 -506.02,613.87 -438.01,535.12 -890.08,1088.62 -1373.44,1593.54 -722.82,755.22 -1691.66,1016.33 -2801.84,754.12 -691.55,-164.01 -1385.28,-381.92 -2055.31,-592.31 -457.44,-143.48 -929.98,-292.38 -1400.39,-422.91 -1678.77,-466.07 -3166.52,-462.82 -4546.42,9.71 -1556.81,534.07 -2905.43,1502.91 -4132.14,2470.66l-126.25 100.33c-626.83,497.34 -1275.22,1010.95 -2061.72,1267.7 -901.94,294.54 -1845.97,-105.71 -2194.46,-931.08 -380.87,-904.13 -58.23,-1739.13 843.69,-2178.25 436.98,-213.63 901.94,-392.73 1352.95,-566.4 237.34,-91.71 474.74,-183.44 709.94,-279.43 2287.27,-941.91 3714.59,-2198.8 4491.43,-3955.24 674.3,-1524.48 758.45,-2890.33 256.78,-4174.22 -196.34,-502.79 -368.97,-1008.74 -542.69,-1525.53 -303.14,-900.89 -158.58,-1695.99 427.25,-2361.69 636.54,-722.82 1451.1,-1262.27 2419.94,-1603.24 1288.19,-453.1 2153.45,-198.53 2892.54,849.07 429.39,608.49 856.64,1216.99 1283.9,1825.48 996.89,1420.9 2181.51,2253.79 3620.74,2544.05 882.56,177.99 1788.82,298.86 2665.95,416.44 461.77,61.47 922.46,124.04 1383.14,193.1 415.39,62.57 829.64,131.61 1242.89,201.77l0 -208.25c-403.48,-67.95 -808.07,-134.87 -1212.65,-196.34 -461.79,-70.14 -923.49,-131.61 -1386.38,-194.19 -873.89,-116.54 -1776.91,-237.34 -2652.99,-414.3 -1385.28,-279.45 -2527.86,-1084.28 -3493.46,-2460.94 -427.25,-608.51 -854.45,-1218.1 -1282.81,-1826.54 -545.92,-774.64 -1174.89,-1150.08 -1962.49,-1150.08 -353.87,0 -740.12,75.52 -1165.16,225.48 -1003.38,352.77 -1845.97,911.65 -2506.29,1661.49 -638.68,725.01 -796.21,1587.05 -468.25,2563.41 174.77,518.91 347.39,1027.07 545.92,1534.19 481.22,1231 398.11,2544.05 -253.52,4015.61 -755.22,1704.61 -2146.97,2927.06 -4382.43,3847.31 -233.07,96.01 -469.31,186.62 -705.6,278.35 -454.2,174.77 -923.49,356.01 -1368.06,572.87 -1009.84,491.96 -1371.28,1428.42 -942.92,2443.71 304.24,721.79 1010.95,1153.32 1784.5,1153.32 217.89,0 441.24,-34.52 662.44,-106.82l0.92 5.45z"/>
    <path class="fil0" d="M60835.22 55882.08l648.41 0c49.62,-44.24 98.2,-87.39 145.68,-130.53 1405.82,-1283.91 2233.3,-2901.16 2856.9,-4314.48 506.03,-1143.61 1178.13,-1841.69 2117.9,-2197.7 848.02,-321.47 1720.8,-353.87 2522.46,-93.85 1392.87,452.06 2784.62,948.37 4135.38,1474.86 953.75,371.16 1912.87,783.26 2839.6,1181.37 418.58,179.1 836.12,359.25 1255.81,535.1l5034.13 2122.16c1772.63,747.7 3299.25,1212.67 4986.64,1054.09 1129.61,-106.8 1973.3,-716.41 2581.81,-1236.43 237.33,-202.81 471.5,-409.96 705.6,-617.11 456.34,-403.48 927.84,-821.02 1415.52,-1194.32 1247.19,-958.03 2014.31,-2276.46 2343.36,-4031.8 200.67,-1071.31 515.74,-1884.81 1369.09,-2342.26l0 -457.44 -28.05 12.95c-1189.98,544.83 -1541.71,1624.81 -1745.62,2711.23 -309.62,1650.73 -1026.03,2888.19 -2189.08,3781.51 -498.45,383.01 -976.43,804.83 -1437.09,1212.65 -231.96,205.01 -463.93,411.06 -700.22,611.73 -835.09,713.18 -1561.16,1064.85 -2353.09,1139.33 -1602.16,151.06 -3072.67,-299.92 -4788.11,-1023.84l-5034.13 -2122.16c-418.58,-175.86 -835.09,-356.01 -1252.62,-535.1 -929.98,-399.22 -1892.35,-812.42 -2852.57,-1186.8 -1357.23,-528.64 -2756.58,-1027.09 -4156.95,-1482.39 -892.21,-289.14 -1858.92,-254.62 -2795.38,100.35 -1034.64,392.72 -1802.81,1182.46 -2347.64,2416.69 -607.4,1373.42 -1409.06,2944.28 -2758.7,4176.36 -175.87,159.68 -347.4,304.26 -516.78,433.74l-2.27 2.09z"/>
    <path class="fil0" d="M91556.56 41988.14l12.95 0c985.05,0 1962.49,-158.58 2909.76,-311.83l199.58 -32.38c366.82,-59.33 741.22,-101.44 1111.28,-139.2l0 -207.15c-380.87,37.76 -766.03,82.01 -1143.61,142.44l-200.67 32.38c-1022.79,166.15 -2082.26,334.44 -3138.48,305.35 -1041.14,-31.3 -1738.11,-600.92 -1820.12,-1487.82 -30.17,-323.68 -41,-654.87 -52.85,-976.41 -11.86,-343.13 -23.71,-698.03 -58.23,-1046.52 -106.82,-1082.12 -214.74,-1906.39 -348.51,-2672.42 -173.72,-995.79 -391.63,-1977.58 -638.68,-3066.2 -211.48,-935.41 -407.82,-1708.96 -836.11,-2453.42 -436.98,-758.45 -1056.23,-1348.61 -1655.01,-1919.35 -197.44,-187.72 -394.87,-375.44 -585.83,-569.62 -84.14,-85.25 -170.49,-170.49 -255.67,-255.67 -424.01,-420.77 -863.13,-855.56 -1140.37,-1358.33 -322.57,-585.83 -380.87,-1178.13 -164.01,-1665.82 211.5,-475.77 665.7,-808.07 1314.1,-961.27 554.54,-130.53 1215.89,-72.28 1911.76,169.39 575.07,199.57 1151.18,394.87 1726.2,591.19 773.53,263.26 1548.19,525.4 2318.55,797.33l220.12 76.63c456.34,157.53 926.73,321.47 1333.52,565.35 757.34,454.2 1296.79,1173.85 1649.63,2199.84 296.68,862.02 733.63,1867.54 1564.38,2634.66l0 -286.95c-709.93,-719.58 -1099.37,-1628.06 -1370.18,-2413.45 -368.97,-1073.52 -937.56,-1828.74 -1738.11,-2308.84 -425.06,-254.64 -906.27,-421.82 -1372.33,-583.69l-219 -76.63c-772.52,-271.86 -1546.05,-535.1 -2320.71,-798.36 -575.07,-195.29 -1151.18,-391.63 -1725.15,-590.16 -475.77,-165.05 -938.65,-248.15 -1366.95,-248.15 -230.86,0 -452.06,23.71 -660.25,73.4 -713.17,168.27 -1215.89,540.54 -1454.34,1077.78 -243.81,548.07 -182.34,1205.15 172.63,1848.17 291.3,528.62 741.22,974.22 1174.89,1404.71 85.25,85.23 170.49,169.37 254.64,254.62 193.1,195.31 391.63,385.16 590.16,573.97 589.07,559.92 1197.56,1139.33 1618.35,1872.99 414.29,719.58 606.35,1478.1 814.54,2396.21 246.02,1085.38 462.82,2063.93 636.54,3055.44 132.73,760.59 239.55,1580.59 346.35,2657.33 33.43,342.02 46.38,693.75 58.25,1033.55 10.81,323.69 22.67,659.22 52.85,988.27 91.73,998 865.26,1639.92 2018.6,1674.44 85.23,2.14 169.37,4.34 254.62,4.34l0.92 -0.12z"/>
    <path class="fil0" d="M64051.38 55882.08l307.49 0c538.35,-488.74 1063.79,-1013.08 1375.56,-1718.68 97.11,-220.1 196.34,-438.01 296.68,-655.97 182.34,-398.11 371.16,-810.28 538.35,-1224.51 323.68,-801.59 1085.36,-1614 2265.63,-1494.24 863.14,88.49 1632.35,268.62 2286.19,536.21 1685.25,686.17 3290.63,1637.78 4769.76,2828.86 1058.36,851.28 2202.04,1397.13 3494.56,1666.85 94.95,19.43 188.82,41 283.78,62.57l836.12 0c-360.35,-100.33 -719.6,-188.81 -1077.8,-263.24 -1261.24,-263.24 -2375.69,-795.12 -3408.21,-1625.85 -1495.34,-1202.94 -3116.91,-2165.32 -4821.54,-2859.05 -672.16,-274.05 -1459.7,-459.58 -2342.26,-550.26 -87.39,-8.62 -172.63,-12.95 -256.78,-12.95 -1145.8,0 -1893.44,823.16 -2221.46,1635.57 -165.05,409.96 -352.77,819.92 -534.07,1215.89 -100.33,219 -200.67,438.01 -297.78,659.22 -326.92,739.01 -915.97,1281.71 -1495.32,1801.72l1.1 -2.14z"/>
    <path class="fil0" d="M4847.39 55882.08c-111.16,-525.4 -228.72,-1063.81 -376.54,-1587.05 -117.58,-416.44 -93.87,-839.37 77.66,-1370.19 193.1,-600.92 1090.74,-966.7 1882.69,-766.03 716.41,181.24 1417.66,138.1 2083.36,-128.39 499.53,-199.57 988.27,-443.44 1459.7,-678.65 364.68,-181.24 741.22,-370.06 1118.8,-535.1 961.27,-420.77 1871.87,-458.55 2786.75,-115.42 722.82,270.81 1140.37,731.5 1240.7,1366.94 92.77,582.59 32.38,1208.39 -38.86,1742.39 -76.63,572.88 -179.1,1152.28 -278.33,1712.2 -20.48,118.68 -42.11,238.45 -63.68,358.21l209.29 0 57.19 -322.59c99.23,-562.11 202.81,-1144.7 279.43,-1720.8 73.4,-549.17 134.87,-1192.2 37.76,-1801.72 -113.28,-714.22 -575.07,-1227.75 -1372.32,-1526.62 -435.87,-164.01 -871.75,-246.02 -1309.76,-246.02 -535.1,0 -1075.66,121.9 -1631.3,364.68 -381.9,167.25 -760.59,356.01 -1127.4,539.45 -468.25,234.1 -953.75,475.77 -1444.61,672.16 -624.7,249.26 -1283.91,290.19 -1957.13,119.77 -906.27,-228.72 -1899.92,193.1 -2128.62,901.94 -114.4,356.01 -248.15,896.54 -78.78,1489.94 142.44,502.79 255.67,1021.71 363.59,1530.96l210.39 0 0 -0.05z"/>
    <path class="fil0" d="M42364.6 53550.61l-14.05 0c-69.04,0 -139.2,1.1 -208.24,2.14 -937.56,22.67 -2038.03,94.97 -3094.26,467.17 -473.63,167.25 -962.36,322.57 -1434.89,472.53 -748.74,238.43 -1523.39,484.45 -2263.51,784.36 -374.39,152.1 -715.31,352.77 -1023.83,605.26l340.9 0c235.21,-166.15 488.74,-304.26 760.6,-414.3 732.53,-297.78 1503.94,-542.69 2248.41,-778.98 473.63,-151.06 963.46,-306.4 1440.34,-474.74 1029.27,-362.49 2110.31,-433.74 3030.56,-455.31 992.55,-23.71 2006.74,119.77 2988.53,258.91l151.06 21.57c621.45,87.37 1276.33,247.05 2004.6,485.48 796.21,262.16 1525.52,692.65 2278.58,1357.23l307.5 0c-835.09,-771.4 -1636.68,-1262.27 -2521.37,-1552.52 -739.03,-242.77 -1406.85,-404.6 -2040.17,-494.12l-151.04 -21.57c-918.13,-129.47 -1863.26,-264.34 -2799.72,-264.34l0 1.22z"/>
    <path class="fil0" d="M68015.23 55882.08l219 0c111.14,-302.12 219,-604.16 324.71,-901.94l135.97 -379.77c345.25,-964.51 1251.51,-1439.25 2252.74,-1181.37 1304.38,335.52 2315.33,1095.09 3215.11,1865.38 127.28,108.96 253.53,220.12 380.89,331.19 101.44,88.49 202.81,178.01 305.35,267.59l317.19 0c-165.05,-139.2 -326.92,-280.54 -486.58,-421.8 -127.28,-111.16 -254.62,-223.34 -381.9,-332.3 -918.13,-786.5 -1951.75,-1561.16 -3297.06,-1907.51 -194.2,-49.61 -385.15,-74.42 -571.83,-74.42 -864.16,0 -1614,518.91 -1924.73,1385.28l-135.96 379.77c-114.39,320.45 -230.86,646.27 -350.63,970.98l-2.26 -1.09z"/>
    <path class="fil0" d="M1980.77 6.42l-265.4 0c-418.58,527.6 -726.07,1076.76 -932.17,1662.59l-129.49 371.16c-189.86,544.81 -386.25,1106.94 -612.83,1644.25 -11.86,28.05 -23.71,54.99 -35.62,80.9l0 461.79c79.87,-142.44 154.29,-296.68 224.38,-462.82 229.83,-542.69 427.25,-1109.09 618.21,-1657.14l129.49 -370.06c214.72,-610.64 545.92,-1182.47 1003.36,-1730.53l0.07 -0.14z"/>
    <path class="fil0" d="M37066.2 55882.08l496.31 0c1947.39,-868.51 3688.74,-1355.11 5603.75,-1063.81 156.44,23.71 312.87,46.38 469.31,69.06 593.4,85.25 1206.17,173.72 1786.62,331.19 524.36,141.34 1026.03,367.92 1495.34,663.49l368.96 0c-559.92,-391.63 -1169.51,-688.3 -1811.43,-862.02 -592.31,-160.77 -1211.61,-250.29 -1811.45,-336.64 -156.42,-22.67 -311.81,-45.33 -468.25,-69.06 -389.49,-59.33 -771.4,-87.37 -1150.08,-87.37 -1657.14,0 -3231.25,540.54 -4981.21,1353.99l2.14 1.17z"/>
    <path class="fil0" d="M90327.72 28526.84l-4.34 0c-79.87,1.1 -152.1,19.43 -216.86,58.23 -147.82,88.49 -230.86,269.72 -233.07,511.4 -3.24,327.97 -11.86,657.03 -20.47,986.13 -23.71,911.65 -47.49,1853.55 38.86,2773.8 172.61,1857.81 584.78,3577.6 1225.6,5113.92 470.41,1126.38 1420.92,1760.72 2748.99,1834.12 320.45,17.23 643.03,23.71 964.51,23.71 322.57,0 643.03,-5.38 959.12,-11.86l0 -206.05c-628.96,11.86 -1278.46,23.71 -1912.87,-11.85 -1261.24,-70.16 -2126.5,-644.13 -2569.89,-1707.87 -632.2,-1515.86 -1038.98,-3216.14 -1210.51,-5053.49 -84.14,-907.37 -60.43,-1843.83 -37.76,-2750.1 8.62,-330.16 16.19,-659.22 20.47,-988.27 1.1,-166.15 49.62,-285.92 133.77,-336.64 83.11,-49.61 207.15,-35.62 349.59,38.86 269.72,140.25 528.62,317.21 770.29,526.5 356.01,308.59 707.74,624.7 1059.47,939.7 508.17,456.34 1032.52,927.84 1567.62,1371.28 614.97,510.29 1220.24,900.89 1830.88,1177.09l0 -226.58c-565.36,-266.48 -1127.42,-634.4 -1699.25,-1109.07 -530.83,-441.25 -1055.12,-911.65 -1561.16,-1365.85 -351.71,-316.11 -704.5,-632.21 -1061.59,-941.91 -253.53,-220.1 -525.4,-405.68 -809.17,-553.43 -116.52,-60.43 -228.72,-90.63 -330.16,-90.63l-2.07 -1.15z"/>
    <path class="fil0" d="M40050.45 55882.08l853.42 0c729.31,-140.25 1461.91,-169.39 2217.11,-90.63 226.58,23.71 441.25,53.95 647.37,90.63l885.8 0c-453.12,-139.22 -951.61,-236.31 -1511.53,-294.54 -282.67,-30.19 -562.12,-44.24 -839.37,-44.24 -761.69,0 -1507.19,112.2 -2253.77,338.78l0.97 0z"/>
    <path class="fil0" d="M4.21 48097.91l0 354.97c428.3,613.89 803.79,1266.62 1024.95,1997.03 166.15,550.26 329.06,1101.56 491.96,1651.76 332.3,1127.4 676.44,2293.69 1048.71,3430.87 38.86,117.58 77.66,234.1 117.58,348.49l217.89 0c-47.47,-135.96 -93.85,-272.95 -139.2,-413.2 -370.06,-1133.89 -714.2,-2299.12 -1046.5,-3425.5 -162.91,-551.3 -325.83,-1103.69 -491.98,-1653.95 -257.86,-853.42 -715.31,-1595.67 -1221.27,-2292.65l-2.14 2.19z"/>
    <path class="fil0" d="M322.52 42208.24l4.33 0c750.95,0 1261.24,-389.49 1483.49,-1140.37 612.83,-2072.55 561,-3853.79 -156.44,-5444.08 -399.2,-884.7 -951.61,-1532 -1650.73,-1938.78l0 242.77c613.89,388.39 1103.71,982.89 1462.96,1780.15 696.98,1543.91 744.45,3277.68 145.66,5300.61 -225.48,761.69 -766.02,1086.47 -1606.49,968.84l-3.24 0 0 207.15c110.06,14.05 216.88,21.57 318.25,22.67l2.21 1.04z"/>
    <path class="fil0" d="M93694.93 55882.08l206.05 0c16.19,-1483.49 675.41,-2772.77 1357.23,-3971.37 164.01,-288.05 345.25,-570.74 531.86,-849.07l0 -363.59c-250.29,360.35 -494.1,730.41 -710.96,1111.28 -696.98,1224.51 -1369.09,2541.84 -1385.28,4072.8l1.1 -0.05z"/>
    <path class="fil0" d="M972.01 55882.08l216.88 0c-343.11,-1026.05 -714.22,-2024.03 -1184.61,-2968.01l0 474.74c371.16,799.45 679.68,1635.57 967.74,2493.32l0 -0.05z"/>
    <path class="fil0" d="M95498.84 37752.43l17.23 0c91.73,0 183.44,-3.24 275.1,-9.72l0 -206.05c-257.86,20.47 -518.91,8.62 -774.64,-11.85 -1373.44,-110.06 -2207.4,-992.55 -2176.13,-2304.51 6.48,-265.38 75.52,-461.77 206.05,-582.59 119.77,-111.14 298.88,-160.77 523.26,-147.8 441.25,24.81 802.69,88.47 1104.8,193.1 374.4,130.51 748.74,277.29 1116.66,427.25l0 -222.26c-345.25,-139.2 -696.98,-276.19 -1048.71,-399.2 -320.43,-112.2 -700.22,-179.1 -1160.9,-205.01 -26.93,-2.14 -53.95,-2.14 -79.85,-2.14 -247.07,0 -446.7,67.95 -594.45,203.91 -173.72,159.67 -264.34,405.68 -272.97,729.31 -33.42,1410.09 895.46,2397.26 2365.98,2513.79 165.05,12.97 332.3,22.67 499.55,22.67l-0.98 1.1z"/>
    <path class="fil0" d="M84168.32 8080.83l-4.33 0c-91.73,0 -176.98,17.24 -257.88,48.59 -185.58,74.42 -431.53,275.09 -545.92,808.07 -135.97,630.06 -229.83,1150.08 -296.68,1636.66 -49.62,364.7 -88.49,736.89 -126.25,1096.12 -50.71,482.26 -103.58,980.7 -181.24,1466.2 -170.49,1058.36 280.54,1950.63 1120.94,2220.35 1232.08,394.87 2500.84,740.12 3727.54,1074.55 452.06,123.01 904.13,246.02 1355.09,371.16 44.24,11.85 88.49,16.19 132.73,16.19 35.62,0 69.06,-2.14 101.44,-4.34 38.86,-3.22 76.63,1.1 113.28,-7.57 14.05,3.24 28.05,4.34 42.11,1.1 1739.15,-309.62 2401.61,-1665.82 2931.33,-3028.44 244.91,-631.16 30.19,-1159.78 -591.19,-1450.04 -477.98,-223.34 -999.03,-380.89 -1444.63,-504.93 -1138.21,-316.09 -2176.11,-890.08 -3171.9,-1754.31 -677.54,-587.95 -1411.2,-1204.03 -2185.83,-1727.29 -258.91,-174.77 -502.79,-264.34 -719.58,-264.34l0.97 2.26zm5010.35 8528.62c-62.57,4.34 -119.77,8.62 -165.05,-4.34 -450.96,-126.23 -903.03,-249.24 -1356.12,-372.2 -1225.62,-333.38 -2492.22,-678.65 -3720.04,-1072.42 -854.45,-272.95 -1108.04,-1197.56 -980.69,-1991.63 78.76,-490.86 132.72,-992.55 183.44,-1477.01 37.76,-358.2 76.63,-728.26 126.23,-1089.64 65.81,-480.12 158.58,-995.79 293.43,-1620.49 75.54,-351.71 221.15,-580.44 421.82,-660.25 206.05,-83.09 479.01,-15.09 789.74,194.2 766.03,517.88 1494.24,1128.51 2166.4,1712.2 1019.55,884.7 2083.36,1472.67 3251.77,1797.45 438.01,121.9 948.37,275.1 1412.3,491.96 525.38,246.02 693.74,657.01 486.58,1188.94 -509.26,1308.72 -1142.56,2610.9 -2775.99,2901.16 -2.14,0 -4.34,1.09 -6.48,1.09 -14.05,-3.22 -29.14,-4.33 -43.14,-4.33 -28.05,0 -56.09,4.33 -84.14,6.48l-0.07 -1.17z"/>
    <path class="fil0" d="M15232.72 25898.65l21.57 0c146.72,0 293.43,-1.1 439.12,-2.14 179.1,-1.1 358.2,-3.24 538.35,-2.14l0 0c8.6,0 17.23,-1.1 24.8,-3.24 14.07,3.24 30.19,4.34 46.38,1.1 72.3,-15.09 145.68,-30.17 219.01,-44.24 157.53,-31.28 319.33,-62.57 477.96,-107.9 1401.47,-394.87 2288.32,-1396.09 2566.65,-2896.81 112.2,-610.63 -180.2,-1207.27 -803.79,-1635.57 -788.64,-542.69 -1687.39,-777.88 -2463.08,-936.46 -1328.07,-271.86 -2684.28,-772.5 -4268.09,-1576.23 -653.77,-331.19 -1394.99,-707.74 -2249.51,-707.74l-17.23 0c-934.32,5.38 -1543.91,457.44 -1715.44,1269.84 -330.16,1565.48 -99.23,2833.14 702.36,3877.52 954.79,1242.89 2294.79,2030.43 4344.67,2555.89 704.5,181.24 1426.28,208.24 2135.11,208.24l1.17 -0.12zm458.53 -208.19c-840.45,6.48 -1711.1,14.05 -2542.93,-198.53 -2002.39,-513.53 -3307.87,-1278.46 -4233.57,-2482.51 -763.83,-993.65 -980.7,-2206.3 -664.6,-3709.21 192.06,-908.41 929.98,-1103.71 1515.86,-1106.95 803.79,-9.71 1534.2,361.45 2171.78,685.13 1601.05,812.42 2973.44,1318.43 4319.86,1594.57 755.22,154.29 1630.19,383.01 2387.61,905.16 553.45,380.89 814.55,901.94 717.46,1429.53 -266.48,1438.13 -1081.04,2358.47 -2419.94,2736.04 -151.06,42.09 -308.59,73.38 -461.79,103.58 -74.42,14.05 -147.8,29.14 -222.24,45.33 -1.1,0 -2.14,0 -3.24,1.1 -7.57,-2.14 -16.19,-3.24 -24.81,-3.24 -177.99,0 -360.33,1.1 -540.54,2.14l1.09 -2.14z"/>
    <path class="fil0" d="M48329.8 6.42l-268.62 0c-165.05,196.34 -336.63,399.22 -514.64,587.97 -1141.47,1208.37 -2532.12,2146.97 -3876.46,3053.24 -424.01,285.92 -792.98,590.18 -1099.37,901.94 -807.04,824.26 -913.84,1856.78 -964.5,3023.04 -43.14,996.89 -281.59,1870.78 -730.41,2671.33 -949.41,1696.01 -2468.51,2887.09 -4642.43,3639.07 -575.07,198.53 -1185.72,333.4 -1776.91,463.91 -276.21,60.43 -551.31,120.82 -825.36,188.82l0 0c-2.14,-1.1 -5.38,-1.1 -8.62,-2.14 -159.67,-25.92 -321.47,-45.35 -483.34,-65.81 -345.26,-42.11 -701.27,-86.28 -1028.19,-190.96 -409.96,-130.51 -818.88,-293.42 -1214.86,-450.96 -457.43,-182.34 -931.06,-370.06 -1411.18,-511.4 -1247.19,-367.92 -2534.32,-679.68 -3777.16,-980.7l-271.86 -65.8c-1131.75,-275.1 -2419.94,-703.46 -3401.74,-1798.48 -716.41,-798.36 -1031.41,-1629.11 -963.46,-2540.81 34.54,-469.31 323.68,-973.18 877.13,-973.18 3.24,0 6.48,0 8.62,0 586.92,5.38 1225.6,83.11 1951.73,236.31 1522.27,320.43 2788.96,115.42 3876.46,-625.73 1373.42,-936.46 2736.04,-1917.21 4050.13,-2916.24 986.13,-748.74 1682.01,-1579.48 2127.54,-2539.7 168.29,-363.58 320.43,-733.63 458.55,-1105.85l-219.01 0c-128.39,344.16 -269.72,685.13 -425.05,1019.57 -430.49,928.94 -1105.85,1733.77 -2064.98,2462.04 -1311.95,996.88 -2672.42,1975.44 -4041.51,2909.76 -1037.88,707.74 -2253.79,901.92 -3717.83,594.44 -740.12,-156.42 -1391.75,-235.21 -1992.67,-240.57 -600.92,-9.72 -1042.24,472.53 -1092.9,1163.03 -72.28,969.94 260.02,1851.4 1015.22,2692.9 1026.03,1143.61 2413.45,1595.67 3507.44,1861.05l271.86 65.81c1240.7,301 2524.62,611.73 3767.46,977.44 471.5,139.22 940.8,325.83 1393.9,506.03 399.2,158.56 811.31,322.57 1227.74,455.31 344.16,110.04 710.98,155.32 1064.85,198.53 159.67,19.43 318.25,38.86 475.77,64.71 5.38,1.1 10.81,1.1 16.19,1.1 8.62,0 16.19,-1.1 24.81,-3.24 15.09,3.24 31.3,4.34 49.62,0 271.86,-66.92 545.92,-127.28 819.92,-187.72 596.64,-131.63 1214.86,-267.59 1800.69,-470.39 2223.6,-769.27 3779.37,-1990.55 4754.68,-3732.94 463.93,-829.64 712.08,-1732.67 756.33,-2763.04 48.57,-1123.13 151.04,-2116.78 906.27,-2888.19 296.68,-303.14 654.87,-597.68 1067.04,-876.07 1353.99,-913.85 2753.32,-1857.81 3910.98,-3082.39 185.58,-195.29 361.45,-404.58 530.84,-606.35l103.56 -123.01 -2.26 4.33z"/>
    <path class="fil0" d="M55394.38 12860.33c696.98,-146.72 1305.48,-491.98 1893.44,-824.28 120.82,-69.04 242.77,-136.99 365.73,-205 657.01,-361.45 1381,-648.41 2093.02,-830.74 1189.98,-305.35 2449.08,-692.65 3587.31,-1453.3 1077.8,-720.69 2356.31,-1344.28 4023.18,-1961.39 1263.38,-468.25 2044.5,-1317.33 2387.61,-2595.79 482.26,-1799.58 537.31,-3258.25 172.63,-4591.77 -36.67,-133.77 -76.64,-264.36 -118.68,-391.65l-216.86 0c49.61,144.58 95.99,293.43 138.1,445.6 354.97,1296.79 299.92,2720.94 -173.72,4483.87 -327.97,1225.6 -1046.52,2005.63 -2260.27,2455.56 -1682.01,623.58 -2974.47,1253.65 -4066.32,1984.06 -1113.42,744.45 -2350.88,1124.16 -3523.63,1425.18 -728.27,186.62 -1468.39,480.1 -2140.5,849.07 -124.04,67.95 -246.02,136.99 -367.92,206.05 -600.92,339.87 -1169.51,661.35 -1835.21,802.69l-3.24 1.1c-6.47,-1.1 -12.95,-2.14 -18.33,-3.24 -171.53,-9.72 -344.14,-19.43 -515.74,-29.16 -387.28,-20.47 -773.53,-41 -1159.78,-72.28l-192.06 -15.09c-617.11,-49.62 -1254.76,-100.35 -1875.11,-184.49 -713.18,-97.09 -1355.11,-633.3 -1495.34,-1247.17 -176.96,-775.74 -71.19,-1571.97 331.19,-2507.32 440.22,-1020.6 1267.72,-1720.82 2068.21,-2398.37l194.2 -164.01c1218.1,-1037.88 1944.16,-2340.12 2547.27,-3591.63 128.39,-266.5 253.53,-535.12 378.68,-802.71 253.53,-544.81 511.4,-1098.31 799.45,-1636.66l-233.05 0c-269.72,511.4 -512.5,1034.65 -753.08,1549.29 -125.15,267.57 -249.24,535.1 -377.63,800.55 -593.4,1232.08 -1306.52,2510.55 -2495.46,3524.73l-193.1 164.01c-818.88,692.63 -1664.73,1410.09 -2124.36,2474.99 -420.79,977.46 -529.72,1813.64 -343.11,2634.66 157.53,693.74 874.97,1297.9 1667.96,1405.82 626.83,85.25 1266.62,136.99 1886.97,186.62l192.05 15.09c388.39,31.3 776.79,51.76 1165.18,73.4 171.53,9.71 343.11,18.33 514.64,28.04 11.85,1.1 21.57,0 31.28,-3.24 7.59,2.14 16.21,3.24 24.81,3.24 7.59,0 14.05,-1.1 21.57,-2.14l-1.95 -2.19z"/>
    <path class="fil0" d="M35058.43 12367.27c169.39,-35.64 340.92,-67.95 512.5,-99.25 372.2,-67.95 757.34,-139.2 1124.18,-257.86 1603.24,-523.26 3301.39,-2149.18 3240.96,-4484.97 -16.19,-621.45 18.33,-1296.79 99.23,-2007.82 76.63,-667.84 448.82,-1240.7 1138.23,-1751.06 413.2,-306.4 843.69,-606.37 1260.14,-897.66 612.83,-427.25 1245.05,-869.59 1840.59,-1342.14 563.16,-446.68 1003.36,-954.79 1317.33,-1520.14l-237.34 0c-297.76,501.69 -700.22,955.89 -1207.27,1359.37 -590.16,468.25 -1220.24,908.41 -1829.78,1334.57 -417.53,291.3 -849.07,592.3 -1264.46,900.89 -736.89,547.02 -1136.09,1166.27 -1220.24,1893.44 -83.11,720.69 -116.52,1406.85 -101.44,2036.93 58.23,2230.08 -1565.48,3783.65 -3098.58,4284.28 -352.77,115.44 -731.5,184.48 -1097.23,251.4 -173.72,31.28 -346.35,63.68 -517.88,100.33 -1.09,0 -2.14,0 -3.22,1.1 -3.24,-1.1 -6.48,-1.1 -9.72,-2.14 -139.2,-20.47 -279.43,-38.86 -419.68,-57.19 -299.9,-38.86 -608.49,-78.78 -905.16,-144.58 -1390.66,-308.59 -2774.89,-838.33 -4114.89,-1575.21 -646.27,-354.97 -722.84,-640.89 -354.97,-1330.28 842.59,-1580.59 1943.06,-2745.75 3361.83,-3564.65l469.29 -270.81c625.73,-359.25 1273.1,-731.51 1899.92,-1116.66 798.36,-490.88 1247.19,-1180.34 1333.54,-2047.74 19.43,-192.06 39.9,-384.11 61.47,-576.11 52.85,-483.36 108.96,-981.81 125.15,-1477.01l-206.05 0c-16.21,485.5 -71.19,977.46 -124.06,1454.34 -21.57,193.1 -43.14,385.15 -61.47,578.31 -78.76,800.55 -495.21,1437.09 -1236.43,1892.33 -623.59,383.03 -1269.84,754.12 -1894.54,1113.42l-470.39 270.83c-1433.85,826.4 -2591.52,2053.12 -3440.59,3646.64 -421.82,789.74 -310.73,1195.42 436.96,1606.49 1356.14,745.5 2758.72,1282.81 4168.81,1595.67 305.35,67.95 619.25,107.92 923.49,147.82 139.2,18.33 277.31,35.62 416.44,56.09 12.95,2.14 25.92,1.1 39.9,-2.14 7.59,2.14 16.19,3.24 24.81,3.24 7.57,0 14.05,-1.1 21.57,-2.14l-0.92 0.07z"/>
    <path class="fil0" d="M46493.56 21627.38l-8.62 0c-459.58,0 -915.97,65.81 -1363.71,197.43 -1165.16,342.02 -1893.44,1615.11 -1840.57,2589.33 6.47,118.66 8.6,240.57 10.81,361.44 8.62,404.6 17.23,823.18 160.77,1192.2 400.25,1029.27 1261.24,1584.91 2632.47,1700.34 69.04,5.38 136.99,7.59 206.05,7.59 59.33,0 117.56,-1.1 175.86,-2.16 21.57,0 42.11,0 63.68,1.1 45.35,1.1 89.52,3.24 131.63,-6.47 15.09,3.22 31.28,4.33 47.47,0 912.75,-211.5 1540.69,-554.55 2035.89,-1111.28 801.59,-900.9 1194.32,-2533.24 344.14,-3783.65 -429.39,-631.16 -1118.8,-1005.51 -2047.74,-1113.42 -182.34,-21.57 -364.68,-31.3 -547.02,-32.4l-1.1 -0.05zm-32.38 5839.99c-124.04,3.24 -242.77,5.38 -359.25,-4.33 -1284.95,-107.92 -2088.74,-621.45 -2457.7,-1569.78 -130.53,-334.44 -139.2,-734.74 -146.72,-1122.02 -2.14,-124.04 -5.38,-247.05 -11.85,-367.92 -46.38,-878.23 637.63,-2071.45 1693.85,-2381.14 602.02,-175.86 1220.24,-228.72 1838.45,-157.53 879.32,101.44 1500.72,436.98 1901.02,1024.93 762.79,1122.04 432.63,2676.71 -327.95,3532.25 -465.03,523.26 -1059.47,845.83 -1927.97,1047.62l-1.1 0c-21.57,-5.38 -45.33,-7.59 -69.04,-7.59 -43.14,0 -88.49,5.38 -130.53,6.48l-1.22 -0.98z"/>
    <path class="fil0" d="M35209.42 9602.08c15.09,4.33 32.38,4.33 48.57,0 388.4,-91.73 828.61,-223.36 1147.96,-624.7 236.29,-296.68 321.47,-664.6 236.29,-1009.84 -82.01,-327.95 -305.35,-585.83 -627.92,-727.17 -206.05,-89.52 -434.77,-131.63 -665.7,-131.63 -600.92,0 -1220.24,285.92 -1525.52,763.84 -172.63,268.62 -223.34,529.72 -151.06,775.74 87.39,297.76 350.63,548.05 782.22,745.5 156.44,71.18 324.73,112.18 486.6,152.1 72.28,17.23 144.56,35.62 215.76,56.09 9.72,2.14 19.43,4.34 28.05,4.34 8.6,0 16.19,-1.1 24.81,-3.24l-0.07 -1.04zm721.79 -2172.89c263.24,114.39 444.5,323.68 510.29,587.95 70.16,282.69 -2.14,585.83 -197.43,832.88 -251.4,316.11 -581.56,445.6 -1033.55,552.4l-1.1 0c-72.28,-20.47 -146.72,-38.86 -220.1,-57.19 -160.77,-38.86 -311.83,-75.52 -449.93,-139.2 -374.4,-171.53 -599.88,-378.68 -669.98,-616.07 -54.99,-185.58 -11.85,-389.49 127.28,-606.35 265.38,-414.3 823.16,-667.84 1357.23,-667.84 201.77,0 400.25,36.66 578.31,113.3l-1.04 0.12z"/>
    <path class="fil0" d="M55015.69 9509.25l35.62 0c92.77,0 184.49,-1.1 277.31,-2.14 97.09,-1.1 194.19,-2.14 291.3,-2.14 8.6,0 17.23,-1.1 24.81,-3.24 17.23,4.34 36.66,4.34 54.99,-1.09 1242.91,-384.13 2697.23,-785.47 4207.66,-685.13 1163.04,76.63 2312.08,-199.58 3515.03,-844.8 569.62,-306.38 1160.9,-595.54 1732.67,-876.07 565.36,-277.31 1150.09,-563.16 1714.34,-866.37 1168.42,-625.73 1684.16,-2370.31 1432.77,-3608.88 -117.58,-580.45 -239.53,-1180.34 -454.2,-1739.15 -121.9,-317.21 -276.21,-607.4 -468.25,-874.99l-257.88 0c224.38,285.92 400.25,599.88 534.07,948.37 208.25,542.69 327.95,1133.89 444.5,1707.85 231.96,1140.37 -256.78,2811.57 -1328.09,3385.53 -562.12,301.02 -1144.71,586.94 -1707.85,863.14 -573.99,281.57 -1166.28,571.83 -1739.15,879.32 -1041.14,558.88 -2040.17,832.88 -3040.29,832.88 -120.82,0 -241.67,-4.34 -362.49,-11.86 -1543.91,-102.47 -3016.58,303.14 -4276.71,691.55 -7.57,-2.14 -16.19,-3.24 -24.8,-3.24 -98.21,0 -195.31,1.1 -293.43,2.14 -213.63,2.14 -427.27,4.34 -640.89,-3.24 -318.25,-10.81 -583.69,-140.23 -730.41,-353.87 -149.96,-220.1 -169.39,-509.26 -54.99,-836.11 102.47,-292.4 298.86,-572.88 473.63,-813.52 935.41,-1278.46 1677.66,-2793.24 2335.79,-4766.54 326.92,-980.7 746.58,-1815.78 1268.74,-2521.37l-254.62 0c-493.07,695.89 -893.32,1510.43 -1209.43,2456.66 -651.63,1952.78 -1385.28,3449.21 -2306.64,4710.45 -184.48,252.43 -390.54,548.05 -501.69,866.37 -134.85,385.15 -106.82,747.69 79.87,1020.59 184.48,268.64 509.26,430.49 893.32,443.46 112.18,4.33 225.48,5.38 337.66,5.38l-2.26 0.05z"/>
    <path class="fil0" d="M63870.13 6.42l-502.77 0c1074.55,413.22 2015.34,1246.15 2460.94,2286.19 454.2,1060.55 187.72,2127.54 -694.79,2784.62 -798.35,594.44 -1738.11,1007.7 -2874.14,1265.52 -1.1,0 -1.1,0 -2.14,0 -7.57,-2.14 -16.19,-3.24 -24.81,-3.24l-185.58 1.1c-134.85,1.09 -269.71,2.14 -403.48,-2.14 -909.51,-24.81 -1680.92,-406.73 -2231.11,-1103.71 -873.89,-1108.04 -973.18,-2363.85 -294.54,-3731.88 351.73,-709.94 835.07,-1210.51 1440.34,-1496.44l-414.3 0c-497.34,319.35 -905.16,791.88 -1209.41,1405.82 -717.46,1445.72 -610.64,2773.8 317.19,3949.8 589.07,747.7 1414.44,1156.56 2387.61,1182.47 75.54,2.14 151.06,2.14 226.58,2.14 61.49,0 123.01,0 183.44,-1.1l184.48 -1.1c8.62,0 17.24,-1.1 24.81,-3.24 14.05,3.24 30.19,4.34 47.49,0 1164.13,-263.24 2129.74,-689.39 2950.76,-1301.14 963.46,-717.44 1254.76,-1878.35 760.59,-3030.56 -405.68,-948.37 -1205.13,-1731.63 -2146.97,-2205.27l-0.19 2.19z"/>
    <path class="fil0" d="M31410.68 31121.6c157.53,-41 316.11,-78.76 473.63,-116.52 350.63,-84.14 713.17,-170.49 1061.61,-286.97 436.96,-145.66 727.15,-503.81 777.88,-958.01 54.99,-500.59 -183.44,-989.32 -607.4,-1245.05 -101.44,-60.43 -200.67,-126.25 -301,-190.96 -223.34,-144.58 -453.1,-294.54 -702.36,-400.25 -905.16,-381.9 -1460.8,-1090.74 -1652.87,-2105.97 -293.43,-1554.66 -931.08,-3005.75 -1947.4,-4435.28 -469.29,-660.25 -921.35,-1350.76 -1358.33,-2018.58 -140.23,-213.63 -279.43,-427.27 -420.77,-640.89 -969.94,-1468.39 -2496.56,-1956.01 -3717.83,-2216.03 -1623.73,-346.35 -3499.94,-854.45 -5094.51,-2005.63 -886.83,-640.89 -1394.99,-1577.33 -1838.43,-2481.46 -592.31,-1206.18 -1210.53,-2361.71 -2257.03,-3233.46 -474.74,-395.96 -996.89,-745.5 -1635.57,-745.5 -167.25,0 -343.11,23.71 -526.5,77.68 -635.44,184.48 -974.22,676.44 -1197.56,1085.36 -54.99,100.33 -108.94,201.77 -164.01,302.11 -165.05,307.49 -336.63,626.83 -527.59,923.51 -391.63,609.59 -1069.17,871.73 -1812.53,702.36l-352.77 -82.01c-596.64,-139.2 -1212.67,-282.69 -1829.78,-356.01 -1020.59,-123.01 -1835.21,356.01 -2418.88,1424.15 -479.01,877.11 -731.51,1772.63 -751.98,2661.61 -3.24,149.96 -7.57,301 -11.85,452.06 -19.43,698.01 -39.92,1419.8 25.9,2124.36 66.92,716.41 367.92,1446.8 895.46,2170.73 771.41,1058.36 1340,2308.84 1740.25,3823.61 381.9,1447.85 1299,2426.42 2886.05,3079.15 1016.31,418.58 2369.21,931.08 3823.6,1184.61 522.16,91.71 1046.52,175.86 1569.76,260 579.35,92.77 1157.66,186.62 1734.87,289.16 848.04,151.04 1686.3,325.81 2464.18,491.96 1297.9,276.21 2645.42,119.77 4004.85,-468.25 2314.22,-1001.22 4965.07,-498.45 6752.74,1279.57l165.05 165.05c542.69,544.83 1103.69,1109.07 1906.4,1336.76 170.48,48.59 347.39,79.87 517.86,110.06 76.64,14.05 153.2,26.95 229.83,42.11 15.09,3.22 30.19,2.14 45.35,-1.1 7.57,2.14 16.19,3.24 24.81,3.24 8.6,0 17.23,-1.1 25.9,-3.24l0.98 1.95zm-17717.55 -22176.59c1016.33,845.83 1622.69,1980.82 2204.18,3166.52 455.29,927.84 977.44,1889.16 1903.14,2558.03 1625.87,1173.85 3526.89,1689.54 5172.17,2040.17 1183.58,251.38 2660.5,721.79 3588.41,2127.54 140.23,212.53 280.54,426.15 419.68,639.78 438.01,669.96 891.18,1362.61 1362.61,2025.07 999.03,1403.61 1624.81,2827.76 1912.87,4353.34 205.01,1086.47 802.69,1845.95 1774.77,2257.01 233.07,98.21 455.31,243.83 671.08,383.03 101.44,65.81 202.81,132.72 306.38,194.19 349.59,210.39 554.54,631.18 509.26,1045.48 -41,377.63 -274.05,664.58 -638.68,785.45 -339.87,113.3 -698.01,199.58 -1043.28,281.59 -159.67,37.76 -318.23,76.63 -476.86,116.52 -1.1,0 -3.24,-1.1 -4.34,-1.1 -77.66,-15.09 -155.34,-29.14 -234.1,-43.14 -165.05,-29.14 -336.63,-60.43 -497.34,-105.71 -750.93,-212.53 -1268.76,-732.53 -1816.88,-1283.9l-165.05 -166.15c-1848.16,-1837.35 -4587.44,-2356.33 -6979.32,-1322.71 -1318.43,569.62 -2623.85,722.82 -3879.7,455.31 -780.02,-166.15 -1620.47,-340.92 -2471.75,-493.07 -578.31,-102.49 -1158.7,-196.34 -1739.15,-289.16 -523.24,-84.14 -1045.47,-168.29 -1567.62,-258.91 -1434.89,-250.29 -2773.8,-757.34 -3780.41,-1172.75 -1522.27,-626.83 -2401.59,-1561.16 -2766.29,-2942.16 -406.72,-1540.67 -987.17,-2813.76 -1772.63,-3892.65 -504.91,-693.74 -794.07,-1389.61 -856.64,-2069.31 -64.71,-692.63 -44.24,-1407.94 -25.92,-2099.48 4.34,-151.06 8.62,-302.11 11.86,-453.1 19.43,-856.66 263.24,-1720.82 726.07,-2567.76 545.92,-1000.12 1269.84,-1432.75 2213.87,-1318.43 606.37,72.3 1216.99,214.74 1807.17,352.77l353.87 82.01c818.88,186.62 1597.8,-116.52 2030.45,-791.88 195.29,-303.14 367.92,-625.71 535.1,-936.44 53.95,-100.33 107.9,-200.69 162.91,-301.02 308.59,-563.16 630.06,-858.78 1074.55,-987.17 160.77,-46.38 315.06,-67.95 461.77,-67.95 582.59,0 1068.09,326.92 1511.53,695.89l2.26 4.28z"/>
    <path class="fil0" d="M14775.27 37941.25l28.05 0c71.18,0 143.48,-1.1 213.62,-2.14 75.52,-1.1 152.1,-2.14 227.62,-2.14 8.62,0 16.19,-1.1 24.81,-3.24 18.33,4.33 37.76,4.33 57.19,-2.14 141.34,-47.49 285.92,-84.14 431.55,-121.9 415.39,-107.92 843.69,-219.01 1183.56,-547.04 284.81,-275.1 389.49,-449.93 348.49,-584.78 -72.28,-229.83 -327.95,-433.74 -532.97,-507.07 -353.87,-128.39 -718.55,-193.1 -1104.8,-193.1 -469.31,0 -971,94.97 -1524.5,285.93 -391.63,134.85 -635.44,462.81 -651.63,877.11 -15.09,371.16 573.97,769.27 1023.84,794.09 91.71,5.36 184.48,7.57 277.29,7.57l-2.14 -1.15zm238.43 -208.25c-166.15,2.14 -337.66,5.38 -503.81,-4.34 -365.73,-20.47 -838.33,-351.73 -829.64,-581.54 12.95,-326.92 205.01,-584.8 513.53,-690.51 963.46,-331.19 1755.34,-361.44 2492.22,-93.85 176.96,63.66 362.49,236.29 405.68,372.2 0,3.24 4.34,90.61 -293.43,378.66 -301,291.3 -685.11,390.54 -1091.85,496.31 -146.72,37.76 -294.52,76.63 -436.96,124.04 -7.59,-2.14 -16.19,-3.22 -23.71,-3.22 -76.63,0 -154.3,1.09 -230.86,2.14l-1.17 0.12z"/>
    <path class="fil0" d="M42784.35 6.42l-240.59 0c-12.95,20.48 -25.9,41 -39.9,60.43 -515.74,763.84 -1254.76,1266.62 -2259.17,1536.34 -11.85,-3.24 -23.71,-3.24 -35.62,-2.14 -604.16,63.68 -1036.79,-131.63 -1332.42,-595.54 -178.01,-278.35 -289.16,-630.08 -334.44,-999.03l-203.91 0c46.38,408.92 168.29,801.59 364.68,1110.18 296.68,466.07 732.55,702.36 1295.76,702.36 75.52,0 152.1,-4.33 231.96,-12.95 4.33,0 9.71,-1.1 14.05,-2.14 16.19,3.24 33.42,4.34 51.76,-1.1 1056.23,-282.67 1834.1,-813.5 2378.93,-1620.47 39.9,-58.25 76.63,-117.58 110.04,-175.87l-1.15 -0.07z"/>
    <path class="fil0" d="M17389.46 1803.86c1060.57,-235.19 1020.6,-1124.16 881.45,-1797.45l-210.39 0c207.15,961.27 -7.57,1439.25 -716.41,1596.78 -1.09,0 -2.14,0 -2.14,1.1 -4.33,-1.1 -7.57,-2.14 -10.81,-2.14 -156.42,-20.47 -313.97,-37.76 -471.5,-55 -331.19,-35.62 -673.2,-72.28 -998,-147.8 -1287.14,-302.12 -2570.98,-760.6 -3896.93,-1392.87l-469.29 0c1474.86,735.79 2893.57,1259.03 4318.8,1592.43 336.64,78.76 685.13,116.52 1022.81,152.1 155.32,16.19 311.83,33.42 466.05,53.95 12.97,1.1 25.92,1.1 38.86,-2.14 7.59,2.14 16.21,3.24 24.81,3.24 7.59,0 15.1,-1.1 22.67,-2.14l0 -0.07z"/>
    <path class="fil0" d="M84034.56 38127.87c1103.69,-391.63 1525.52,-1155.46 1287.14,-2335.79 -132.72,-658.11 -315.07,-1182.47 -556.68,-1604.3 -301.02,-524.34 -658.11,-801.59 -1061.61,-826.4 -18.33,-1.09 -35.62,-2.14 -53.95,-2.14 -383.03,0 -782.22,241.69 -1101.57,669.98 -735.77,987.17 -782.22,2271.08 -117.56,3270.11 346.35,522.14 841.56,794.07 1514.76,832.87 10.83,1.1 21.57,0 30.19,-3.22 7.57,2.14 16.19,3.22 24.81,3.22 11.85,0 22.67,-2.14 34.52,-6.47l-0.05 2.14zm-343.13 -4560.44c330.16,19.43 631.18,263.26 895.46,723.93 230.86,402.46 405.68,906.28 534.07,1542.83 215.77,1074.55 -147.82,1741.34 -1145.8,2098.45 -5.38,-1.1 -11.86,-2.14 -18.33,-2.14 -603.13,-34.52 -1046.52,-277.29 -1355.11,-741.22 -747.69,-1124.18 -406.72,-2336.9 112.2,-3032.77 280.54,-376.54 618.21,-586.94 938.65,-586.94 12.97,0 25.92,0 38.86,1.1l0 -3.24z"/>
    <path class="fil0" d="M14592.93 40012.68l28.04 0c98.21,0 196.34,-2.14 293.43,-3.22 175.87,-2.14 351.73,-5.38 525.4,0 10.81,1.09 18.33,-1.1 28.05,-3.24 16.19,3.24 33.42,4.33 50.71,0 333.4,-87.39 667.84,-172.63 1002.27,-257.88 789.74,-201.77 1606.49,-409.96 2403.75,-638.68 846.92,-242.77 1464.05,-657.01 1885.92,-1266.62 337.68,-487.62 469.29,-1057.31 367.92,-1603.24 -98.2,-530.83 -403.49,-986.13 -883.59,-1314.09 -695.89,-475.77 -1448.96,-682.92 -2365.98,-846.94 -958.03,-171.53 -1929.06,-219 -2862.28,-219 -620.35,0 -1224.51,21.57 -1798.48,41 -548.07,19.43 -1357.23,114.39 -2100.59,459.57 -1072.42,497.36 -1352.97,1296.81 -885.8,2514.91 645.15,1679.8 1843.81,2741.47 3465.4,3067.29 277.29,56.09 563.16,67.95 845.83,69.06l0 1.09zm3299.25 -5730c891.18,158.58 1620.47,358.21 2286.17,813.52 433.74,296.66 709.94,705.58 797.31,1182.46 90.63,491.96 -28.04,1005.51 -334.44,1448.96 -393.77,568.59 -974.2,956.99 -1773.67,1185.72 -794.07,227.62 -1609.73,435.86 -2398.37,636.54 -334.44,85.23 -668.92,170.48 -1002.26,257.86 -6.48,-2.14 -14.05,-2.14 -21.57,-3.24 -176.96,-5.38 -356.01,-2.14 -534.07,0 -374.4,5.38 -762.79,10.83 -1123.14,-61.47 -1571.95,-316.11 -2686.42,-1305.48 -3314.34,-2939.95 -432.63,-1125.26 -199.58,-1799.57 780.02,-2254.87 712.08,-330.16 1492.1,-421.82 2021.82,-440.22 571.83,-20.47 1173.85,-41 1790.96,-41 924.61,0 1883.73,47.49 2827.77,215.77l-2.21 -0.07z"/>
    <path class="fil0" d="M15213.34 41488.59c228.72,-41 457.44,-77.66 686.17,-115.42 507.07,-83.11 1030.31,-168.29 1539.58,-289.16l213.62 -50.73c1083.24,-255.67 2204.16,-520.02 3222.63,-1081.04 1726.2,-950.49 2517.03,-2679.94 2061.74,-4511.9 -214.74,-863.13 -830.74,-1468.39 -1883.73,-1847.05 -1030.33,-371.16 -2181.51,-626.83 -3623.98,-804.85 -516.78,-63.66 -1041.12,-149.94 -1549.29,-233.05 -542.67,-88.49 -1104.8,-181.25 -1661.47,-247.05 -583.69,-69.06 -1125.28,-103.58 -1636.68,-103.58 -876.07,0 -1659.35,102.47 -2397.26,308.59 -948.37,265.38 -1662.58,723.93 -2125.4,1363.71 -558.88,772.5 -595.54,1659.33 -112.2,2713.42 477.98,1042.22 1253.67,1847.05 1948.51,2496.56 859.88,804.83 1919.35,1680.9 3249.63,2084.4 443.44,134.87 913.85,187.72 1369.09,238.43 206.05,22.67 411.06,46.38 614.97,76.64 14.05,2.14 26.95,1.09 39.9,-2.14 8.62,2.14 16.19,3.22 24.81,3.22 5.38,0 11.86,-1.09 17.23,-2.14l2.14 3.12zm-1017.41 -8974.2c551.3,64.71 1111.28,156.42 1651.76,244.91 509.26,83.11 1035.76,169.39 1556.81,234.1 1426.28,176.96 2564.51,429.39 3578.69,795.1 983.94,354.97 1556.81,911.65 1754.31,1703.6 431.53,1737.01 -320.43,3378.02 -1961.39,4282.08 -993.65,548.07 -2100.59,808.07 -3170.86,1060.57l-214.74 50.71c-501.67,118.68 -1021.69,203.91 -1524.48,285.92 -229.83,37.78 -459.58,74.44 -689.41,115.44 -2.14,0 -4.33,1.1 -6.47,1.1 -3.24,-1.1 -6.48,-1.1 -9.72,-2.14 -206.05,-31.3 -414.3,-53.97 -621.44,-77.68 -446.7,-50.71 -907.37,-102.47 -1333.54,-230.86 -1290.31,-391.63 -2326.07,-1249.38 -3168.66,-2038.01 -680.79,-636.54 -1440.35,-1423.04 -1902.06,-2432.89 -449.93,-980.7 -419.68,-1800.69 91.71,-2506.27 440.22,-609.61 1099.37,-1030.33 2014.31,-1286.05 719.6,-201.77 1484.58,-301.02 2342.28,-301.02 502.77,0 1036.79,34.54 1612.97,102.49l-0.07 -1.1z"/>
    <path class="fil0" d="M82501.46 29039.34l-4.34 0c-427.25,0 -872.83,374.4 -1056.23,914.89 -193.1,565.35 -377.63,1143.59 -556.68,1702.47 -160.77,501.69 -320.43,1004.46 -488.72,1503.94 -449.93,1338.92 -649.51,2730.66 -594.45,4134.27 45.35,1154.42 367.92,2200.94 958.03,3109.34 547.02,841.56 1433.85,1020.6 2145.93,1082.12 119.77,10.83 240.57,14.07 359.25,14.07 99.23,0 198.53,-2.14 295.62,-4.34 97.11,-2.14 194.2,-4.34 291.3,-4.34 8.62,0 17.24,-1.1 24.81,-3.24 16.19,4.34 34.52,4.34 52.87,-1.09l308.57 -87.39c243.83,-69.06 486.6,-138.11 729.31,-209.29 1236.43,-364.68 2452.32,-1962.49 2654.09,-3488.08 173.74,-1309.76 -161.8,-2535.36 -485.48,-3721.07 -82.01,-301 -165.05,-602.02 -239.53,-904.13 -221.15,-900.89 -600.92,-1683.04 -1128.52,-2323.93 -719.58,-872.85 -1714.34,-1412.3 -3130.9,-1698.15 -45.35,-8.62 -90.63,-14.05 -135.96,-14.05l1.04 -2.02zm1055.12 12249.69c-209.29,4.33 -425.06,9.71 -632.21,-8.62 -988.27,-85.25 -1602.14,-390.53 -1991.63,-989.31 -569.64,-877.13 -881.45,-1888.07 -925.7,-3004.73 -55,-1379.9 141.34,-2745.75 583.68,-4060.94 168.29,-500.59 329.07,-1003.36 489.84,-1506.15 177.99,-557.78 362.47,-1134.99 554.54,-1699.25 169.39,-495.21 598.78,-837.21 961.25,-764.93 1386.38,279.45 2315.33,781.14 3012.25,1626.97 515.72,625.73 871.73,1359.37 1088.61,2241.92 74.42,304.24 157.53,606.37 240.57,909.51 319.35,1166.28 648.41,2371.42 480.12,3640.17 -193.1,1454.32 -1342.14,2974.47 -2508.41,3317.58 -241.69,71.19 -484.46,140.23 -727.17,208.25l-305.35 86.28c-7.59,-2.14 -16.21,-3.24 -24.81,-3.24 -98.2,0 -197.44,2.14 -295.64,4.34l0.07 2.14z"/>
    <path class="fil0" d="M15707.45 42968.83c221.14,-41 442.34,-77.66 664.58,-114.39 482.26,-79.87 981.81,-162.91 1462.96,-290.19 1775.88,-469.31 3488.08,-986.13 4921.86,-2138.37 1167.39,-937.54 1845.97,-2232.2 2075.79,-3958.47 125.15,-942.92 -30.19,-1755.34 -473.63,-2483.6 -525.4,-862.04 -1371.3,-1375.57 -2585.05,-1573 -2691.85,-436.98 -5080.51,-882.56 -7304.1,-1363.71 -809.17,-174.77 -1615.09,-262.16 -2416.69,-262.16 -1338.9,0 -2661.61,243.83 -3955.23,730.41 -1778.01,668.94 -2548.32,2052.07 -2290.51,4110.57 253.53,2021.82 1611.87,3232.33 2766.29,4060.94 887.94,637.65 2068.21,1466.18 3317.58,2219.27 1020.6,614.97 2003.49,932.17 3002.53,969.94 164.01,6.47 332.3,33.42 496.31,59.33 78.76,12.95 156.42,24.81 234.1,35.62 12.95,1.1 25.9,1.1 38.86,-2.14 7.57,2.14 16.19,3.24 24.8,3.24 6.48,0 12.97,-1.1 19.43,-2.14l0.14 -1.17zm-1280.67 -11721.05c2226.84,482.26 4619.82,927.84 7314.86,1365.85 1150.08,186.62 1949.53,669.98 2441.49,1477.01 418.58,686.15 564.26,1454.32 445.6,2349.84 -222.26,1672.28 -877.13,2922.71 -2000.25,3825.74 -1402.58,1126.38 -3092.12,1636.68 -4845.32,2100.59 -472.53,125.15 -966.7,207.15 -1444.61,285.93 -223.34,36.66 -446.68,74.42 -668.92,115.42 -2.14,0 -4.34,1.1 -6.48,1.1 -4.33,-1.1 -7.57,-1.1 -10.81,-2.14 -76.63,-10.83 -152.1,-22.67 -229.83,-34.54 -169.39,-26.93 -344.14,-54.99 -521.1,-61.47 -963.48,-35.62 -1912.89,-344.14 -2903.3,-939.68 -1242.91,-748.74 -2417.8,-1574.1 -3303.53,-2209.54 -1120.94,-804.85 -2438.27,-1977.6 -2682.14,-3920.71 -248.15,-1979.79 457.44,-3252.89 2158.83,-3892.67 1269.84,-477.96 2568.84,-717.44 3882.93,-717.44 786.5,0 1578.45,85.25 2372.47,257.88l0.12 -1.17z"/>
    <path class="fil0" d="M71740.63 34157.54l-6.48 0c-931.08,0 -1743.48,469.31 -2419.92,1398.23 -680.79,935.42 -1091.86,2031.55 -1256.91,3351.02 -95.99,766.03 -158.56,1395.01 -196.32,1979.79 -72.3,1088.61 745.5,1971.11 1590.29,2281.84 737.98,270.81 1491,403.48 2288.31,403.48 121.9,0 246.02,-3.24 370.06,-9.71 6.48,0 14.05,-1.1 19.43,-3.24 14.05,3.24 29.14,4.34 43.14,1.1 1895.57,-352.77 2415.66,-1813.64 2695.02,-3340.26 230.86,-1263.38 162.92,-2573.14 -205,-3892.67 -334.44,-1205.13 -1197.56,-1944.15 -2496.56,-2137.25 -144.58,-21.57 -286.97,-32.38 -427.27,-33.43l2.21 1.1zm359.25 9199.7c-911.65,45.33 -1753.2,-78.78 -2577.46,-381.92 -754.12,-277.29 -1521.26,-1098.33 -1456.48,-2074.69 38.86,-580.45 100.33,-1206.17 195.29,-1967.87 160.79,-1283.9 558.88,-2348.74 1218.1,-3255.01 730.41,-1004.46 1625.87,-1435.99 2658.38,-1283.9 1211.61,180.2 2016.44,867.4 2328.21,1988.39 358.2,1289.29 426.15,2567.76 200.67,3800.94 -266.48,1454.34 -757.34,2846.09 -2529.98,3175.14 -2.14,0 -4.34,1.1 -6.48,1.1 -7.57,-2.14 -15.09,-3.24 -22.67,-3.24 -2.14,0 -4.33,0 -6.47,0l-1.1 1.05z"/>
    <path class="fil0" d="M10575.18 29530.2l-12.95 0c-261.1,0 -510.29,8.62 -753.08,24.81 -171.51,11.86 -343.11,21.57 -515.72,31.3 -1187.85,67.94 -2416.69,139.2 -3534.46,791.86 -944.03,551.31 -1469.43,1396.11 -1560.05,2511.67 -135.96,1655.01 216.88,3234.47 538.35,4425.62 399.22,1475.91 1260.14,2594.71 2558.03,3325.17 1500.72,844.8 3019.82,1716.54 4489.25,2559.13l1385.28 794.07c996.89,570.74 2084.4,859.9 3236.68,859.9 106.82,0 214.74,-2.14 323.68,-7.59 6.48,0 14.07,-1.1 20.48,-3.24 16.19,4.34 34.52,4.34 51.75,-1.1 225.48,-61.47 455.31,-116.52 684.03,-170.48 498.45,-118.66 1014.19,-241.67 1494.24,-440.22 1951.73,-809.16 3768.54,-1894.54 5398.74,-3225.87 521.12,-425.05 926.75,-1020.59 1255.81,-1547.14 269.72,-431.55 496.31,-895.46 715.31,-1344.28 127.28,-260.02 254.64,-520.02 389.49,-774.65 561.02,-1057.33 561.02,-2090.88 1.1,-3159.02 -587.97,-1118.78 -1313,-2220.35 -2628.19,-2704.75 -551.3,-202.81 -1028.17,-316.09 -1457.56,-346.35 -442.36,-31.28 -894.42,-34.52 -1331.33,-36.66 -632.2,-4.34 -1286.03,-7.59 -1913.97,-99.23 -781.12,-114.4 -1566.52,-309.64 -2325.03,-498.45 -498.45,-124.04 -1013.08,-251.4 -1524.48,-356.01 -1168.42,-239.53 -2128.64,-394.87 -3020.92,-489.83 -758.45,-80.92 -1391.75,-119.78 -1964.63,-119.78l0.19 1.1zm6145.36 15110.93c-1233.2,57.19 -2394.04,-221.14 -3449.21,-825.36l-1385.28 -794.07c-1469.43,-842.61 -2989.63,-1714.34 -4490.35,-2559.13 -1248.27,-702.36 -2076.88,-1779.12 -2460.94,-3199.95 -471.5,-1745.63 -635.44,-3087.77 -531.86,-4354.39 85.25,-1044.36 576.11,-1835.19 1458.67,-2350.88 1074.55,-627.92 2278.6,-698.01 3442.74,-764.93 172.61,-9.71 345.25,-19.43 517.86,-31.28 763.84,-51.76 1595.67,-22.67 2695.04,93.85 885.8,93.87 1839.48,249.26 3001.47,486.6 507.07,103.58 1019.57,230.86 1515.88,354.95 763.83,189.86 1553.62,386.27 2344.4,502.79 641.92,93.85 1303.28,98.2 1943.06,101.44 433.74,2.14 881.47,5.38 1318.43,36.66 409.98,29.16 868.51,138.1 1401.47,334.44 1180.34,434.77 1860.02,1356.14 2517.05,2606.62 527.59,1003.36 527.59,1974.34 0,2966.95 -135.97,256.76 -264.34,518.91 -392.73,780.02 -217.91,444.5 -442.36,904.13 -705.6,1325.95 -319.35,512.5 -714.22,1090.74 -1211.61,1497.48 -1615.11,1318.43 -3413.59,2392.99 -5346.99,3195.68 -463.93,192.05 -970.98,312.87 -1462.94,429.39 -230.86,54.99 -460.69,110.06 -688.3,171.53 -7.59,-2.14 -14.05,-3.24 -22.67,-3.24 -2.14,0 -4.34,0 -6.48,0l-1.09 -1.1z"/>
    <path class="fil0" d="M12930.41 22205.63l-12.95 0c-148.92,1.1 -301.02,16.19 -447.74,33.43 -193.08,22.66 -318.23,95.99 -372.2,215.76 -58.23,129.49 -22.67,295.64 104.68,480.12 307.49,447.72 778.98,736.88 1441.37,883.59 90.63,19.43 180.2,43.14 270.83,65.81l121.9 31.3c8.62,2.14 16.19,3.22 24.81,3.22 8.62,0 17.23,-1.09 24.81,-3.22 16.19,4.33 34.52,4.33 51.76,-1.1 52.85,-14.05 107.9,-25.92 162.91,-37.76 135.96,-29.16 276.19,-58.25 399.2,-129.49 115.44,-66.92 388.39,-246.02 425.06,-461.79 32.38,-186.62 -167.25,-466.05 -338.78,-538.35 -489.83,-205.01 -991.51,-374.39 -1492.1,-501.67 -116.52,-30.19 -238.43,-41 -362.47,-41l-1.1 1.15zm311.76 240.59c490.88,125.15 982.89,290.19 1462.94,491.96 101.44,42.11 227.64,241.67 215.77,313.95 -14.05,86.3 -145.68,214.74 -324.71,318.25 -94.97,55 -213.63,79.87 -339.88,106.82 -57.19,11.86 -115.42,24.81 -171.53,39.9l-120.8 -30.17c-92.77,-23.71 -184.48,-47.49 -277.29,-67.95 -617.11,-137.01 -1034.65,-391.63 -1316.24,-799.47 -80.9,-116.52 -113.28,-221.14 -87.37,-278.33 21.57,-48.59 95.99,-82.01 209.29,-96.01 147.8,-17.23 292.38,-32.38 431.53,-32.38 110.04,0 216.86,9.72 317.19,35.62l1.1 -2.19z"/>
    <path class="fil0" d="M73412.86 45633.68c18.33,4.34 38.86,4.34 58.25,-3.24 128.37,-45.33 264.34,-71.18 408.92,-98.2 329.06,-62.57 668.92,-126.25 915.97,-430.49 69.06,-85.25 142.44,-168.29 214.74,-252.43 244.91,-281.57 497.34,-573.97 625.71,-914.87 613.89,-1629.11 925.72,-3283.06 926.75,-4915.39 1.1,-870.64 48.57,-1756.44 93.85,-2613.1 33.43,-614.97 66.92,-1249.38 83.11,-1876.21 33.43,-1254.76 -606.35,-2131.87 -1754.31,-2409.18 -1303.28,-313.97 -2702.61,-605.26 -4117.03,-609.59l-14.05 0c-1054.09,0 -1827.64,448.82 -2239.8,1299 -949.41,1962.49 -2026.17,4186.09 -2586.09,6580.11 -239.53,1019.57 -315.06,1862.16 -240.57,2648.66 119.77,1246.13 853.4,2107.07 2183.7,2558.03 1278.46,432.63 2646.52,747.7 4068.46,936.46 306.38,41 619.25,59.33 922.46,76.63 138.11,8.62 277.31,16.19 416.44,25.92 3.24,0 5.38,0 8.62,0 8.62,0 16.19,-1.1 23.71,-3.24l1.15 1.15zm1527.72 -13313.48c1060.57,255.67 1626.95,1037.9 1596.78,2203.08 -16.19,622.49 -50.73,1256.89 -83.11,1869.73 -46.38,859.88 -93.87,1748.86 -93.87,2623.85 -1.09,1630.19 -299.9,3215.11 -913.84,4844.2 -115.44,307.49 -356.01,584.8 -589.07,852.32 -74.42,86.28 -148.91,171.53 -219,257.86 -199.58,246.02 -488.72,299.92 -795.12,358.21 -142.44,26.95 -290.19,54.99 -430.49,103.58 -5.38,-1.1 -10.81,-2.14 -16.19,-2.14 -139.2,-10.81 -279.43,-18.33 -419.68,-26.95 -298.86,-17.23 -607.39,-35.62 -907.35,-75.52 -1407.96,-186.62 -2764.1,-499.55 -4028.56,-927.84 -1263.38,-428.3 -1932.32,-1207.29 -2044.5,-2382.18 -73.4,-763.83 2.14,-1584.91 235.19,-2581.81 554.54,-2371.42 1625.87,-4584.2 2571,-6536.97 374.39,-773.55 1085.36,-1182.47 2055.31,-1182.47l12.95 0c1315.19,4.34 2578.57,244.91 4069.56,604.16l0 -1.1z"/>
    <path class="fil0" d="M75961.25 47512.03c6.47,0 11.85,-1.1 18.33,-2.14 17.23,4.34 36.66,4.34 54.99,-2.14 145.68,-45.33 294.54,-86.28 442.36,-126.25 333.38,-91.71 677.54,-186.62 996.88,-334.44 621.45,-286.95 853.42,-804.83 710.98,-1582.71 -197.43,-1073.52 -372.2,-2218.22 -167.25,-3370.45 63.68,-356.01 71.19,-722.82 78.78,-1078.88 5.36,-264.34 11.85,-537.31 39.9,-800.57 69.04,-627.92 84.14,-1267.7 99.23,-1886.95 22.67,-953.75 45.35,-1938.78 268.62,-2893.57 184.48,-790.85 282.67,-1684.15 299.92,-2731.77 18.33,-1131.75 -334.44,-1883.71 -1078.9,-2298.01 -432.63,-241.69 -935.42,-402.46 -1415.52,-454.2 -476.88,-50.73 -964.51,-61.49 -1434.91,-71.19 -404.58,-8.62 -822.12,-18.33 -1229.94,-51.76 -1475.91,-125.15 -3192.44,-363.58 -4741.73,-1178.13 -585.83,-308.59 -1120.94,-728.26 -1662.59,-1167.37l-284.81 -230.86c-736.88,-594.44 -1498.56,-1209.43 -2164.26,-1891.3 -589.07,-604.16 -1127.42,-1280.67 -1648.52,-1934.46 -175.87,-221.14 -351.73,-442.34 -530.83,-661.35 -663.49,-814.54 -1541.72,-1238.56 -2492.23,-1238.56 -480.1,0 -978.55,107.92 -1478.1,327.97 -431.53,190.94 -705.6,476.86 -791.88,829.64 -85.25,349.57 23.71,727.15 315.07,1092.88 428.29,535.1 947.27,1149.04 1547.15,1637.76 893.3,728.27 1650.71,1679.82 2383.26,2995.01l74.44 133.77c568.59,1022.79 1156.56,2080.12 2167.51,2821.27 393.77,289.16 731.5,667.84 1071.31,1064.85 480.1,561.02 626.82,1277.43 412.16,2017.55 -226.58,780.02 -521.12,1556.81 -805.93,2308.84 -88.49,233.05 -175.87,466.05 -263.26,699.12l-33.42 89.52c-470.39,1268.76 -956.99,2580.71 -1010.95,3989.75 -8.62,216.88 -25.92,433.74 -43.14,650.61 -23.71,289.16 -47.49,587.95 -48.57,883.59 -6.48,1425.18 591.19,2189.08 2000.25,2557 503.81,131.63 1024.93,223.34 1528.76,311.83 422.91,74.42 859.88,151.04 1281.71,251.38 627.92,147.82 1262.27,319.35 1875.11,485.5 549.16,148.92 1117.76,302.11 1680.9,439.12 1166.28,282.67 2251.65,422.91 3297.06,422.91 228.72,0 455.31,-6.47 680.79,-20.47l1.29 -2.33zm-11.86 -204.95c-1233.18,72.28 -2515.99,-57.19 -3917.47,-397.01 -559.92,-135.96 -1127.42,-289.16 -1675.54,-438.01 -614.97,-166.15 -1250.41,-338.76 -1881.59,-487.62 -428.29,-101.44 -867.4,-178.01 -1293.55,-253.53 -499.55,-88.49 -1017.43,-179.11 -1512.63,-308.59 -1318.43,-343.11 -1852.43,-1026.03 -1847.05,-2356.33 1.1,-288.05 24.81,-582.59 47.49,-867.4 18.33,-220.1 35.62,-439.12 44.23,-659.22 51.76,-1375.56 532.98,-2672.42 998,-3926.09l33.42 -89.51c86.28,-233.07 174.77,-465.03 262.16,-698.03 285.92,-755.21 582.59,-1536.33 811.31,-2323.93 234.09,-809.17 73.38,-1593.54 -454.2,-2208.51 -347.4,-405.68 -693.75,-795.12 -1104.81,-1096.12 -974.22,-714.22 -1525.52,-1705.72 -2109.21,-2755.48l-74.42 -133.75c-745.5,-1337.81 -1519.1,-2308.84 -2432.89,-3054.34 -584.8,-476.88 -1093.99,-1080 -1515.88,-1607.54 -250.29,-312.87 -346.35,-630.06 -276.19,-914.87 70.14,-288.05 304.24,-526.5 675.41,-690.51 1418.77,-625.73 2777.03,-315.06 3727.54,852.32 178.01,217.91 352.77,439.12 528.64,660.25 524.34,658.11 1065.93,1338.9 1662.58,1950.65 674.32,690.49 1441.37,1309.74 2182.59,1907.49l284.83 229.83c550.26,445.58 1093.99,872.83 1697.1,1188.94 1581.69,831.85 3324.06,1074.55 4820.51,1201.91 414.3,34.52 835.07,44.24 1242.89,52.85 467.17,9.72 949.41,20.47 1418.77,70.16 452.06,48.57 926.75,200.67 1336.78,429.39 680.79,379.77 990.41,1051.95 973.17,2114.64 -16.19,1032.52 -112.18,1912.89 -293.43,2688.63 -228.72,975.32 -251.38,1972.2 -274.05,2935.68 -15.1,613.87 -29.16,1249.38 -98.2,1868.62 -30.19,272.97 -35.64,550.26 -42.11,818.88 -7.59,347.4 -15.1,706.7 -75.52,1046.52 -211.5,1185.7 -33.43,2350.88 167.24,3443.83 127.28,690.49 -56.09,1109.07 -594.44,1358.33 -303.16,140.23 -639.78,233.05 -965.6,322.57 -148.92,41 -296.68,82.01 -442.36,127.28 -7.57,-2.14 -15.09,-3.24 -22.67,-3.24 -2.14,0 -5.38,0 -7.57,0l-3.24 0.87z"/>
    <path class="fil0" d="M45356.37 48795.94c111.16,-3.24 222.26,-3.24 334.44,-2.14l156.44 1.1c8.6,0 17.23,-1.1 24.81,-3.24 14.05,3.24 29.14,4.33 45.33,1.1 1156.56,-235.21 1936.59,-771.41 2382.18,-1637.78 647.35,-1258 728.27,-2545.08 234.1,-3724.32 -234.1,-559.92 -763.83,-1004.46 -1058.36,-1220.22 -552.4,-402.46 -1187.85,-757.36 -1888.07,-1054.09 -412.15,-173.74 -755.21,-265.4 -1058.36,-265.4 -571.83,0 -1000.12,324.73 -1479.13,1031.41 -592.3,873.89 -858.78,1885.93 -1117.76,2864.43l-21.57 80.9c-166.15,626.83 -242.77,1278.46 -302.11,1890.21 -52.85,549.16 194.2,960.22 776.79,1294.65 872.83,500.59 1781.24,746.6 2768.42,746.6 67.94,0 135.96,-1.1 205,-3.24l-2.14 0zm-6.47 -205.01c-1032.52,35.62 -1965.73,-200.67 -2864.43,-716.41 -510.29,-293.43 -718.55,-631.18 -674.3,-1096.12 58.23,-603.13 133.77,-1245.05 295.64,-1856.78l21.57 -80.9c253.52,-962.37 516.78,-1956.03 1088.61,-2801.86 677.54,-1000.12 1189.98,-1155.46 2287.27,-691.55 686.17,290.21 1307.6,636.56 1847.05,1030.33 277.31,202.81 775.76,619.25 990.41,1133.89 476.88,1137.13 400.25,2331.45 -226.58,3550.65 -415.39,807.04 -1149.04,1307.6 -2240.82,1529.86 -1.1,0 -2.14,0 -4.34,1.1 -7.57,-2.14 -16.19,-3.24 -24.81,-3.24l-154.29 -1.1c-52.87,0 -104.68,-1.1 -157.53,-1.1 -61.49,0 -124.04,1.1 -185.58,3.24l2.14 0z"/>
    <path class="fil0" d="M31719.27 40350.36l-7.59 0c-929.98,0 -1728.39,460.69 -2478.23,1419.8 -289.14,368.97 -510.29,686.17 -696.98,998 -471.5,785.47 -1207.27,1202.94 -1933.34,1537.43 -947.27,435.87 -1663.63,904.13 -2079.02,1773.69 -509.27,1065.93 -353.87,2233.3 418.58,3122.28 402.44,463.93 824.26,879.33 1475.89,879.33 28.05,0 56.09,-1.1 85.25,-2.14 6.48,0 12.95,-1.1 19.43,-3.24 15.09,4.33 31.28,4.33 47.49,0 716.41,-160.77 1081.02,-718.55 1343.23,-1243.94 309.62,-620.35 630.08,-1284.95 841.56,-1990.55 346.35,-1158.7 1112.33,-1892.33 2409.19,-2310.98 554.54,-179.1 1142.56,-455.31 1796.34,-844.8 769.26,-458.53 1103.69,-1108.04 941.89,-1827.62 -164.01,-731.51 -831.85,-1318.43 -1662.59,-1460.8 -179.1,-30.19 -352.77,-46.38 -522.14,-47.49l1.04 1.04zm487.62 249.26c736.89,127.28 1352.97,663.49 1496.44,1303.28 142.44,635.44 -149.96,1189.98 -846.94,1606.49 -639.78,381.92 -1213.75,651.63 -1754.31,826.4 -1368.06,441.25 -2176.13,1218.1 -2544.05,2447.99 -206.05,689.39 -522.16,1345.37 -828.59,1957.11 -252.43,506.02 -572.88,993.65 -1204.05,1134.99 -1.1,0 -1.1,0 -2.14,1.1 -9.72,-2.14 -19.43,-3.24 -30.19,-3.24 -616.07,34.52 -994.74,-345.26 -1394.99,-805.93 -716.41,-825.36 -860.94,-1908.54 -387.3,-2898.95 388.4,-813.5 1072.42,-1258 1979.79,-1675.54 719.6,-331.19 1522.29,-782.22 2022.93,-1618.33 182.34,-304.24 399.22,-614.97 681.89,-976.43 707.74,-906.27 1457.56,-1340 2325.03,-1340 157.53,0 320.45,14.05 486.6,43.14l-0.14 -2.07z"/>
    <path class="fil0" d="M85433.9 50473.62c7.57,0 15.09,-1.1 22.66,-3.24 16.21,4.33 35.64,4.33 52.87,-1.1 1238.56,-356.01 1692.77,-2121.12 1448.96,-3133.1 -102.47,-426.17 -219.01,-877.13 -404.6,-1297.9 -374.39,-849.07 -1147.94,-1026.05 -1725.15,-1026.05 -196.34,0 -370.06,20.48 -497.34,42.11 -836.12,139.2 -1555.78,525.4 -2138.37,1145.82 -620.35,661.35 -688.29,1220.22 -242.77,1992.67 449.93,780.02 1051.95,1428.42 1788.84,1924.73 455.29,306.38 921.35,358.21 1462.94,358.21 75.52,0 152.1,-1.1 229.83,-2.14l2.14 0zm932.11 -4352.25c179.1,405.7 292.38,846.94 392.73,1263.38 227.62,945.13 -219.01,2572.08 -1302.24,2886.05 -8.62,-2.14 -19.43,-3.24 -25.92,-3.24 -605.25,11.86 -1105.83,-4.33 -1574.1,-320.43 -710.96,-479.01 -1292.52,-1103.71 -1726.18,-1856.78 -400.25,-694.77 -344.16,-1153.32 214.72,-1748.86 551.31,-586.94 1231,-951.61 2021.82,-1083.24 138.11,-22.67 302.12,-41 479.01,-41 543.79,0 1198.67,171.53 1522.29,905.18l-2.14 -1.05z"/>
    <path class="fil0" d="M44480.36 36363.91l-8.62 0c-1261.24,0 -2247.3,767.07 -2658.37,2085.5 -349.59,1117.76 -650.61,2299.12 -893.32,3512.89 -468.25,2333.65 -1521.24,3865.64 -3311.12,4820.49 -804.83,429.39 -1446.8,935.42 -1962.49,1544.95 -342.01,404.6 -468.25,973.18 -322.57,1446.82 133.77,432.63 479.01,746.6 972.08,883.59 323.68,89.52 664.6,125.15 993.65,158.58 149.96,15.09 298.86,31.28 447.72,51.75 4.34,1.1 8.62,1.1 12.95,1.1 8.62,0 17.24,-1.1 25.92,-3.24 12.95,3.24 28.05,3.24 43.14,1.1l633.3 -116.52c502.79,-93.87 1023.84,-190.96 1537.45,-275.1l258.9 -43.14c412.16,-70.14 839.37,-143.48 1254.77,-143.48 412.15,0 835.07,34.52 1242.89,66.92 319.35,25.9 649.51,51.75 975.32,62.57l299.92 10.81c652.73,23.71 1327.04,48.57 1983.01,-24.81 672.18,-74.42 1327.05,-271.86 1993.79,-485.48 1278.46,-409.98 2145.93,-1344.28 2578.57,-2778.15 502.77,-1665.82 986.13,-3297.05 1374.52,-4943.45 310.73,-1318.41 -88.49,-2445.83 -1154.42,-3261.47 -138.1,-105.71 -275.1,-212.53 -412.16,-319.35 -913.84,-712.08 -1858.92,-1447.85 -3033.8,-1757.48 -790.85,-208.25 -1728.39,-429.39 -2683.18,-488.72 -62.57,-4.34 -125.15,-5.38 -186.62,-6.48l-1.22 -0.19zm-4265.97 13865.88l-257.86 43.14c-515.74,84.14 -1037.9,181.25 -1541.71,275.1l-632.21 116.52c-2.14,0 -4.34,1.1 -5.38,1.1 -3.24,-1.1 -7.57,-1.1 -10.81,-2.14 -151.06,-20.47 -303.14,-36.66 -455.31,-51.76 -321.49,-33.42 -652.73,-66.9 -960.22,-152.08 -541.59,-149.96 -750.95,-488.74 -830.74,-745.5 -126.25,-408.92 -15.09,-900.9 282.67,-1253.67 498.45,-589.06 1119.9,-1078.88 1902.06,-1495.32 1823.36,-973.18 2941.06,-2595.81 3415.79,-4961.85 241.67,-1206.17 540.54,-2381.12 887.92,-3492.35 402.46,-1288.17 1389.63,-2014.31 2645.42,-1935.54 937.56,57.19 1862.16,276.21 2643.28,482.26 1133.9,298.86 2062.83,1021.71 2960.49,1721.91 136.99,106.82 275.1,214.74 413.2,320.45 996.89,762.79 1370.19,1817.91 1079.99,3051.1 -387.28,1641 -869.59,3269.01 -1371.28,4931.59 -412.16,1364.81 -1234.22,2253.79 -2444.75,2641.14 -657.01,210.39 -1301.14,404.6 -1953.87,476.88 -319.35,35.62 -645.16,47.49 -970.98,47.49 -329.06,0 -658.11,-11.86 -981.79,-23.71l-301.02 -10.83c-321.47,-10.81 -648.41,-36.66 -965.6,-62.57 -412.16,-33.42 -838.31,-67.95 -1259.03,-67.95 -432.63,0 -868.51,74.44 -1289.29,146.72l1.04 -0.12z"/>
    <path class="fil0" d="M37085.63 52444.71c14.05,3.24 29.14,4.34 45.35,1.1 299.9,-60.43 599.87,-124.04 898.68,-188.82 673.22,-144.58 1369.09,-293.43 2058.5,-389.49 831.83,-115.42 1747.82,-180.2 2799.7,-198.53 496.31,-8.62 1001.22,16.19 1491,39.9 416.44,20.47 846.94,41 1272,42.11l17.23 0c1274.19,0 2358.47,-131.63 3314.34,-403.49 1639.92,-466.05 2707.99,-1448.94 3175.16,-2921.61 224.38,-706.7 427.25,-1431.66 624.68,-2132.99 167.25,-595.54 339.88,-1211.61 524.36,-1812.53 112.18,-365.71 249.26,-733.63 381.9,-1088.61 156.44,-418.58 318.25,-850.18 441.25,-1288.19 336.64,-1191.08 334.44,-2422.13 307.49,-3482.63 -20.47,-800.55 242.77,-1455.44 804.83,-2002.39l186.63 -181.25c585.81,-567.49 1191.08,-1154.42 1689.53,-1810.4 816.74,-1071.31 1013.08,-2263.49 583.68,-3541.96 -316.09,-940.8 -1516.89,-1965.73 -2726.37,-1934.46 -1051.95,29.16 -2115.69,112.2 -3114.77,194.2 -367.92,30.19 -681.89,-77.66 -888.97,-303.16 -235.21,-256.76 -321.49,-651.63 -241.69,-1112.32 230.86,-1333.52 446.7,-2754.42 349.59,-4168.79 -123.01,-1783.39 -1240.7,-3107.19 -2988.53,-3541.98 -740.12,-183.43 -1417.66,-276.19 -2055.31,-276.19 -631.18,0 -1223.48,89.52 -1799.58,269.72 -1240.7,387.28 -2027.2,1193.22 -2339.03,2394.02 -444.48,1708.96 -507.05,3151.43 -197.43,4539.96 256.76,1154.42 936.46,2072.55 2019.69,2731.77 167.25,101.44 331.19,207.15 495.21,313.95 304.24,196.34 619.25,399.22 946.17,569.64 234.1,121.9 378.68,334.44 397.01,584.78 19.43,262.16 -100.33,514.64 -319.33,673.22l-90.63 65.81c-371.16,269.72 -755.22,549.16 -1169.51,704.5 -2128.64,798.35 -3471.88,2239.79 -3993.01,4283.18 -155.34,607.4 -225.48,1243.94 -293.43,1860.02 -20.47,189.86 -42.11,379.78 -65.81,568.59 -38.86,320.45 -67.94,646.27 -94.95,962.37 -91.71,1062.69 -186.62,2161.02 -727.17,3150.33 -449.93,822.12 -1124.16,1388.52 -1998.11,1985.17l-529.72 360.35c-625.73,425.05 -1273.1,864.16 -1889.16,1325.93 -922.47,692.65 -1417.68,1612.97 -1473.77,2737.15 -62.57,1263.38 652.73,2107.07 1961.39,2313.12 497.34,78.76 1010.95,87.39 1508.29,95.99 224.38,4.34 448.82,7.59 672.16,18.35 2.14,0 5.38,0 7.59,0 7.57,0 15.09,-1.1 21.57,-3.24l1.34 -2.21zm5797.95 -981.79c-1060.55,19.43 -1984.06,85.25 -2823.48,200.67 -696.98,96.01 -1397.13,247.05 -2073.64,391.63 -298.88,63.68 -596.64,128.39 -895.46,187.72 -1.1,0 -3.24,1.1 -4.34,1.1 -6.47,-1.1 -12.95,-2.14 -19.43,-3.24 -225.48,-9.71 -452.06,-14.05 -678.65,-18.33 -489.83,-8.62 -995.79,-17.23 -1480.24,-93.87 -1210.51,-190.94 -1845.97,-936.44 -1787.72,-2099.48 52.85,-1059.47 521.1,-1927.97 1391.75,-2581.81 611.75,-458.53 1256.89,-896.54 1881.59,-1319.47l529.72 -360.35c897.66,-613.87 1592.43,-1198.65 2061.74,-2056.34 562.11,-1027.07 658.11,-2146.97 751.96,-3231.25 26.95,-313.95 55,-638.68 94.97,-954.79 23.71,-189.86 44.24,-379.77 65.81,-570.73 66.9,-608.49 136.99,-1238.56 288.05,-1831.97 503.81,-1974.36 1804.95,-3368.31 3866.74,-4140.76 441.25,-165.05 836.12,-453.1 1218.1,-730.39l89.52 -64.71c277.29,-200.69 428.29,-521.12 404.58,-854.45 -23.71,-322.57 -208.25,-596.64 -507.05,-751.98 -319.35,-166.15 -628.97,-366.82 -929.98,-559.92 -166.15,-106.82 -332.3,-213.62 -500.59,-316.11 -1048.71,-637.63 -1677.68,-1487.81 -1925.83,-2600.12 -302.11,-1355.11 -239.53,-2767.34 196.34,-4442.86 296.66,-1143.61 1016.31,-1879.45 2200.92,-2249.51 1120.94,-350.63 2309.88,-347.39 3743.75,9.71 1683.04,418.58 2715.56,1642.06 2833.14,3356.46 95.99,1393.89 -110.06,2743.61 -347.4,4120.27 -90.61,524.34 12.97,980.7 292.4,1286.05 224.38,244.91 547.02,375.44 920.27,375.44 45.33,0 90.61,-2.14 136.99,-5.38 995.79,-82.01 2056.36,-165.05 3103.96,-194.2 1091.85,-31.28 2232.22,923.51 2525.7,1794.2 406.73,1209.43 220.12,2336.9 -552.4,3352.12 -489.83,643.01 -1088.61,1224.51 -1669.06,1786.62l-187.72 181.24c-605.25,589.07 -888.97,1293.57 -867.4,2155.66 26.95,1045.47 29.16,2258.11 -298.86,3421.16 -121.9,429.39 -281.59,857.7 -435.87,1272 -133.77,358.2 -271.86,728.26 -386.25,1099.35 -185.58,603.13 -358.21,1220.24 -525.4,1816.88 -196.34,700.22 -399.22,1423.04 -622.49,2126.5 -445.6,1402.58 -1466.18,2340.14 -3036.01,2785.72 -937.56,266.48 -2003.49,395.97 -3258.25,395.97l-17.23 0c-419.68,0 -848.04,-21.57 -1261.24,-42.11 -421.82,-20.47 -856.66,-41 -1288.19,-41 -72.28,0 -143.48,1.1 -215.77,2.14l-2.07 -3.48z"/>
    <path class="fil0" d="M9230.91 55882.08c568.61,-545.93 1229.96,-1080 2013.22,-1467.29 278.33,-138.11 563.16,-140.25 782.22,-5.38 216.86,133.75 343.11,389.49 345.25,701.25 1.1,241.67 0,502.77 -11.86,772.5l206.05 0c11.86,-269.72 12.97,-531.86 11.86,-773.53 -2.14,-384.11 -164.01,-702.36 -442.36,-874.99 -140.23,-86.28 -301,-129.47 -469.29,-129.47 -166.15,0 -339.87,42.09 -510.29,126.23 -878.23,433.74 -1603.26,1043.28 -2217.13,1651.76l294.54 0 -2.21 -1.09z"/>
    <path class="fil0" d="M18210.48 27275.32c6.48,0 14.05,-1.1 20.47,-3.24 12.97,3.24 26.95,4.33 41,1.1 1237.48,-205.01 2202.04,-893.32 3162.19,-1641.02 730.41,-568.59 1629.11,-1036.79 2828.86,-1471.61 898.7,-325.83 1284.95,-961.27 1147.96,-1889.18 -142.44,-963.46 -299.92,-1825.48 -798.36,-2608.74 -491.96,-773.55 -1250.41,-1199.7 -2254.87,-1265.52 -704.5,-46.38 -1420.92,-57.19 -2113.55,-66.92 -618.21,-8.6 -1256.89,-18.33 -1883.73,-52.85 -2474.99,-137.01 -4408.33,-852.32 -5911.24,-2186.94 -142.44,-126.25 -290.21,-248.15 -438.01,-370.06 -165.05,-135.96 -336.64,-276.21 -496.31,-421.82 -940.8,-854.45 -2126.5,-1134.99 -3261.49,-1348.62 -442.36,-83.09 -898.7,-126.23 -1340,-166.15 -131.63,-11.85 -264.34,-24.8 -395.97,-37.76 -62.57,-6.47 -123.01,-9.71 -181.24,-9.71 -667.84,0 -1132.85,401.34 -1351.87,1169.51 -256.76,904.13 -58.23,1797.45 142.44,2473.89l225.5 757.36c406.72,1371.28 827.49,2788.96 1259.03,4178.52 395.96,1278.46 1189.98,2278.58 2359.5,2974.47 1419.8,844.78 2950.76,1366.94 4679.15,1596.76 201.77,26.95 403.48,55 605.25,82.01 1133.9,155.34 2303.41,316.11 3475.13,316.11 159.67,0 319.35,-3.24 479.01,-9.72l1.15 0.14zm-7.57 -204.96c-1315.19,51.76 -2638.93,-129.47 -3918.5,-304.24 -201.79,-28.05 -403.49,-55 -605.26,-82.01 -1701.39,-225.48 -3206.44,-739.01 -4602.53,-1569.76 -1124.18,-668.94 -1888.07,-1631.3 -2267.84,-2859.05 -430.49,-1388.51 -851.28,-2805.08 -1258,-4176.36l-224.39 -757.36c-193.08,-650.59 -384.11,-1506.15 -142.42,-2359.5 210.38,-737.98 650.59,-1078.88 1315.19,-1011.98 132.72,12.97 264.34,25.92 397.01,37.76 435.86,39.92 886.83,82.01 1320.57,164.01 1105.83,208.25 2260.25,480.12 3161.14,1299 164.01,148.92 336.64,291.3 503.83,429.39 145.68,119.78 291.3,239.55 432.63,364.7 1538.48,1366.94 3513.92,2098.45 6036.4,2238.68 630.06,34.54 1271.98,44.24 1892.33,53.97 690.51,10.81 1404.71,20.47 2103.83,66.9 935.42,61.47 1639.92,455.31 2095.22,1170.61 476.86,749.84 630.06,1589.19 769.26,2528.89 121.9,829.64 -210.39,1374.52 -1015.22,1665.82 -1220.24,442.36 -2137.25,920.27 -2884.95,1502.91 -938.65,731.51 -1879.45,1403.61 -3069.43,1601.05 -2.14,0 -5.38,1.1 -7.59,1.1 -7.57,-2.14 -15.09,-3.24 -22.67,-3.24 -2.14,0 -3.22,0 -5.36,0l-3.24 -1.29z"/>
    <path class="fil0" d="M33827.38 17604.2c18.33,2.14 37.76,2.14 58.23,-1.1 964.51,-156.42 1743.49,-680.79 2496.56,-1188.94l106.82 -72.3c774.64,-521.1 1577.35,-1032.52 2353.09,-1525.52 364.68,-231.96 730.39,-465.01 1093.99,-699.12 1903.16,-1225.62 3062.96,-3094.24 3546.3,-5712.72l62.57 -342.01c70.16,-388.39 142.44,-789.74 235.21,-1177.09 263.24,-1095.09 1040.02,-1804.95 1839.48,-2408.07 1485.62,-1118.8 3206.42,-2425.37 4839.86,-3761.04 268.64,-219 497.34,-457.44 685.13,-710.96l-532.97 0c-140.23,155.32 -283.78,286.95 -413.2,391.63 -1626.95,1330.28 -3344.53,2633.55 -4826.97,3750.21 -862.04,649.51 -1699.25,1418.77 -1992.68,2640.04 -94.95,398.11 -168.29,805.93 -239.53,1199.7l-61.47 339.88c-461.79,2500.84 -1563.29,4281.04 -3365.07,5441.88 -363.59,234.1 -728.27,466.07 -1091.85,698.01 -777.9,495.21 -1582.73,1007.7 -2362.74,1532l-106.82 72.3c-747.69,503.83 -1453.29,978.55 -2325.03,1122.04 -8.62,-1.1 -17.23,-3.24 -25.92,-1.1 -730.39,5.38 -1261.22,-124.04 -1716.53,-411.06 -196.34,-124.04 -398.11,-242.77 -599.88,-360.35 -358.21,-209.29 -728.27,-427.25 -1057.33,-675.41 -1451.1,-1095.09 -2932.44,-1786.64 -4529.2,-2113.55 -1552.53,-318.23 -2673.47,-718.55 -3636.93,-1299 -1396.09,-842.59 -2436.13,-2159.92 -3273.34,-4146.19 -110.06,-260 -212.53,-523.24 -315.07,-787.59 -180.2,-460.69 -365.71,-936.46 -586.92,-1390.66 -662.46,-1359.37 -1861.07,-2109.21 -2946.44,-2662.71 -1623.71,-828.61 -3362.86,-1421.94 -5045.97,-1995.93 -269.72,-91.71 -538.35,-184.48 -807.04,-276.19 -758.45,-262.16 -1350.76,-612.83 -1792,-1068.09l-541.59 0c507.05,641.92 1236.43,1124.18 2199.82,1456.48 269.72,92.77 539.45,184.48 809.17,277.29 1669.06,569.64 3394.21,1158.71 4992.02,1973.32 1024.95,523.24 2154.56,1225.6 2763.04,2476.03 213.63,439.12 397.01,907.37 573.97,1359.37 104.68,266.48 208.25,534.07 319.35,797.33 872.85,2070.4 1965.73,3449.19 3440.59,4339.27 1004.46,605.26 2166.4,1021.71 3766.42,1349.73 1535.22,313.97 2962.61,980.69 4364.08,2038.01 348.49,263.24 729.31,486.58 1097.23,702.36 197.44,115.44 394.87,231.96 587.97,353.87 517.88,327.95 1108.04,474.74 1908.54,474.74 5.36,0 10.81,0 16.19,0 11.85,0 24.81,0 35.62,-1.1l1.22 2.33zm-13129.01 -17597.79l598.78 0 9.71 8.62c296.68,261.1 617.13,511.4 925.72,753.08 182.34,142.44 364.68,284.81 544.81,431.53 602.02,488.72 993.65,1129.61 1373.44,1748.86 127.28,208.25 254.62,417.54 390.53,619.25 368.96,552.42 871.75,811.31 1505.05,786.5 919.22,-31.28 1721.92,-486.58 2465.28,-949.41 1416.56,-882.56 2399.45,-2083.36 3159,-3398.48l473.63 0c-802.69,1445.72 -1854.64,2774.89 -3415.78,3748.08 -790.85,493.07 -1648.52,976.43 -2669.19,1010.95 -29.14,1.1 -57.19,1.1 -86.28,1.1 -747.69,0 -1344.28,-324.73 -1775.86,-970.98 -138.11,-207.15 -268.64,-419.68 -399.22,-633.32 -377.65,-617.11 -734.74,-1200.79 -1281.71,-1644.25 -177.99,-144.58 -358.21,-284.81 -538.35,-426.15 -313.97,-244.91 -638.68,-498.45 -944.03,-768.17 -116.54,-102.47 -228.72,-208.25 -336.64,-317.21l1.1 0z"/>
    <path class="fil0" d="M56320.07 17156.41c867.4,-78.76 1382.04,-714.22 1796.34,-1224.51 132.73,-164.01 256.78,-335.54 377.65,-502.79 176.96,-243.81 359.23,-496.29 564.24,-717.44l236.31 -256.76c511.4,-555.64 1041.12,-1130.66 1632.33,-1600.02 619.25,-491.96 1278.46,-955.89 1917.21,-1404.71 518.91,-364.68 1055.12,-742.26 1568.72,-1133.89 955.87,-729.31 2107.07,-1234.22 3621.83,-1590.29 1651.76,-387.28 2637.9,-1353.99 3102.86,-3042.48 403.49,-1462.96 906.27,-3152.54 1780.15,-4680.21 476.88,-833.97 676.44,-873.89 1588.16,-723.93 1206.17,198.53 2302.36,108.96 3311.1,-274.05l-688.3 0c-455.29,114.39 -927.84,170.48 -1421.94,170.48 -377.63,0 -766.03,-33.42 -1168.41,-99.23 -1031.41,-169.39 -1302.24,-46.38 -1799.58,824.26 -885.8,1548.19 -1392.87,3251.77 -1799.58,4727.68 -442.36,1607.52 -1381,2527.86 -2951.87,2895.71 -1543.91,363.58 -2718.8,880.35 -3699.5,1626.95 -510.29,388.39 -1045.47,764.93 -1562.24,1129.61 -640.89,449.93 -1302.24,915.99 -1925.83,1411.2 -604.14,479.01 -1139.32,1060.57 -1656.09,1621.57l-236.31 255.67c-213.62,229.83 -399.2,487.64 -580.45,736.89 -118.66,163.99 -242.77,334.42 -371.15,494.1 -495.21,610.63 -931.08,1083.23 -1655.01,1149.04 -5.38,0 -9.72,1.1 -15.1,2.14 -5.38,-1.1 -11.85,-2.14 -17.23,-2.14 -469.29,-33.43 -921.35,-203.91 -1382.04,-523.26 -809.17,-561.02 -1618.35,-1079.99 -2607.66,-1249.38 -563.16,-97.09 -1146.85,-178.01 -1782.34,-248.15 -1133.9,-125.15 -1896.69,-749.84 -2333.65,-1910.73 -342.02,-908.41 -424.03,-1860.02 -250.29,-2910.86 296.68,-1793.1 1079.99,-3175.14 2394.02,-4224.95 295.64,-236.31 608.49,-461.79 911.65,-680.79 419.68,-303.16 854.45,-617.11 1252.62,-963.48 1159.8,-1011.98 1825.5,-2386.5 2468.51,-3715.69l29.16 -60.42c73.38,-152.1 146.72,-304.26 219,-457.44l-227.62 0c-58.23,123.01 -117.56,244.91 -175.86,367.92l-29.16 60.43c-634.4,1310.85 -1291.41,2665.94 -2418.88,3649.88 -390.54,340.9 -821.04,651.63 -1237.48,952.65 -305.35,220.1 -620.35,447.72 -919.22,686.17 -1355.09,1083.23 -2163.16,2506.27 -2468.51,4352.24 -180.2,1086.47 -93.87,2073.64 261.1,3016.58 467.15,1240.7 1286.05,1908.52 2504.08,2043.39 631.16,70.14 1210.51,149.94 1770.43,247.05 947.27,162.91 1734.87,667.82 2524.62,1215.89 490.86,340.92 976.41,523.26 1484.58,558.88 11.85,0 21.57,0 32.38,-2.14 7.57,2.14 16.19,3.24 24.81,3.24 3.24,0 6.47,0 9.71,-1.1l-2.26 1.22z"/>
   </g>
  </g>
 </g>
</svg>
