<?xml version="1.0" encoding="UTF-8"?>
<!DOCTYPE svg PUBLIC "-//W3C//DTD SVG 1.1//EN" "http://www.w3.org/Graphics/SVG/1.1/DTD/svg11.dtd">
<!-- Creator: CorelDRAW -->
<svg xmlns="http://www.w3.org/2000/svg" xml:space="preserve" width="156.754mm" height="91.44mm" version="1.1" style="shape-rendering:geometricPrecision; text-rendering:geometricPrecision; image-rendering:optimizeQuality; fill-rule:evenodd; clip-rule:evenodd"
viewBox="0 0 887.82 517.9"
 xmlns:xlink="http://www.w3.org/1999/xlink"
 xmlns:xodm="http://www.corel.com/coreldraw/odm/2003">
 <defs>
  <style type="text/css">
   <![CDATA[
    .fil0 {fill:#57A8AD;fill-opacity:0.819608}
   ]]>
  </style>
 </defs>
 <g id="Camada_x0020_1">
  <metadata id="CorelCorpID_0Corel-Layer"/>
  <g id="_1937642923392">
   <path class="fil0" d="M488.69 0l-2.16 0c-3.37,6.25 -8.25,11.79 -14.69,16.72 -4.29,3.29 -8.83,6.4 -13.23,9.41 -7.83,5.37 -15.93,10.91 -22.97,17.7 -8.29,7.97 -14.45,15.3 -17.64,25.12 -5.4,16.64 -9.34,35.16 -12.38,58.28 -1.31,9.94 -4.63,17.06 -16.56,19.48 -13.01,2.64 -23.5,7.6 -32.06,15.14l-0.4 0.36c-4.26,3.75 -8.66,7.62 -13.27,11 -11.46,8.38 -23.81,11.09 -36.68,8.06 -8.61,-2.02 -16.62,-6.59 -25.2,-14.36 -2.75,-2.49 -5.46,-5.02 -8.17,-7.55 -3.31,-3.09 -6.73,-6.28 -10.17,-9.34 -10.15,-9.04 -23.2,-12.34 -34.71,-15.26 -19.48,-4.93 -33.9,-12.84 -45.37,-24.88 -9.46,-9.93 -16.26,-21.66 -22.97,-33.81 -6.35,-11.52 -14.8,-24.36 -29.32,-32.34 -10.5,-5.76 -21.55,-9.31 -32.85,-10.54 -10.07,-1.1 -19.28,2.55 -28.21,11.15 -8.18,7.88 -16.6,13.37 -25.72,16.79 -9.88,3.7 -20.96,8.54 -27.36,19.18 -4.43,7.36 -8.04,15.35 -11.53,23.07l-0.96 2.13c-1.45,3.2 -2.8,6.5 -4.11,9.72l0 5.08c0.41,-1 0.81,-2 1.21,-2.99 1.47,-3.64 2.99,-7.4 4.63,-11.02l0.97 -2.13c3.47,-7.67 7.05,-15.61 11.42,-22.87 6.08,-10.11 16.81,-14.79 26.4,-18.38 9.37,-3.51 18,-9.14 26.38,-17.2 8.49,-8.18 17.23,-11.66 26.68,-10.62 11.05,1.2 21.86,4.67 32.14,10.32 14.09,7.74 22.35,20.31 28.57,31.58 6.77,12.27 13.64,24.11 23.25,34.21 11.73,12.31 26.44,20.39 46.28,25.41 11.3,2.86 24.11,6.11 33.91,14.84 3.42,3.05 6.84,6.23 10.13,9.31 2.72,2.54 5.44,5.08 8.19,7.57 8.83,8 17.11,12.7 26.04,14.8 3.56,0.84 7.08,1.26 10.56,1.26 9.64,-0 18.91,-3.22 27.68,-9.63 4.69,-3.42 9.12,-7.33 13.41,-11.1l0.4 -0.36c8.3,-7.32 18.5,-12.12 31.18,-14.7 13.81,-2.81 16.85,-11.8 18.07,-21.1 3.03,-23 6.93,-41.41 12.3,-57.94 3.06,-9.45 9.07,-16.56 17.15,-24.34 6.93,-6.67 14.96,-12.17 22.73,-17.5 4.41,-3.03 8.98,-6.15 13.31,-9.47 6.98,-5.35 12.19,-11.38 15.69,-18.23zm-224.91 0l-3.14 0c-3.63,2.42 -8.4,3.73 -14.3,1.59 -1.48,-0.53 -2.95,-1.06 -4.43,-1.59l-5.69 0c3.16,1.12 6.32,2.25 9.48,3.39 2.17,0.78 4.31,1.17 6.4,1.17 4.18,0 8.16,-1.54 11.69,-4.56z"/>
   <path class="fil0" d="M501.61 0l-4.2 0c-7.07,14.98 -17.53,26.44 -31.75,34.84 -17.84,10.54 -29.36,23.54 -35.22,39.72 -8.74,24.15 -7.6,46.97 3.39,67.82 5.35,10.15 15.32,14.32 24.36,17.06 1.4,0.42 2.81,0.83 4.22,1.24 5.94,1.72 12.08,3.49 17.2,6.52 8.85,5.25 14.13,14.07 16.62,27.74 0.34,1.87 0.7,3.75 1.05,5.62 0.93,4.88 1.88,9.92 2.55,14.89 1.33,9.99 6.9,17.14 17.54,22.52l0.46 0.23c6.35,3.21 12.92,6.53 19.06,10.25 10.24,6.19 18.41,15.49 24.98,28.43 2.43,4.79 5.02,9.59 7.52,14.24 2.97,5.51 6.03,11.21 8.85,16.9 6.23,12.59 5.62,17.82 -3.46,29.46 -4.83,6.19 -10.25,11.91 -15.4,17.25 -5.67,5.88 -9.45,12.93 -13.09,19.75 -0.89,1.65 -1.77,3.31 -2.69,4.95 -2.26,4.06 -4.44,8.16 -6.61,12.26 -2.89,5.45 -5.88,11.08 -9.01,16.49 -5.63,9.72 -10.83,20.51 -10.8,33.48 0.02,5.89 -0.17,11.9 -0.36,17.71 -0.22,6.79 -0.44,13.82 -0.33,20.74 0.1,6.05 0.83,13.82 5.73,20.33 4.35,5.78 11.34,8.84 18.79,8.84 4.76,0 9.71,-1.25 14.28,-3.83 7.2,-4.08 12.86,-10.61 17.31,-19.97 1.26,-2.64 2.55,-5.27 3.84,-7.9 2.41,-4.9 4.89,-9.96 7.11,-15.06 5.27,-12.13 14.85,-18.94 30.15,-21.41 13.19,-2.13 25.43,0.57 36.68,3.81 7.93,2.28 15.95,4.74 23.72,7.12 8.57,2.63 17.43,5.34 26.2,7.83 6.52,1.85 13.27,3.12 19.81,4.35l4.12 0.78c11.3,2.17 21.08,7.54 29.14,12.51l0.89 0.55c7.54,4.65 15.34,9.46 23.68,12.75 14.06,5.56 27.8,3.29 39.75,-6.57 7.24,-5.97 14.05,-12.18 20.25,-18.44 7.38,-7.45 10.01,-15.78 8.05,-25.46 -2.38,-11.78 2.32,-20.93 13.99,-27.21 8.83,-4.75 18.18,-8.29 27.87,-10.56l0 -3.91c-10.33,2.34 -20.28,6.06 -29.67,11.12 -13.13,7.07 -18.63,17.9 -15.92,31.32 1.69,8.34 -0.61,15.55 -7.02,22.03 -6.11,6.17 -12.82,12.29 -19.96,18.18 -10.82,8.92 -23.24,10.98 -35.92,5.97 -8.03,-3.17 -15.68,-7.89 -23.09,-12.45l-0.89 -0.55c-8.36,-5.15 -18.52,-10.72 -30.42,-13l-4.13 -0.78c-6.45,-1.21 -13.12,-2.47 -19.47,-4.27 -8.74,-2.48 -17.58,-5.19 -26.13,-7.81 -7.78,-2.38 -15.82,-4.85 -23.78,-7.14 -11.13,-3.2 -24.38,-6.17 -38.35,-3.91 -16.71,2.7 -27.21,10.22 -33.04,23.66 -2.18,5.02 -4.65,10.04 -7.03,14.9 -1.3,2.64 -2.6,5.28 -3.86,7.94 -4.1,8.63 -9.25,14.61 -15.74,18.29 -10.06,5.69 -22.16,3.98 -28.14,-3.98 -4.24,-5.63 -4.88,-12.63 -4.96,-18.1 -0.1,-6.84 0.12,-13.81 0.33,-20.56 0.19,-5.84 0.38,-11.89 0.36,-17.84 -0.03,-12.06 4.92,-22.3 10.29,-31.56 3.16,-5.47 6.17,-11.13 9.08,-16.61 2.17,-4.08 4.34,-8.16 6.58,-12.19 0.92,-1.66 1.82,-3.33 2.71,-5 3.69,-6.89 7.17,-13.4 12.48,-18.9 5.21,-5.41 10.71,-11.22 15.66,-17.55 9.94,-12.74 10.74,-19.63 3.88,-33.5 -2.84,-5.75 -5.93,-11.48 -8.91,-17.02 -2.49,-4.62 -5.06,-9.41 -7.47,-14.16 -6.9,-13.6 -15.54,-23.4 -26.41,-29.97 -6.27,-3.79 -12.9,-7.15 -19.31,-10.39l-0.46 -0.24c-9.54,-4.82 -14.32,-10.87 -15.48,-19.62 -0.68,-5.07 -1.64,-10.17 -2.58,-15.1 -0.35,-1.86 -0.71,-3.72 -1.04,-5.59 -2.67,-14.64 -8.69,-24.56 -18.42,-30.34 -5.54,-3.28 -11.92,-5.13 -18.08,-6.91 -1.4,-0.4 -2.79,-0.81 -4.17,-1.22 -8.71,-2.64 -17.41,-6.31 -22.09,-15.19 -10.47,-19.86 -11.54,-41.65 -3.18,-64.75 5.55,-15.32 16.53,-27.66 33.58,-37.73 15.42,-9.11 26.61,-21.64 34.01,-38.12z"/>
   <path class="fil0" d="M155.91 517.9c2.11,-13.01 5.91,-24.11 13.84,-33.86 8.79,-10.8 20.65,-15.12 31.72,-11.57 6.21,2 12.18,5.47 17.94,8.82l0.9 0.52c2.72,1.58 5.38,3.49 7.94,5.33 2.61,1.88 5.31,3.82 8.16,5.48 12.54,7.32 20.22,6.8 27.4,-1.86 3.48,-4.19 5.7,-9.52 7.69,-14.62 1.88,-4.84 3.56,-9.84 5.18,-14.66 1.31,-3.9 2.66,-7.94 4.11,-11.85 3.82,-10.32 10.87,-18.39 21.54,-24.7 6.9,-4.08 14.01,-8.56 21.13,-13.33 7.61,-5.09 12.27,-12.5 13.49,-21.44 0.97,-7.16 -1.5,-13.86 -3.89,-20.34l-0.59 -1.6c-2.78,-7.64 -5.36,-15.24 -7.77,-22.37 -1.29,-3.81 0.23,-7.39 1.72,-9.72 2.08,-3.24 4.53,-6.37 6.89,-9.39 1.48,-1.88 2.95,-3.77 4.35,-5.69 9.62,-13.17 14.33,-27.26 14.02,-41.87 -0.06,-3.03 -0.45,-6.05 -0.83,-8.97 -0.39,-3.05 -0.76,-5.94 -0.8,-8.86 -0.05,-3.87 0.34,-7.86 0.71,-11.72 0.19,-1.99 0.39,-3.97 0.53,-5.96 0.13,-1.8 0.36,-3.65 0.59,-5.44 0.63,-4.9 1.27,-9.96 -0.06,-15.32 -3.19,-12.86 -10.34,-13.87 -18.64,-15.05 -2.75,-0.39 -5.8,-0.4 -9.59,-0.04 -11.33,1.11 -21.48,-2.59 -32.94,-11.96 -11,-8.99 -20.39,-18.75 -27.93,-29.02 -8.53,-11.62 -20.81,-19.24 -38.66,-23.97 -14.51,-3.85 -29.68,-8.89 -42.29,-19.7 -6.53,-5.59 -12.53,-12.39 -18.35,-20.76 -3.08,-4.44 -6.12,-9.04 -9.05,-13.48 -4.04,-6.12 -8.21,-12.44 -12.6,-18.49 -7.49,-10.31 -18.64,-17.17 -32.23,-19.85 -1.88,-0.37 -3.76,-0.55 -5.63,-0.55 -6.65,0 -13.15,2.31 -18.74,6.73 -2.9,2.29 -6.67,5.36 -10.21,8.84 -5.16,5.08 -12.05,8.44 -21.07,10.27 -19.09,3.88 -32.12,16 -39.82,37.05 -4.96,13.56 -8.02,27.77 -10.97,41.52 -0.91,4.24 -1.82,8.48 -2.79,12.71 -0.13,0.57 -0.24,1.14 -0.35,1.7l0 23.86c1.11,2.02 2.59,3.99 4.45,5.93 2.93,3.06 5.97,6.38 9.56,10.46 3.7,4.21 5.7,9.52 6.46,17.22 0.64,6.39 1.38,13.18 2.82,19.87 2.12,9.82 7.39,12.17 15.79,12.9 2.44,0.21 4.89,0.16 7.25,0.11 1.29,-0.03 2.58,-0.05 3.86,-0.04 13.43,0.16 26.35,2.12 37.22,4.02 5.5,0.96 11.12,1.65 16.56,2.31 2.59,0.31 5.17,0.63 7.75,0.97 11.35,1.51 24.52,3.43 37.28,7.13 9.42,2.73 19.51,5.44 30.14,5.88 8.77,0.37 17.34,-0.81 25.64,-1.94l3.97 -0.54c14.2,-1.88 24,0.78 31.8,8.6 1.37,1.38 2.74,2.78 4.1,4.17 3.27,3.35 6.65,6.82 10.19,10.04 5.4,4.9 11,9.75 16.42,14.44 2.92,2.52 5.83,5.05 8.72,7.59 2.23,1.96 4.35,3.93 6.32,5.87 1.83,1.81 2.02,6.87 0.33,8.74 -4.13,4.59 -7.9,8.67 -12.14,12.13 -10.81,8.82 -19.59,19.62 -28.1,30.07l-1.05 1.29c-3.4,4.18 -7.66,7.99 -12.33,11.02 -16.68,10.85 -28.79,22.06 -38.11,35.28 -5,7.09 -12.25,10.85 -22.19,11.52 -12.82,0.86 -22.53,0.41 -31.48,-1.44 -6.16,-1.28 -12.14,-4.39 -17.75,-7.47 -3.29,-1.8 -6.49,-3.99 -9.58,-6.1 -3.27,-2.23 -6.66,-4.54 -10.23,-6.48 -7.33,-3.96 -15.46,-7.75 -24.86,-11.57 -13.94,-5.67 -24.75,-13.72 -33.04,-24.61 -4.84,-6.35 -7.96,-14.32 -9.57,-24.34 -3.37,-21.04 -9.13,-41.95 -17.15,-62.14 -2.67,-6.73 -6.24,-14.01 -14.81,-15.17 -1.41,-0.19 -2.82,-0.29 -4.24,-0.34l0 3.81c1.25,0.04 2.5,0.14 3.73,0.3 6.54,0.88 9.31,6.55 11.78,12.79 7.91,19.93 13.61,40.57 16.93,61.34 1.7,10.66 5.07,19.18 10.3,26.05 8.72,11.45 20.05,19.9 34.64,25.83 9.27,3.77 17.28,7.49 24.48,11.39 3.4,1.84 6.7,4.09 9.89,6.27 3.17,2.17 6.45,4.4 9.9,6.3 5.86,3.22 12.13,6.48 18.81,7.86 9.31,1.93 19.34,2.39 32.51,1.51 11.15,-0.75 19.34,-5.04 25.05,-13.13 9.03,-12.81 20.81,-23.7 37.07,-34.28 5,-3.25 9.56,-7.33 13.21,-11.81l1.05 -1.29c8.38,-10.3 17.04,-20.95 27.55,-29.52 4.45,-3.63 8.32,-7.82 12.56,-12.53 3.01,-3.34 2.75,-10.8 -0.49,-14 -2.02,-2 -4.2,-4.02 -6.48,-6.03 -2.9,-2.55 -5.82,-5.08 -8.74,-7.6 -5.4,-4.68 -10.98,-9.51 -16.35,-14.39 -3.45,-3.14 -6.79,-6.56 -10.02,-9.87 -1.37,-1.4 -2.74,-2.81 -4.13,-4.2 -8.61,-8.63 -19.73,-11.7 -35,-9.69l-3.99 0.54c-8.13,1.11 -16.54,2.26 -24.97,1.91 -10.2,-0.42 -20.04,-3.06 -29.24,-5.73 -13.01,-3.77 -26.35,-5.72 -37.83,-7.25 -2.6,-0.35 -5.2,-0.66 -7.8,-0.98 -5.39,-0.66 -10.96,-1.33 -16.36,-2.28 -11.02,-1.92 -24.13,-3.91 -37.83,-4.07 -1.34,-0.02 -2.66,0.01 -3.99,0.04 -2.38,0.05 -4.61,0.1 -6.85,-0.1 -7.38,-0.64 -10.73,-2.16 -12.4,-9.91 -1.39,-6.49 -2.12,-13.16 -2.75,-19.44 -0.85,-8.54 -3.13,-14.5 -7.4,-19.35 -3.62,-4.12 -6.7,-7.48 -9.66,-10.58 -5.42,-5.66 -7.04,-11.32 -5.08,-17.84 0.6,-2.01 0.91,-4.07 1.22,-6.05 0.22,-1.43 0.42,-2.78 0.72,-4.11 0.97,-4.24 1.88,-8.5 2.8,-12.75 2.93,-13.62 5.95,-27.7 10.83,-41.01 7.31,-19.98 19.06,-30.98 37,-34.63 9.77,-1.99 17.28,-5.68 22.98,-11.29 3.4,-3.35 7.07,-6.33 9.9,-8.56 6.37,-5.04 13.72,-6.91 21.27,-5.42 12.81,2.52 22.87,8.69 29.88,18.35 4.34,5.98 8.49,12.26 12.5,18.35 2.95,4.47 5.99,9.08 9.1,13.56 6.01,8.64 12.22,15.67 19,21.48 13.19,11.31 28.84,16.53 43.79,20.49 17.19,4.56 28.46,11.51 36.56,22.54 7.73,10.53 17.35,20.52 28.59,29.71 12.14,9.92 23.5,13.99 35.72,12.8 3.48,-0.34 6.24,-0.33 8.7,0.02 8.31,1.18 12.89,1.83 15.46,12.2 1.16,4.66 0.59,9.16 -0.02,13.91 -0.24,1.84 -0.48,3.74 -0.62,5.65 -0.14,1.95 -0.33,3.91 -0.52,5.86 -0.39,3.96 -0.79,8.06 -0.73,12.14 0.04,3.14 0.44,6.27 0.83,9.3 0.36,2.82 0.74,5.74 0.8,8.56 0.3,13.95 -4.05,26.88 -13.29,39.54 -1.38,1.89 -2.83,3.74 -4.28,5.59 -2.42,3.1 -4.92,6.29 -7.1,9.68 -2.79,4.35 -3.53,8.85 -2.12,13 2.41,7.15 5,14.78 7.8,22.46l0.59 1.61c2.23,6.04 4.53,12.29 3.68,18.51 -1.07,7.82 -5.16,14.32 -11.83,18.78 -7.07,4.73 -14.11,9.17 -20.95,13.21 -11.45,6.77 -19.03,15.48 -23.17,26.65 -1.47,3.96 -2.83,8.03 -4.15,11.96 -1.61,4.79 -3.27,9.73 -5.12,14.5 -1.87,4.81 -3.95,9.81 -7.07,13.57 -5.91,7.13 -11.6,7.39 -22.54,1 -2.69,-1.57 -5.31,-3.46 -7.85,-5.28 -2.64,-1.9 -5.37,-3.86 -8.25,-5.54l-0.9 -0.52c-5.94,-3.46 -12.09,-7.03 -18.69,-9.15 -12.64,-4.06 -26.03,0.72 -35.85,12.79 -8.8,10.82 -12.7,23.47 -14.73,36.26l3.85 0z"/>
   <path class="fil0" d="M176.29 517.9c1.57,-4.68 4.23,-9.6 9.01,-13.28 9.35,-7.2 20.05,-7.71 31.8,-1.51 5.79,3.06 10.99,7.63 16.02,12.04 0.88,0.77 1.76,1.54 2.64,2.3 0.17,0.15 0.34,0.3 0.51,0.44l2.99 0c-0.74,-0.59 -1.49,-1.22 -2.26,-1.88 -0.88,-0.76 -1.75,-1.53 -2.63,-2.29 -5.11,-4.49 -10.39,-9.12 -16.38,-12.29 -12.47,-6.59 -23.86,-6.02 -33.85,1.68 -5.36,4.13 -8.22,9.64 -9.85,14.79l2.01 0zm106.48 0c1.9,-2.39 2.93,-5.21 3.12,-8.48 0.13,-2.2 0.34,-4.39 0.56,-6.58 0.12,-1.15 0.23,-2.3 0.33,-3.46 0.29,-3.24 0.54,-6.49 0.78,-9.74 0.53,-7.01 1.09,-14.25 2.06,-21.3 2.18,-15.84 8.45,-27.15 19.18,-34.58 3.19,-2.21 6.4,-4.39 9.62,-6.57 6.03,-4.09 12.28,-8.33 18.27,-12.71 12.63,-9.24 17.8,-22.67 15.8,-41.07 -0.93,-8.55 -1.53,-19.77 2.06,-30.7 4.03,-12.29 8.69,-24.28 12.29,-33.35 5.9,-14.87 7.29,-27.73 4.36,-40.45 -1.66,-7.22 -1.34,-15.08 -1.03,-22.68l0.01 -0.34c0.28,-6.97 0.92,-14.04 1.55,-20.89 0.37,-4.01 0.73,-8.01 1.03,-12.03 0.12,-1.55 0.07,-3.12 0.02,-4.63 -0.05,-1.71 -0.1,-3.33 0.06,-4.94 0.92,-9.06 2.19,-17.06 8.37,-23.22 1.02,-1.02 2.02,-2.07 3.02,-3.12 2.08,-2.19 4.22,-4.46 6.57,-6.35 9.02,-7.28 17.74,-9.05 27.46,-5.57 7.74,2.78 15.88,4.81 23.74,6.77 2.77,0.69 5.54,1.38 8.3,2.11 17.89,4.69 28.41,14.95 32.16,31.35 1.87,8.15 2.94,16.44 3.67,22.75 1.6,13.96 7.59,20.64 21.35,23.81 7.89,1.82 14.39,4.05 19.87,6.81 13.89,6.99 22.73,19.51 26.28,37.22 1.24,6.18 0.7,13.44 -1.4,18.95 -3.06,8.02 -8.27,15.45 -12.91,21.78l-2.15 2.92c-6.52,8.8 -13.26,17.89 -15.11,29.18 -2.4,14.69 -6.49,28.05 -12.51,40.86 -4,8.51 -6.65,18.06 -8.59,30.96 -1.49,9.92 -3.14,19.57 -6.97,28.55 -7.17,16.84 -15.66,22.42 -33.83,22.18 -5.74,-0.08 -11.6,-0.76 -17.26,-1.42 -3.62,-0.42 -7.36,-0.86 -11.05,-1.14 -6.21,-0.47 -12.53,-0.66 -18.64,-0.84l-3.36 -0.1c-1.44,-0.05 -2.89,0.02 -4.29,0.09 -2.45,0.12 -4.76,0.23 -6.96,-0.22 -9.25,-1.88 -18.28,-0.29 -27.01,1.24l-2.17 0.38c-8.07,1.4 -16.2,3.18 -24.07,4.9 -5.62,1.23 -11.43,2.5 -17.16,3.62 -12.63,2.46 -25.91,5.97 -37.48,14.83 -1.76,1.35 -3.68,3.03 -5.17,5.21l2.38 0c1.02,-1.24 2.33,-2.45 3.95,-3.7 11.26,-8.62 24.28,-12.05 36.68,-14.47 5.75,-1.12 11.57,-2.4 17.2,-3.63 7.85,-1.72 15.96,-3.49 23.99,-4.88l2.17 -0.38c8.56,-1.51 17.42,-3.06 26.3,-1.25 2.44,0.5 4.98,0.37 7.43,0.25 1.37,-0.07 2.79,-0.13 4.14,-0.09l3.37 0.1c6.09,0.18 12.39,0.37 18.55,0.83 3.65,0.28 7.38,0.71 10.97,1.13 5.71,0.66 11.61,1.35 17.45,1.44 18.89,0.28 28.16,-5.84 35.61,-23.34 3.91,-9.18 5.59,-18.97 7.1,-29.01 1.91,-12.71 4.51,-22.1 8.43,-30.43 6.1,-12.97 10.24,-26.5 12.67,-41.37 1.77,-10.83 8.37,-19.74 14.76,-28.35l2.16 -2.92c4.72,-6.44 10.01,-13.99 13.15,-22.23 2.26,-5.92 2.81,-13.4 1.49,-20.01 -3.67,-18.31 -12.85,-31.28 -27.29,-38.55 -5.62,-2.83 -12.26,-5.11 -20.3,-6.96 -12.98,-3 -18.37,-9 -19.89,-22.17 -0.73,-6.37 -1.82,-14.73 -3.7,-22.97 -3.87,-16.92 -15.15,-27.95 -33.54,-32.77 -2.77,-0.73 -5.54,-1.42 -8.32,-2.11 -7.82,-1.95 -15.91,-3.97 -23.56,-6.71 -3.43,-1.23 -6.75,-1.85 -10,-1.85 -6.58,0 -12.88,2.55 -19.3,7.74 -2.44,1.97 -4.63,4.29 -6.76,6.52 -0.98,1.04 -1.97,2.08 -2.98,3.08 -6.62,6.6 -7.96,14.94 -8.92,24.37 -0.18,1.74 -0.12,3.49 -0.07,5.19 0.04,1.47 0.09,2.98 -0.02,4.44 -0.3,4 -0.66,8 -1.03,11.99 -0.63,6.87 -1.28,13.97 -1.56,20.98l-0.01 0.34c-0.31,7.72 -0.64,15.71 1.08,23.18 2.84,12.32 1.48,24.82 -4.27,39.31 -3.61,9.1 -8.28,21.12 -12.33,33.46 -3.7,11.28 -3.09,22.76 -2.14,31.5 1.92,17.66 -3,30.52 -15.03,39.32 -5.96,4.36 -12.19,8.59 -18.21,12.67 -3.22,2.18 -6.44,4.37 -9.64,6.58 -11.19,7.76 -17.72,19.5 -19.98,35.89 -0.98,7.11 -1.53,14.39 -2.07,21.42 -0.25,3.24 -0.5,6.48 -0.78,9.72 -0.1,1.15 -0.21,2.29 -0.33,3.44 -0.22,2.22 -0.44,4.44 -0.57,6.66 -0.19,3.44 -1.41,6.26 -3.75,8.59l2.54 0z"/>
   <path class="fil0" d="M693.35 262.88c3.06,-0.56 6.33,-0.71 9.48,-0.84l1.69 -0.08c3.97,-0.19 7.95,-0.34 11.92,-0.49 3.8,-0.14 7.6,-0.28 11.4,-0.46 1.02,-0.05 2.05,-0.08 3.07,-0.11 3.44,-0.11 7,-0.23 10.46,-0.92 8.1,-1.63 10.17,-6.46 11.16,-14.8 1.49,-12.58 3.22,-22.88 10.53,-31.47 5.79,-6.8 13.29,-10.48 22.94,-11.26 7.23,-0.58 14.29,1.32 20.34,3.16 3.4,1.03 6.79,2.11 10.18,3.19 7.45,2.37 15.16,4.82 22.89,6.73 6.3,1.56 12.92,1.96 19.32,2.35l1.57 0.1c11.04,0.68 20.01,3.25 27.5,7.95l0 -4.39c-7.65,-4.28 -16.67,-6.71 -27.27,-7.36l-1.58 -0.1c-6.23,-0.37 -12.66,-0.76 -18.63,-2.24 -7.61,-1.89 -15.26,-4.32 -22.65,-6.67 -3.41,-1.08 -6.81,-2.16 -10.23,-3.2 -6.38,-1.93 -13.85,-3.95 -21.75,-3.31 -10.56,0.85 -19.15,5.08 -25.54,12.59 -8.64,10.15 -10.18,23.09 -11.41,33.49 -0.94,7.95 -2.69,10.42 -8.13,11.52 -3.15,0.63 -6.39,0.74 -9.83,0.85 -1.04,0.03 -2.09,0.07 -3.13,0.12 -3.79,0.18 -7.58,0.32 -11.37,0.46 -3.99,0.15 -7.98,0.3 -11.96,0.49l-1.68 0.08c-3.28,0.14 -6.68,0.29 -10,0.9 -12.6,2.32 -25.3,0.61 -37.71,-5.06 -7.33,-3.35 -13.26,-8.55 -20.24,-15 -9.56,-8.83 -19.45,-17.96 -27.59,-28.68 -3.12,-4.12 -6.16,-8.29 -9.21,-12.46 -7.1,-9.74 -14.44,-19.8 -22.75,-28.99 -7.5,-8.29 -5.79,-18.36 -3.03,-25.34 3.45,-8.74 9.14,-15.81 15.16,-22.87 14.53,-17.03 30.15,-26 49.18,-28.22 7.44,-0.87 13.93,-2.65 19.29,-5.27 10.54,-5.16 13.75,-15.49 16.86,-25.47l0.2 -0.64c3.17,-10.17 6.7,-19.9 14.99,-27.05 6.1,-5.26 13.24,-8.44 20.05,-11.09 15.68,-6.11 29.64,-11.97 41.71,-21.76 0.5,-0.41 1,-0.82 1.51,-1.23l-6.12 0c-11.15,8.42 -24.06,13.81 -38.48,19.43 -7.13,2.78 -14.62,6.12 -21.16,11.76 -9.05,7.8 -12.94,18.5 -16.14,28.8l-0.2 0.64c-2.87,9.21 -5.83,18.74 -14.9,23.18 -4.97,2.44 -11.05,4.09 -18.06,4.91 -19.76,2.31 -36.65,11.97 -51.64,29.53 -6.24,7.32 -12.14,14.66 -15.8,23.94 -4.52,11.45 -3.23,21.58 3.75,29.3 8.17,9.03 15.46,19.02 22.5,28.68 3.06,4.19 6.12,8.38 9.25,12.52 8.34,10.99 18.35,20.24 28.04,29.18 5.69,5.25 12.77,11.79 21.24,15.66 9.34,4.27 18.83,6.41 28.35,6.41 3.88,0 7.76,-0.36 11.63,-1.07zm126.81 -262.88l5.59 0c9.21,8.76 17.54,18.36 24.9,28.74 8.56,12.07 20.52,19.27 37.17,22.24l0 3.85c-17.88,-3.11 -31.12,-10.97 -40.28,-23.88 -8,-11.27 -17.16,-21.62 -27.38,-30.94z"/>
   <path class="fil0" d="M798.14 0l-5.09 0c2.8,0.91 5.6,2.25 8.4,4.04 11.81,7.54 19.3,18.24 25.64,28.68 7.57,12.47 15.59,20.23 25.26,24.42 11.54,4.99 23.43,8.11 35.47,9.31l0 -1.92c-11.78,-1.2 -23.42,-4.26 -34.71,-9.14 -9.29,-4.02 -17.04,-11.53 -24.39,-23.65 -6.45,-10.64 -14.1,-21.55 -26.24,-29.3 -1.45,-0.92 -2.89,-1.73 -4.33,-2.43zm-22.64 0l-5.21 0c-1.06,0.5 -2.12,1.05 -3.19,1.65l-10.01 5.68c-15.07,8.54 -30.66,17.38 -45.75,26.48 -5.31,3.2 -10.6,7.6 -16.64,13.83 -6.02,6.21 -7.97,14.37 -9.86,22.25 -0.33,1.39 -0.66,2.78 -1.02,4.15l-0.28 1.09c-1.68,6.57 -3.26,12.77 -8.11,17.75 -5.61,5.75 -12.83,7.23 -19.15,7.93 -2.86,0.32 -5.74,0.57 -8.62,0.82 -7.32,0.64 -14.89,1.3 -22.11,3.05 -17.36,4.23 -29.38,16.43 -34.76,35.3 -2.34,8.2 -0.6,17.69 4.91,26.7 10.41,17.04 20.9,31.31 32.07,43.64l2.61 2.89c5.98,6.62 12.17,13.46 18.48,19.98 7.13,7.37 15.4,11.81 23.9,12.83 2.25,0.27 4.52,0.38 6.8,0.38 5.93,0 11.95,-0.76 17.81,-1.51l0.72 -0.09c6.68,-0.85 13.23,-3.01 17.57,-4.56 8.33,-2.98 15.16,-9.05 21.49,-19.11 6.01,-9.56 11.94,-16.43 18.64,-21.62 13.32,-10.31 28.56,-12.89 45.31,-7.67 3.02,0.94 6.03,1.96 9.03,2.97 6.61,2.22 13.45,4.52 20.36,6.04 16.07,3.52 31.36,2.05 45.44,-4.38 4.83,-2.2 8.74,-5.15 11.86,-8.94l0 -3.16c-3.15,4.52 -7.29,7.92 -12.65,10.36 -13.69,6.25 -28.58,7.68 -44.24,4.25 -6.81,-1.49 -13.6,-3.78 -20.16,-5.99 -3.02,-1.02 -6.04,-2.03 -9.08,-2.98 -17.37,-5.42 -33.2,-2.74 -47.04,7.98 -6.88,5.33 -12.95,12.36 -19.08,22.11 -6.09,9.68 -12.61,15.5 -20.52,18.33 -4.26,1.52 -10.67,3.64 -17.17,4.46l-0.73 0.09c-8.01,1.02 -16.28,2.07 -24.15,1.12 -8.06,-0.97 -15.93,-5.21 -22.75,-12.26 -6.29,-6.5 -12.47,-13.33 -18.44,-19.93l-2.61 -2.89c-11.08,-12.24 -21.51,-26.42 -31.85,-43.36 -5.23,-8.56 -6.9,-17.5 -4.71,-25.19 5.18,-18.17 16.73,-29.92 33.38,-33.98 7.07,-1.72 14.57,-2.37 21.82,-3.01 2.89,-0.25 5.79,-0.5 8.66,-0.82 6.65,-0.73 14.27,-2.31 20.3,-8.49 5.21,-5.34 6.93,-12.08 8.6,-18.61l0.28 -1.09c0.36,-1.38 0.69,-2.78 1.03,-4.18 1.83,-7.63 3.72,-15.53 9.37,-21.37 5.93,-6.12 11.1,-10.41 16.26,-13.53 15.07,-9.09 30.64,-17.92 45.7,-26.46l10.01 -5.68c2.51,-1.43 4.99,-2.53 7.46,-3.31z"/>
   <path class="fil0" d="M717.8 214.93c3.99,-3.42 7.83,-7.14 11.54,-10.74 4.82,-4.68 9.82,-9.52 15.15,-13.7 12.83,-10.03 25.41,-14.48 38.56,-13.56 6.44,0.45 12.99,2.06 18.55,3.59 3.96,1.08 7.95,2.41 11.81,3.69 5.26,1.75 10.7,3.55 16.2,4.79 17.27,3.89 31.31,-1.24 41.71,-15.28 6.31,-8.51 11.43,-14.84 16.51,-20.41l0 -2.73c-0.34,0.31 -0.66,0.63 -0.97,0.97 -5.28,5.74 -10.54,12.23 -17.08,21.04 -9.91,13.38 -23.29,18.27 -39.76,14.56 -5.4,-1.22 -10.8,-3.01 -16.01,-4.74 -3.88,-1.29 -7.89,-2.62 -11.9,-3.72 -5.65,-1.55 -12.32,-3.19 -18.93,-3.65 -13.6,-0.94 -26.65,3.62 -39.86,13.96 -5.41,4.24 -10.44,9.11 -15.3,13.83 -3.69,3.58 -7.51,7.28 -11.46,10.66 -14.35,12.3 -28.84,15.57 -44.29,9.97 -7.32,-2.65 -13.38,-7.64 -19.63,-16.18 -3.72,-5.08 -7.38,-10.35 -10.92,-15.45 -3.46,-4.99 -7.04,-10.14 -10.69,-15.13 -1.52,-2.08 -3.14,-4.11 -4.71,-6.07 -4.05,-5.08 -8.25,-10.33 -10.78,-16.59 -2.86,-7.09 -2.97,-13.11 -0.35,-18.96 4.12,-9.19 11.94,-14.08 23.88,-14.96 15.74,-1.16 30.82,2.08 42.21,5.04 4.85,1.26 10.65,2.51 16.77,2.27 5.35,-0.21 11.26,-3.72 15.44,-9.15 3.59,-4.67 5.1,-9.77 4.15,-13.99 -0.99,-4.39 -2.29,-8.77 -3.55,-13 -0.48,-1.63 -0.97,-3.27 -1.44,-4.91 -5.35,-18.7 -1.74,-30.49 12.89,-42.06 11.93,-9.44 26.14,-17.99 43.42,-26.16 8.65,-4.09 21.16,-6.43 31.61,5.62 5.13,5.91 9.71,12.46 13.59,19.48 6.85,12.4 15.46,20.53 26.31,24.85 8.13,3.25 16.96,5.06 25.29,6.53 7.3,1.29 14.79,2.17 22.04,3.01l0 -1.92c-7.16,-0.83 -14.54,-1.7 -21.71,-2.97 -8.23,-1.46 -16.94,-3.24 -24.92,-6.43 -10.43,-4.16 -18.73,-12.01 -25.35,-24 -3.95,-7.14 -8.6,-13.8 -13.82,-19.81 -5.49,-6.33 -12.26,-9.54 -19.76,-9.54 -4.47,0 -9.21,1.14 -14.09,3.45 -17.42,8.22 -31.75,16.86 -43.79,26.38 -15.15,11.98 -19.08,24.76 -13.54,44.09 0.47,1.64 0.96,3.28 1.45,4.92 1.25,4.21 2.54,8.55 3.52,12.88 0.83,3.67 -0.56,8.19 -3.8,12.41 -3.78,4.92 -9.28,8.23 -14,8.41 -5.9,0.23 -11.51,-0.99 -16.22,-2.22 -11.53,-3 -26.84,-6.29 -42.83,-5.1 -12.71,0.94 -21.05,6.2 -25.48,16.08 -2.84,6.35 -2.74,12.84 0.33,20.45 2.64,6.52 6.92,11.88 11.06,17.07 1.56,1.95 3.17,3.97 4.66,6.01 3.63,4.97 7.2,10.11 10.66,15.09 3.54,5.11 7.21,10.38 10.94,15.49 6.49,8.86 12.82,14.06 20.52,16.85 5.1,1.85 10.1,2.77 15.02,2.77 10.65,0 20.95,-4.34 31.16,-13.09z"/>
   <path class="fil0" d="M695.12 201.48c7.61,-2.49 13.76,-7.36 19.7,-12.06l1.17 -0.93c11.23,-8.87 23.58,-17.74 37.74,-22.6 12.43,-4.25 25.84,-4.28 41.01,-0.06 4.33,1.2 8.7,2.58 12.92,3.9 6.25,1.96 12.7,3.99 19.18,5.52 10.98,2.6 20.59,-0 27.78,-7.52 4.53,-4.74 8.75,-9.9 12.83,-14.89 1.55,-1.9 3.1,-3.8 4.67,-5.68 4.73,-5.66 9.98,-10.51 15.69,-14.48l0 -2.31c-6.27,4.2 -12.01,9.41 -17.15,15.56 -1.57,1.89 -3.13,3.79 -4.69,5.69 -4.06,4.96 -8.25,10.09 -12.73,14.77 -6.7,7 -15.68,9.42 -25.97,6.99 -6.41,-1.52 -12.84,-3.54 -19.05,-5.49 -4.24,-1.33 -8.62,-2.71 -12.98,-3.92 -15.56,-4.32 -29.35,-4.29 -42.14,0.09 -14.43,4.95 -26.93,13.93 -38.3,22.9l-1.17 0.93c-5.81,4.61 -11.82,9.37 -19.11,11.75 -8.36,2.73 -17.11,-0.98 -20.34,-8.63 -3.53,-8.38 -0.54,-16.12 7.82,-20.19 4.05,-1.98 8.36,-3.64 12.54,-5.25 2.2,-0.85 4.4,-1.7 6.58,-2.59 21.2,-8.73 34.43,-20.38 41.63,-36.66 6.25,-14.13 7.03,-26.79 2.38,-38.69 -1.82,-4.66 -3.42,-9.35 -5.03,-14.14 -2.81,-8.35 -1.47,-15.72 3.96,-21.89 5.9,-6.7 13.45,-11.7 22.43,-14.86 11.94,-4.2 19.96,-1.84 26.81,7.87 3.98,5.64 7.94,11.28 11.9,16.92 9.24,13.17 20.22,20.89 33.56,23.58 8.18,1.65 16.58,2.77 24.71,3.86 4.28,0.57 8.55,1.15 12.82,1.79 3.85,0.58 7.69,1.22 11.52,1.87l0 -1.93c-3.74,-0.63 -7.49,-1.25 -11.24,-1.82 -4.28,-0.65 -8.56,-1.22 -12.85,-1.8 -8.1,-1.08 -16.47,-2.2 -24.59,-3.84 -12.84,-2.59 -23.43,-10.05 -32.38,-22.81 -3.96,-5.64 -7.92,-11.29 -11.89,-16.93 -5.06,-7.18 -10.89,-10.66 -18.19,-10.66 -3.28,0 -6.86,0.7 -10.8,2.09 -9.3,3.27 -17.11,8.45 -23.23,15.4 -5.92,6.72 -7.38,14.71 -4.34,23.76 1.62,4.81 3.22,9.52 5.06,14.22 4.46,11.41 3.69,23.58 -2.35,37.22 -7,15.8 -19.9,27.13 -40.62,35.66 -2.16,0.89 -4.35,1.73 -6.54,2.58 -4.21,1.62 -8.56,3.3 -12.68,5.31 -9.36,4.56 -12.71,13.24 -8.74,22.65 2.82,6.69 9.37,10.69 16.54,10.69 2.02,0 4.09,-0.32 6.14,-0.99z"/>
   <path class="fil0" d="M563.83 517.9l6.01 0c0.46,-0.41 0.91,-0.81 1.35,-1.21 13.03,-11.9 20.7,-26.89 26.48,-39.99 4.69,-10.6 10.92,-17.07 19.63,-20.37 7.86,-2.98 15.95,-3.28 23.38,-0.87 12.91,4.19 25.81,8.79 38.33,13.67 8.84,3.44 17.73,7.26 26.32,10.95 3.88,1.66 7.75,3.33 11.64,4.96l46.66 19.67c16.43,6.93 30.58,11.24 46.22,9.77 10.47,-0.99 18.29,-6.64 23.93,-11.46 2.2,-1.88 4.37,-3.8 6.54,-5.72 4.23,-3.74 8.6,-7.61 13.12,-11.07 11.56,-8.88 18.67,-21.1 21.72,-37.37 1.86,-9.93 4.78,-17.47 12.69,-21.71l0 -4.24 -0.26 0.12c-11.03,5.05 -14.29,15.06 -16.18,25.13 -2.87,15.3 -9.51,26.77 -20.29,35.05 -4.62,3.55 -9.05,7.46 -13.32,11.24 -2.15,1.9 -4.3,3.81 -6.49,5.67 -7.74,6.61 -14.47,9.87 -21.81,10.56 -14.85,1.4 -28.48,-2.78 -44.38,-9.49l-46.66 -19.67c-3.88,-1.63 -7.74,-3.3 -11.61,-4.96 -8.62,-3.7 -17.54,-7.53 -26.44,-11 -12.58,-4.9 -25.55,-9.52 -38.53,-13.74 -8.27,-2.68 -17.23,-2.36 -25.91,0.93 -9.59,3.64 -16.71,10.96 -21.76,22.4 -5.63,12.73 -13.06,27.29 -25.57,38.71 -1.63,1.48 -3.22,2.82 -4.79,4.02z"/>
   <path class="fil0" d="M848.58 389.12l0.12 0c9.13,-0 18.19,-1.47 26.97,-2.89l1.85 -0.3c3.4,-0.55 6.87,-0.94 10.3,-1.29l0 -1.92c-3.53,0.35 -7.1,0.76 -10.6,1.32l-1.86 0.3c-9.48,1.54 -19.3,3.1 -29.09,2.83 -9.65,-0.29 -16.11,-5.57 -16.87,-13.79 -0.28,-3 -0.38,-6.07 -0.49,-9.05 -0.11,-3.18 -0.22,-6.47 -0.54,-9.7 -0.99,-10.03 -1.99,-17.67 -3.23,-24.77 -1.61,-9.23 -3.63,-18.33 -5.92,-28.42 -1.96,-8.67 -3.78,-15.84 -7.75,-22.74 -4.05,-7.03 -9.79,-12.5 -15.34,-17.79 -1.83,-1.74 -3.66,-3.48 -5.43,-5.28 -0.78,-0.79 -1.58,-1.58 -2.37,-2.37 -3.93,-3.9 -8,-7.93 -10.57,-12.59 -2.99,-5.43 -3.53,-10.92 -1.52,-15.44 1.96,-4.41 6.17,-7.49 12.18,-8.91 5.14,-1.21 11.27,-0.67 17.72,1.57 5.33,1.85 10.67,3.66 16,5.48 7.17,2.44 14.35,4.87 21.49,7.39l2.04 0.71c4.23,1.46 8.59,2.98 12.36,5.24 7.02,4.21 12.02,10.88 15.29,20.39 2.75,7.99 6.8,17.31 14.5,24.42l0 -2.66c-6.58,-6.67 -10.19,-15.09 -12.7,-22.37 -3.42,-9.95 -8.69,-16.95 -16.11,-21.4 -3.94,-2.36 -8.4,-3.91 -12.72,-5.41l-2.03 -0.71c-7.16,-2.52 -14.33,-4.96 -21.51,-7.4 -5.33,-1.81 -10.67,-3.63 -15.99,-5.47 -4.41,-1.53 -8.7,-2.3 -12.67,-2.3 -2.14,0 -4.19,0.22 -6.12,0.68 -6.61,1.56 -11.27,5.01 -13.48,9.99 -2.26,5.08 -1.69,11.17 1.6,17.13 2.7,4.9 6.87,9.03 10.89,13.02 0.79,0.79 1.58,1.57 2.36,2.36 1.79,1.81 3.63,3.57 5.47,5.32 5.46,5.19 11.1,10.56 15,17.36 3.84,6.67 5.62,13.7 7.55,22.21 2.28,10.06 4.29,19.13 5.9,28.32 1.23,7.05 2.22,14.65 3.21,24.63 0.31,3.17 0.43,6.43 0.54,9.58 0.1,3 0.21,6.11 0.49,9.16 0.85,9.25 8.02,15.2 18.71,15.52 0.79,0.02 1.57,0.04 2.36,0.04z"/>
   <path class="fil0" d="M593.64 517.9l2.85 0c4.99,-4.53 9.86,-9.39 12.75,-15.93 0.9,-2.04 1.82,-4.06 2.75,-6.08 1.69,-3.69 3.44,-7.51 4.99,-11.35 3,-7.43 10.06,-14.96 21,-13.85 8,0.82 15.13,2.49 21.19,4.97 15.62,6.36 30.5,15.18 44.21,26.22 9.81,7.89 20.41,12.95 32.39,15.45 0.88,0.18 1.75,0.38 2.63,0.58l7.75 0c-3.34,-0.93 -6.67,-1.75 -9.99,-2.44 -11.69,-2.44 -22.02,-7.37 -31.59,-15.07 -13.86,-11.15 -28.89,-20.07 -44.69,-26.5 -6.23,-2.54 -13.53,-4.26 -21.71,-5.1 -0.81,-0.08 -1.6,-0.12 -2.38,-0.12 -10.62,0 -17.55,7.63 -20.59,15.16 -1.53,3.8 -3.27,7.6 -4.95,11.27 -0.93,2.03 -1.86,4.06 -2.76,6.11 -3.03,6.85 -8.49,11.88 -13.86,16.7z"/>
   <path class="fil0" d="M44.89 517.9c-1.03,-4.87 -2.12,-9.86 -3.49,-14.71 -1.09,-3.86 -0.87,-7.78 0.72,-12.7 1.79,-5.57 10.11,-8.96 17.45,-7.1 6.64,1.68 13.14,1.28 19.31,-1.19 4.63,-1.85 9.16,-4.11 13.53,-6.29 3.38,-1.68 6.87,-3.43 10.37,-4.96 8.91,-3.9 17.35,-4.25 25.83,-1.07 6.7,2.51 10.57,6.78 11.5,12.67 0.86,5.4 0.3,11.2 -0.36,16.15 -0.71,5.31 -1.66,10.68 -2.58,15.87 -0.19,1.1 -0.39,2.21 -0.59,3.32l1.94 0 0.53 -2.99c0.92,-5.21 1.88,-10.61 2.59,-15.95 0.68,-5.09 1.25,-11.05 0.35,-16.7 -1.05,-6.62 -5.33,-11.38 -12.72,-14.15 -4.04,-1.52 -8.08,-2.28 -12.14,-2.28 -4.96,0 -9.97,1.13 -15.12,3.38 -3.54,1.55 -7.05,3.3 -10.45,5 -4.34,2.17 -8.84,4.41 -13.39,6.23 -5.79,2.31 -11.9,2.69 -18.14,1.11 -8.4,-2.12 -17.61,1.79 -19.73,8.36 -1.06,3.3 -2.3,8.31 -0.73,13.81 1.32,4.66 2.37,9.47 3.37,14.19l1.95 0z"/>
   <path class="fil0" d="M392.63 496.29l-0.13 0c-0.64,0 -1.29,0.01 -1.93,0.02 -8.69,0.21 -18.89,0.88 -28.68,4.33 -4.39,1.55 -8.92,2.99 -13.3,4.38 -6.94,2.21 -14.12,4.49 -20.98,7.27 -3.47,1.41 -6.63,3.27 -9.49,5.61l3.16 0c2.18,-1.54 4.53,-2.82 7.05,-3.84 6.79,-2.76 13.94,-5.03 20.84,-7.22 4.39,-1.4 8.93,-2.84 13.35,-4.4 9.54,-3.36 19.56,-4.02 28.09,-4.22 9.2,-0.22 18.6,1.11 27.7,2.4l1.4 0.2c5.76,0.81 11.83,2.29 18.58,4.5 7.38,2.43 14.14,6.42 21.12,12.58l2.85 0c-7.74,-7.15 -15.17,-11.7 -23.37,-14.39 -6.85,-2.25 -13.04,-3.75 -18.91,-4.58l-1.4 -0.2c-8.51,-1.2 -17.27,-2.45 -25.95,-2.45z"/>
   <path class="fil0" d="M630.38 517.9l2.03 0c1.03,-2.8 2.03,-5.6 3.01,-8.36l1.26 -3.52c3.2,-8.94 11.6,-13.34 20.88,-10.95 12.09,3.11 21.46,10.15 29.8,17.29 1.18,1.01 2.35,2.04 3.53,3.07 0.94,0.82 1.88,1.65 2.83,2.48l2.94 0c-1.53,-1.29 -3.03,-2.6 -4.51,-3.91 -1.18,-1.03 -2.36,-2.07 -3.54,-3.08 -8.51,-7.29 -18.09,-14.47 -30.56,-17.68 -1.8,-0.46 -3.57,-0.69 -5.3,-0.69 -8.01,0 -14.96,4.81 -17.84,12.84l-1.26 3.52c-1.06,2.97 -2.14,5.99 -3.25,9z"/>
   <path class="fil0" d="M18.32 0l-2.46 0c-3.88,4.89 -6.73,9.98 -8.64,15.41l-1.2 3.44c-1.76,5.05 -3.58,10.26 -5.68,15.24 -0.11,0.26 -0.22,0.51 -0.33,0.75l0 4.28c0.74,-1.32 1.43,-2.75 2.08,-4.29 2.13,-5.03 3.96,-10.28 5.73,-15.36l1.2 -3.43c1.99,-5.66 5.06,-10.96 9.3,-16.04z"/>
   <path class="fil0" d="M343.52 517.9l4.6 0c18.05,-8.05 34.19,-12.56 51.94,-9.86 1.45,0.22 2.9,0.43 4.35,0.64 5.5,0.79 11.18,1.61 16.56,3.07 4.86,1.31 9.51,3.41 13.86,6.15l3.42 0c-5.19,-3.63 -10.84,-6.38 -16.79,-7.99 -5.49,-1.49 -11.23,-2.32 -16.79,-3.12 -1.45,-0.21 -2.89,-0.42 -4.34,-0.64 -3.61,-0.55 -7.15,-0.81 -10.66,-0.81 -15.36,0 -29.95,5.01 -46.17,12.55z"/>
   <path class="fil0" d="M837.19 264.35l-0.04 0c-0.74,0.01 -1.41,0.18 -2.01,0.54 -1.37,0.82 -2.14,2.5 -2.16,4.74 -0.03,3.04 -0.11,6.09 -0.19,9.14 -0.22,8.45 -0.44,17.18 0.36,25.71 1.6,17.22 5.42,33.16 11.36,47.4 4.36,10.44 13.17,16.32 25.48,17 2.97,0.16 5.96,0.22 8.94,0.22 2.99,0 5.96,-0.05 8.89,-0.11l0 -1.91c-5.83,0.11 -11.85,0.22 -17.73,-0.11 -11.69,-0.65 -19.71,-5.97 -23.82,-15.83 -5.86,-14.05 -9.63,-29.81 -11.22,-46.84 -0.78,-8.41 -0.56,-17.09 -0.35,-25.49 0.08,-3.06 0.15,-6.11 0.19,-9.16 0.01,-1.54 0.46,-2.65 1.24,-3.12 0.77,-0.46 1.92,-0.33 3.24,0.36 2.5,1.3 4.9,2.94 7.14,4.88 3.3,2.86 6.56,5.79 9.82,8.71 4.71,4.23 9.57,8.6 14.53,12.71 5.7,4.73 11.31,8.35 16.97,10.91l0 -2.1c-5.24,-2.47 -10.45,-5.88 -15.75,-10.28 -4.92,-4.09 -9.78,-8.45 -14.47,-12.66 -3.26,-2.93 -6.53,-5.86 -9.84,-8.73 -2.35,-2.04 -4.87,-3.76 -7.5,-5.13 -1.08,-0.56 -2.12,-0.84 -3.06,-0.84z"/>
   <path class="fil0" d="M371.18 517.9l7.91 0c6.76,-1.3 13.55,-1.57 20.55,-0.84 2.1,0.22 4.09,0.5 6,0.84l8.21 0c-4.2,-1.29 -8.82,-2.19 -14.01,-2.73 -2.62,-0.28 -5.21,-0.41 -7.78,-0.41 -7.06,0 -13.97,1.04 -20.89,3.14z"/>
   <path class="fil0" d="M-0 445.75l0 3.29c3.97,5.69 7.45,11.74 9.5,18.51 1.54,5.1 3.05,10.21 4.56,15.31 3.08,10.45 6.27,21.26 9.72,31.8 0.36,1.09 0.72,2.17 1.09,3.23l2.02 0c-0.44,-1.26 -0.87,-2.53 -1.29,-3.83 -3.43,-10.51 -6.62,-21.31 -9.7,-31.75 -1.51,-5.11 -3.02,-10.23 -4.56,-15.33 -2.39,-7.91 -6.63,-14.79 -11.32,-21.25z"/>
   <path class="fil0" d="M2.95 391.16l0.04 0c6.96,0 11.69,-3.61 13.75,-10.57 5.68,-19.21 5.2,-35.72 -1.45,-50.46 -3.7,-8.2 -8.82,-14.2 -15.3,-17.97l0 2.25c5.69,3.6 10.23,9.11 13.56,16.5 6.46,14.31 6.9,30.38 1.35,49.13 -2.09,7.06 -7.1,10.07 -14.89,8.98l-0.03 -0 0 1.92c1.02,0.13 2.01,0.2 2.95,0.21z"/>
   <path class="fil0" d="M868.4 517.9l1.91 0c0.15,-13.75 6.26,-25.7 12.58,-36.81 1.52,-2.67 3.2,-5.29 4.93,-7.87l0 -3.37c-2.32,3.34 -4.58,6.77 -6.59,10.3 -6.46,11.35 -12.69,23.56 -12.84,37.75z"/>
   <path class="fil0" d="M8.97 517.9l2.01 0c-3.18,-9.51 -6.62,-18.76 -10.98,-27.51l0 4.4c3.44,7.41 6.3,15.16 8.97,23.11z"/>
   <path class="fil0" d="M885.12 349.86l0.16 0c0.85,-0 1.7,-0.03 2.55,-0.09l0 -1.91c-2.39,0.19 -4.81,0.08 -7.18,-0.11 -12.73,-1.02 -20.46,-9.2 -20.17,-21.36 0.06,-2.46 0.7,-4.28 1.91,-5.4 1.11,-1.03 2.77,-1.49 4.85,-1.37 4.09,0.23 7.44,0.82 10.24,1.79 3.47,1.21 6.94,2.57 10.35,3.96l0 -2.06c-3.2,-1.29 -6.46,-2.56 -9.72,-3.7 -2.97,-1.04 -6.49,-1.66 -10.76,-1.9 -0.25,-0.02 -0.5,-0.02 -0.74,-0.02 -2.29,0 -4.14,0.63 -5.51,1.89 -1.61,1.48 -2.45,3.76 -2.53,6.76 -0.31,13.07 8.3,22.22 21.93,23.3 1.53,0.12 3.08,0.21 4.63,0.21z"/>
   <path class="fil0" d="M780.1 74.84l-0.04 0c-0.85,0 -1.64,0.16 -2.39,0.45 -1.72,0.69 -4,2.55 -5.06,7.49 -1.26,5.84 -2.13,10.66 -2.75,15.17 -0.46,3.38 -0.82,6.83 -1.17,10.16 -0.47,4.47 -0.96,9.09 -1.68,13.59 -1.58,9.81 2.6,18.08 10.39,20.58 11.42,3.66 23.18,6.86 34.55,9.96 4.19,1.14 8.38,2.28 12.56,3.44 0.41,0.11 0.82,0.15 1.23,0.15 0.33,0 0.64,-0.02 0.94,-0.04 0.36,-0.03 0.71,0.01 1.05,-0.07 0.13,0.03 0.26,0.04 0.39,0.01 16.12,-2.87 22.26,-15.44 27.17,-28.07 2.27,-5.85 0.28,-10.75 -5.48,-13.44 -4.43,-2.07 -9.26,-3.53 -13.39,-4.68 -10.55,-2.93 -20.17,-8.25 -29.4,-16.26 -6.28,-5.45 -13.08,-11.16 -20.26,-16.01 -2.4,-1.62 -4.66,-2.45 -6.67,-2.45zm46.44 79.05c-0.58,0.04 -1.11,0.08 -1.53,-0.04 -4.18,-1.17 -8.37,-2.31 -12.57,-3.45 -11.36,-3.09 -23.1,-6.29 -34.48,-9.94 -7.92,-2.53 -10.27,-11.1 -9.09,-18.46 0.73,-4.55 1.23,-9.2 1.7,-13.69 0.35,-3.32 0.71,-6.75 1.17,-10.1 0.61,-4.45 1.47,-9.23 2.72,-15.02 0.7,-3.26 2.05,-5.38 3.91,-6.12 1.91,-0.77 4.44,-0.14 7.32,1.8 7.1,4.8 13.85,10.46 20.08,15.87 9.45,8.2 19.31,13.65 30.14,16.66 4.06,1.13 8.79,2.55 13.09,4.56 4.87,2.28 6.43,6.09 4.51,11.02 -4.72,12.13 -10.59,24.2 -25.73,26.89 -0.02,0 -0.04,0.01 -0.06,0.01 -0.13,-0.03 -0.27,-0.04 -0.4,-0.04 -0.26,0 -0.52,0.04 -0.78,0.06z"/>
   <path class="fil0" d="M141.15 239.99l0.2 0c1.36,-0 2.72,-0.01 4.07,-0.02 1.66,-0.01 3.32,-0.03 4.99,-0.02l0 0c0.08,0 0.16,-0.01 0.23,-0.03 0.13,0.03 0.28,0.04 0.43,0.01 0.67,-0.14 1.35,-0.28 2.03,-0.41 1.46,-0.29 2.96,-0.58 4.43,-1 12.99,-3.66 21.21,-12.94 23.79,-26.85 1.04,-5.66 -1.67,-11.19 -7.45,-15.16 -7.31,-5.03 -15.64,-7.21 -22.83,-8.68 -12.31,-2.52 -24.88,-7.16 -39.56,-14.61 -6.06,-3.07 -12.93,-6.56 -20.85,-6.56l-0.16 0c-8.66,0.05 -14.31,4.24 -15.9,11.77 -3.06,14.51 -0.92,26.26 6.51,35.94 8.85,11.52 21.27,18.82 40.27,23.69 6.53,1.68 13.22,1.93 19.79,1.93zm4.25 -1.93c-7.79,0.06 -15.86,0.13 -23.57,-1.84 -18.56,-4.76 -30.66,-11.85 -39.24,-23.01 -7.08,-9.21 -9.09,-20.45 -6.16,-34.38 1.78,-8.42 8.62,-10.23 14.05,-10.26 7.45,-0.09 14.22,3.35 20.13,6.35 14.84,7.53 27.56,12.22 40.04,14.78 7,1.43 15.11,3.55 22.13,8.39 5.13,3.53 7.55,8.36 6.65,13.25 -2.47,13.33 -10.02,21.86 -22.43,25.36 -1.4,0.39 -2.86,0.68 -4.28,0.96 -0.69,0.13 -1.37,0.27 -2.06,0.42 -0.01,0 -0.02,0 -0.03,0.01 -0.07,-0.02 -0.15,-0.03 -0.23,-0.03 -1.65,0 -3.34,0.01 -5.01,0.02z"/>
   <path class="fil0" d="M447.92 0l-2.49 0c-1.53,1.82 -3.12,3.7 -4.77,5.45 -10.58,11.2 -23.47,19.9 -35.93,28.3 -3.93,2.65 -7.35,5.47 -10.19,8.36 -7.48,7.64 -8.47,17.21 -8.94,28.02 -0.4,9.24 -2.61,17.34 -6.77,24.76 -8.8,15.72 -22.88,26.76 -43.03,33.73 -5.33,1.84 -10.99,3.09 -16.47,4.3 -2.56,0.56 -5.11,1.12 -7.65,1.75l0 0c-0.02,-0.01 -0.05,-0.01 -0.08,-0.02 -1.48,-0.24 -2.98,-0.42 -4.48,-0.61 -3.2,-0.39 -6.5,-0.8 -9.53,-1.77 -3.8,-1.21 -7.59,-2.72 -11.26,-4.18 -4.24,-1.69 -8.63,-3.43 -13.08,-4.74 -11.56,-3.41 -23.49,-6.3 -35.01,-9.09l-2.52 -0.61c-10.49,-2.55 -22.43,-6.52 -31.53,-16.67 -6.64,-7.4 -9.56,-15.1 -8.93,-23.55 0.32,-4.35 3,-9.02 8.13,-9.02 0.03,0 0.06,0 0.08,0 5.44,0.05 11.36,0.77 18.09,2.19 14.11,2.97 25.85,1.07 35.93,-5.8 12.73,-8.68 25.36,-17.77 37.54,-27.03 9.14,-6.94 15.59,-14.64 19.72,-23.54 1.56,-3.37 2.97,-6.8 4.25,-10.25l-2.03 0c-1.19,3.19 -2.5,6.35 -3.94,9.45 -3.99,8.61 -10.25,16.07 -19.14,22.82 -12.16,9.24 -24.77,18.31 -37.46,26.97 -9.62,6.56 -20.89,8.36 -34.46,5.51 -6.86,-1.45 -12.9,-2.18 -18.47,-2.23 -5.57,-0.09 -9.66,4.38 -10.13,10.78 -0.67,8.99 2.41,17.16 9.41,24.96 9.51,10.6 22.37,14.79 32.51,17.25l2.52 0.61c11.5,2.79 23.4,5.67 34.92,9.06 4.37,1.29 8.72,3.02 12.92,4.69 3.7,1.47 7.52,2.99 11.38,4.22 3.19,1.02 6.59,1.44 9.87,1.84 1.48,0.18 2.95,0.36 4.41,0.6 0.05,0.01 0.1,0.01 0.15,0.01 0.08,0 0.15,-0.01 0.23,-0.03 0.14,0.03 0.29,0.04 0.46,0 2.52,-0.62 5.06,-1.18 7.6,-1.74 5.53,-1.22 11.26,-2.48 16.69,-4.36 20.61,-7.13 35.03,-18.45 44.07,-34.6 4.3,-7.69 6.6,-16.06 7.01,-25.61 0.45,-10.41 1.4,-19.62 8.4,-26.77 2.75,-2.81 6.07,-5.54 9.89,-8.12 12.55,-8.47 25.52,-17.22 36.25,-28.57 1.72,-1.81 3.35,-3.75 4.92,-5.62l0.96 -1.14z"/>
   <path class="fil0" d="M513.4 119.14c6.46,-1.36 12.1,-4.56 17.55,-7.64 1.12,-0.64 2.25,-1.27 3.39,-1.9 6.09,-3.35 12.8,-6.01 19.4,-7.7 11.03,-2.83 22.7,-6.42 33.25,-13.47 9.99,-6.68 21.84,-12.46 37.29,-18.18 11.71,-4.34 18.95,-12.21 22.13,-24.06 4.47,-16.68 4.98,-30.2 1.6,-42.56 -0.34,-1.24 -0.71,-2.45 -1.1,-3.63l-2.01 0c0.46,1.34 0.89,2.72 1.28,4.13 3.29,12.02 2.78,25.22 -1.61,41.56 -3.04,11.36 -9.7,18.59 -20.95,22.76 -15.59,5.78 -27.57,11.62 -37.69,18.39 -10.32,6.9 -21.79,10.42 -32.66,13.21 -6.75,1.73 -13.61,4.45 -19.84,7.87 -1.15,0.63 -2.28,1.27 -3.41,1.91 -5.57,3.15 -10.84,6.13 -17.01,7.44l-0.03 0.01c-0.06,-0.01 -0.12,-0.02 -0.17,-0.03 -1.59,-0.09 -3.19,-0.18 -4.78,-0.27 -3.59,-0.19 -7.17,-0.38 -10.75,-0.67l-1.78 -0.14c-5.72,-0.46 -11.63,-0.93 -17.38,-1.71 -6.61,-0.9 -12.56,-5.87 -13.86,-11.56 -1.64,-7.19 -0.66,-14.57 3.07,-23.24 4.08,-9.46 11.75,-15.95 19.17,-22.23l1.8 -1.52c11.29,-9.62 18.02,-21.69 23.61,-33.29 1.19,-2.47 2.35,-4.96 3.51,-7.44 2.35,-5.05 4.74,-10.18 7.41,-15.17l-2.16 0c-2.5,4.74 -4.75,9.59 -6.98,14.36 -1.16,2.48 -2.31,4.96 -3.5,7.42 -5.5,11.42 -12.11,23.27 -23.13,32.67l-1.79 1.52c-7.59,6.42 -15.43,13.07 -19.69,22.94 -3.9,9.06 -4.91,16.81 -3.18,24.42 1.46,6.43 8.11,12.03 15.46,13.03 5.81,0.79 11.74,1.27 17.49,1.73l1.78 0.14c3.6,0.29 7.2,0.48 10.8,0.68 1.59,0.09 3.18,0.17 4.77,0.26 0.11,0.01 0.2,-0 0.29,-0.03 0.07,0.02 0.15,0.03 0.23,0.03 0.07,0 0.13,-0.01 0.2,-0.02z"/>
   <path class="fil0" d="M324.91 114.57c1.57,-0.33 3.16,-0.63 4.75,-0.92 3.45,-0.63 7.02,-1.29 10.42,-2.39 14.86,-4.85 30.6,-19.92 30.04,-41.57 -0.15,-5.76 0.17,-12.02 0.92,-18.61 0.71,-6.19 4.16,-11.5 10.55,-16.23 3.83,-2.84 7.82,-5.62 11.68,-8.32 5.68,-3.96 11.54,-8.06 17.06,-12.44 5.22,-4.14 9.3,-8.85 12.21,-14.09l-2.2 0c-2.76,4.65 -6.49,8.86 -11.19,12.6 -5.47,4.34 -11.31,8.42 -16.96,12.37 -3.87,2.7 -7.87,5.49 -11.72,8.35 -6.83,5.07 -10.53,10.81 -11.31,17.55 -0.77,6.68 -1.08,13.04 -0.94,18.88 0.54,20.67 -14.51,35.07 -28.72,39.71 -3.27,1.07 -6.78,1.71 -10.17,2.33 -1.61,0.29 -3.21,0.59 -4.8,0.93 -0.01,0 -0.02,0 -0.03,0.01 -0.03,-0.01 -0.06,-0.01 -0.09,-0.02 -1.29,-0.19 -2.59,-0.36 -3.89,-0.53 -2.78,-0.36 -5.64,-0.73 -8.39,-1.34 -12.89,-2.86 -25.72,-7.77 -38.14,-14.6 -5.99,-3.29 -6.7,-5.94 -3.29,-12.33 7.81,-14.65 18.01,-25.45 31.16,-33.04l4.35 -2.51c5.8,-3.33 11.8,-6.78 17.61,-10.35 7.4,-4.55 11.56,-10.94 12.36,-18.98 0.18,-1.78 0.37,-3.56 0.57,-5.34 0.49,-4.48 1.01,-9.1 1.16,-13.69l-1.91 0c-0.15,4.5 -0.66,9.06 -1.15,13.48 -0.2,1.79 -0.4,3.57 -0.57,5.36 -0.73,7.42 -4.59,13.32 -11.46,17.54 -5.78,3.55 -11.77,6.99 -17.56,10.32l-4.36 2.51c-13.29,7.66 -24.02,19.03 -31.89,33.8 -3.91,7.32 -2.88,11.08 4.05,14.89 12.57,6.91 25.57,11.89 38.64,14.79 2.83,0.63 5.74,1 8.56,1.37 1.29,0.17 2.57,0.33 3.86,0.52 0.12,0.02 0.24,0.01 0.37,-0.02 0.07,0.02 0.15,0.03 0.23,0.03 0.07,0 0.13,-0.01 0.2,-0.02z"/>
   <path class="fil0" d="M430.9 200.4l-0.08 0c-4.26,0 -8.49,0.61 -12.64,1.83 -10.8,3.17 -17.55,14.97 -17.06,24 0.06,1.1 0.08,2.23 0.1,3.35 0.08,3.75 0.16,7.63 1.49,11.05 3.71,9.54 11.69,14.69 24.4,15.76 0.64,0.05 1.27,0.07 1.91,0.07 0.55,0 1.09,-0.01 1.63,-0.02 0.2,-0 0.39,0 0.59,0.01 0.42,0.01 0.83,0.03 1.22,-0.06 0.14,0.03 0.29,0.04 0.44,0 8.46,-1.96 14.28,-5.14 18.87,-10.3 7.43,-8.35 11.07,-23.48 3.19,-35.07 -3.98,-5.85 -10.37,-9.32 -18.98,-10.32 -1.69,-0.2 -3.38,-0.29 -5.07,-0.3zm-0.3 54.13c-1.15,0.03 -2.25,0.05 -3.33,-0.04 -11.91,-1 -19.36,-5.76 -22.78,-14.55 -1.21,-3.1 -1.29,-6.81 -1.36,-10.4 -0.02,-1.15 -0.05,-2.29 -0.11,-3.41 -0.43,-8.14 5.91,-19.2 15.7,-22.07 5.58,-1.63 11.31,-2.12 17.04,-1.46 8.15,0.94 13.91,4.05 17.62,9.5 7.07,10.4 4.01,24.81 -3.04,32.74 -4.31,4.85 -9.82,7.84 -17.87,9.71l-0.01 0c-0.2,-0.05 -0.42,-0.07 -0.64,-0.07 -0.4,0 -0.82,0.05 -1.21,0.06z"/>
   <path class="fil0" d="M326.31 88.94c0.14,0.04 0.3,0.04 0.45,0 3.6,-0.85 7.68,-2.07 10.64,-5.79 2.19,-2.75 2.98,-6.16 2.19,-9.36 -0.76,-3.04 -2.83,-5.43 -5.82,-6.74 -1.91,-0.83 -4.03,-1.22 -6.17,-1.22 -5.57,0 -11.31,2.65 -14.14,7.08 -1.6,2.49 -2.07,4.91 -1.4,7.19 0.81,2.76 3.25,5.08 7.25,6.91 1.45,0.66 3.01,1.04 4.51,1.41 0.67,0.16 1.34,0.33 2,0.52 0.09,0.02 0.18,0.04 0.26,0.04 0.08,0 0.15,-0.01 0.23,-0.03zm6.69 -20.14c2.44,1.06 4.12,3 4.73,5.45 0.65,2.62 -0.02,5.43 -1.83,7.72 -2.33,2.93 -5.39,4.13 -9.58,5.12l-0.01 0c-0.67,-0.19 -1.36,-0.36 -2.04,-0.53 -1.49,-0.36 -2.89,-0.7 -4.17,-1.29 -3.47,-1.59 -5.56,-3.51 -6.21,-5.71 -0.51,-1.72 -0.11,-3.61 1.18,-5.62 2.46,-3.84 7.63,-6.19 12.58,-6.19 1.87,0 3.71,0.34 5.36,1.05z"/>
   <path class="fil0" d="M509.89 88.08l0.33 0c0.86,-0 1.71,-0.01 2.57,-0.02 0.9,-0.01 1.8,-0.02 2.7,-0.02 0.08,0 0.16,-0.01 0.23,-0.03 0.16,0.04 0.34,0.04 0.51,-0.01 11.52,-3.56 25,-7.28 39,-6.35 10.78,0.71 21.43,-1.85 32.58,-7.83 5.28,-2.84 10.76,-5.52 16.06,-8.12 5.24,-2.57 10.66,-5.22 15.89,-8.03 10.83,-5.8 15.61,-21.97 13.28,-33.45 -1.09,-5.38 -2.22,-10.94 -4.21,-16.12 -1.13,-2.94 -2.56,-5.63 -4.34,-8.11l-2.39 0c2.08,2.65 3.71,5.56 4.95,8.79 1.93,5.03 3.04,10.51 4.12,15.83 2.15,10.57 -2.38,26.06 -12.31,31.38 -5.21,2.79 -10.61,5.44 -15.83,8 -5.32,2.61 -10.81,5.3 -16.12,8.15 -9.65,5.18 -18.91,7.72 -28.18,7.72 -1.12,0 -2.24,-0.04 -3.36,-0.11 -14.31,-0.95 -27.96,2.81 -39.64,6.41 -0.07,-0.02 -0.15,-0.03 -0.23,-0.03 -0.91,0 -1.81,0.01 -2.72,0.02 -1.98,0.02 -3.96,0.04 -5.94,-0.03 -2.95,-0.1 -5.41,-1.3 -6.77,-3.28 -1.39,-2.04 -1.57,-4.72 -0.51,-7.75 0.95,-2.71 2.77,-5.31 4.39,-7.54 8.67,-11.85 15.55,-25.89 21.65,-44.18 3.03,-9.09 6.92,-16.83 11.76,-23.37l-2.36 0c-4.57,6.45 -8.28,14 -11.21,22.77 -6.04,18.1 -12.84,31.97 -21.38,43.66 -1.71,2.34 -3.62,5.08 -4.65,8.03 -1.25,3.57 -0.99,6.93 0.74,9.46 1.71,2.49 4.72,3.99 8.28,4.11 1.04,0.04 2.09,0.05 3.13,0.05z"/>
   <path class="fil0" d="M591.96 0l-4.66 0c9.96,3.83 18.68,11.55 22.81,21.19 4.21,9.83 1.74,19.72 -6.44,25.81 -7.4,5.51 -16.11,9.34 -26.64,11.73 -0.01,0 -0.01,0 -0.02,0 -0.07,-0.02 -0.15,-0.03 -0.23,-0.03l-1.72 0.01c-1.25,0.01 -2.5,0.02 -3.74,-0.02 -8.43,-0.23 -15.58,-3.77 -20.68,-10.23 -8.1,-10.27 -9.02,-21.91 -2.73,-34.59 3.26,-6.58 7.74,-11.22 13.35,-13.87l-3.84 0c-4.61,2.96 -8.39,7.34 -11.21,13.03 -6.65,13.4 -5.66,25.71 2.94,36.61 5.46,6.93 13.11,10.72 22.13,10.96 0.7,0.02 1.4,0.02 2.1,0.02 0.57,0 1.14,-0 1.7,-0.01l1.71 -0.01c0.08,0 0.16,-0.01 0.23,-0.03 0.13,0.03 0.28,0.04 0.44,0 10.79,-2.44 19.74,-6.39 27.35,-12.06 8.93,-6.65 11.63,-17.41 7.05,-28.09 -3.76,-8.79 -11.17,-16.05 -19.9,-20.44z"/>
   <path class="fil0" d="M291.1 288.4c1.46,-0.38 2.93,-0.73 4.39,-1.08 3.25,-0.78 6.61,-1.58 9.84,-2.66 4.05,-1.35 6.74,-4.67 7.21,-8.88 0.51,-4.64 -1.7,-9.17 -5.63,-11.54 -0.94,-0.56 -1.86,-1.17 -2.79,-1.77 -2.07,-1.34 -4.2,-2.73 -6.51,-3.71 -8.39,-3.54 -13.54,-10.11 -15.32,-19.52 -2.72,-14.41 -8.63,-27.86 -18.05,-41.11 -4.35,-6.12 -8.54,-12.52 -12.59,-18.71 -1.3,-1.98 -2.59,-3.96 -3.9,-5.94 -8.99,-13.61 -23.14,-18.13 -34.46,-20.54 -15.05,-3.21 -32.44,-7.92 -47.22,-18.59 -8.22,-5.94 -12.93,-14.62 -17.04,-23 -5.49,-11.18 -11.22,-21.89 -20.92,-29.97 -4.4,-3.67 -9.24,-6.91 -15.16,-6.91 -1.55,0 -3.18,0.22 -4.88,0.72 -5.89,1.71 -9.03,6.27 -11.1,10.06 -0.51,0.93 -1.01,1.87 -1.52,2.8 -1.53,2.85 -3.12,5.81 -4.89,8.56 -3.63,5.65 -9.91,8.08 -16.8,6.51l-3.27 -0.76c-5.53,-1.29 -11.24,-2.62 -16.96,-3.3 -9.46,-1.14 -17.01,3.3 -22.42,13.2 -4.44,8.13 -6.78,16.43 -6.97,24.67 -0.03,1.39 -0.07,2.79 -0.11,4.19 -0.18,6.47 -0.37,13.16 0.24,19.69 0.62,6.64 3.41,13.41 8.3,20.12 7.15,9.81 12.42,21.4 16.13,35.44 3.54,13.42 12.04,22.49 26.75,28.54 9.42,3.88 21.96,8.63 35.44,10.98 4.84,0.85 9.7,1.63 14.55,2.41 5.37,0.86 10.73,1.73 16.08,2.68 7.86,1.4 15.63,3.02 22.84,4.56 12.03,2.56 24.52,1.11 37.12,-4.34 21.45,-9.28 46.02,-4.62 62.59,11.86l1.53 1.53c5.03,5.05 10.23,10.28 17.67,12.39 1.58,0.45 3.22,0.74 4.8,1.02 0.71,0.13 1.42,0.25 2.13,0.39 0.14,0.03 0.28,0.02 0.42,-0.01 0.07,0.02 0.15,0.03 0.23,0.03 0.08,0 0.16,-0.01 0.24,-0.03zm-164.22 -205.55c9.42,7.84 15.04,18.36 20.43,29.35 4.22,8.6 9.06,17.51 17.64,23.71 15.07,10.88 32.69,15.66 47.94,18.91 10.97,2.33 24.66,6.69 33.26,19.72 1.3,1.97 2.6,3.95 3.89,5.93 4.06,6.21 8.26,12.63 12.63,18.77 9.26,13.01 15.06,26.21 17.73,40.35 1.9,10.07 7.44,17.11 16.45,20.92 2.16,0.91 4.22,2.26 6.22,3.55 0.94,0.61 1.88,1.23 2.84,1.8 3.24,1.95 5.14,5.85 4.72,9.69 -0.38,3.5 -2.54,6.16 -5.92,7.28 -3.15,1.05 -6.47,1.85 -9.67,2.61 -1.48,0.35 -2.95,0.71 -4.42,1.08 -0.01,-0 -0.03,-0.01 -0.04,-0.01 -0.72,-0.14 -1.44,-0.27 -2.17,-0.4 -1.53,-0.27 -3.12,-0.56 -4.61,-0.98 -6.96,-1.97 -11.76,-6.79 -16.84,-11.9l-1.53 -1.54c-17.13,-17.03 -42.52,-21.84 -64.69,-12.26 -12.22,5.28 -24.32,6.7 -35.96,4.22 -7.23,-1.54 -15.02,-3.16 -22.91,-4.57 -5.36,-0.95 -10.74,-1.82 -16.12,-2.68 -4.85,-0.78 -9.69,-1.56 -14.53,-2.4 -13.3,-2.32 -25.71,-7.02 -35.04,-10.87 -14.11,-5.81 -22.26,-14.47 -25.64,-27.27 -3.77,-14.28 -9.15,-26.08 -16.43,-36.08 -4.68,-6.43 -7.36,-12.88 -7.94,-19.18 -0.6,-6.42 -0.41,-13.05 -0.24,-19.46 0.04,-1.4 0.08,-2.8 0.11,-4.2 0.18,-7.94 2.44,-15.95 6.73,-23.8 5.06,-9.27 11.77,-13.28 20.52,-12.22 5.62,0.67 11.28,1.99 16.75,3.27l3.28 0.76c7.59,1.73 14.81,-1.08 18.82,-7.34 1.81,-2.81 3.41,-5.8 4.96,-8.68 0.5,-0.93 1,-1.86 1.51,-2.79 2.86,-5.22 5.84,-7.96 9.96,-9.15 1.49,-0.43 2.92,-0.63 4.28,-0.63 5.4,0 9.9,3.03 14.01,6.45z"/>
   <path class="fil0" d="M136.91 351.61l0.26 0c0.66,-0 1.33,-0.01 1.98,-0.02 0.7,-0.01 1.41,-0.02 2.11,-0.02 0.08,0 0.15,-0.01 0.23,-0.03 0.17,0.04 0.35,0.04 0.53,-0.02 1.31,-0.44 2.65,-0.78 4,-1.13 3.85,-1 7.82,-2.03 10.97,-5.07 2.64,-2.55 3.61,-4.17 3.23,-5.42 -0.67,-2.13 -3.04,-4.02 -4.94,-4.7 -3.28,-1.19 -6.66,-1.79 -10.24,-1.79 -4.35,0 -9,0.88 -14.13,2.65 -3.63,1.25 -5.89,4.29 -6.04,8.13 -0.14,3.44 5.32,7.13 9.49,7.36 0.85,0.05 1.71,0.07 2.57,0.07zm2.21 -1.93c-1.54,0.02 -3.13,0.05 -4.67,-0.04 -3.39,-0.19 -7.77,-3.26 -7.69,-5.39 0.12,-3.03 1.9,-5.42 4.76,-6.4 8.93,-3.07 16.27,-3.35 23.1,-0.87 1.64,0.59 3.36,2.19 3.76,3.45 0,0.03 0.04,0.84 -2.72,3.51 -2.79,2.7 -6.35,3.62 -10.12,4.6 -1.36,0.35 -2.73,0.71 -4.05,1.15 -0.07,-0.02 -0.15,-0.03 -0.22,-0.03 -0.71,0 -1.43,0.01 -2.14,0.02z"/>
   <path class="fil0" d="M396.52 0l-2.23 0c-0.12,0.19 -0.24,0.38 -0.37,0.56 -4.78,7.08 -11.63,11.74 -20.94,14.24 -0.11,-0.03 -0.22,-0.03 -0.33,-0.02 -5.6,0.59 -9.61,-1.22 -12.35,-5.52 -1.65,-2.58 -2.68,-5.84 -3.1,-9.26l-1.89 0c0.43,3.79 1.56,7.43 3.38,10.29 2.75,4.32 6.79,6.51 12.01,6.51 0.7,0 1.41,-0.04 2.15,-0.12 0.04,-0 0.09,-0.01 0.13,-0.02 0.15,0.03 0.31,0.04 0.48,-0.01 9.79,-2.62 17,-7.54 22.05,-15.02 0.37,-0.54 0.71,-1.09 1.02,-1.63z"/>
   <path class="fil0" d="M161.14 16.66c9.83,-2.18 9.46,-10.42 8.17,-16.66l-1.95 0c1.92,8.91 -0.07,13.34 -6.64,14.8 -0.01,0 -0.02,0 -0.02,0.01 -0.04,-0.01 -0.07,-0.02 -0.1,-0.02 -1.45,-0.19 -2.91,-0.35 -4.37,-0.51 -3.07,-0.33 -6.24,-0.67 -9.25,-1.37 -11.93,-2.8 -23.83,-7.05 -36.12,-12.91l-4.35 0c13.67,6.82 26.82,11.67 40.03,14.76 3.12,0.73 6.35,1.08 9.48,1.41 1.44,0.15 2.89,0.31 4.32,0.5 0.12,0.01 0.24,0.01 0.36,-0.02 0.07,0.02 0.15,0.03 0.23,0.03 0.07,0 0.14,-0.01 0.21,-0.02z"/>
   <path class="fil0" d="M778.86 353.34c10.23,-3.63 14.14,-10.71 11.93,-21.65 -1.23,-6.1 -2.92,-10.96 -5.16,-14.87 -2.79,-4.86 -6.1,-7.43 -9.84,-7.66 -0.17,-0.01 -0.33,-0.02 -0.5,-0.02 -3.55,0 -7.25,2.24 -10.21,6.21 -6.82,9.15 -7.25,21.05 -1.09,30.31 3.21,4.84 7.8,7.36 14.04,7.72 0.1,0.01 0.2,-0 0.28,-0.03 0.07,0.02 0.15,0.03 0.23,0.03 0.11,0 0.21,-0.02 0.32,-0.06zm-3.18 -42.27c3.06,0.18 5.85,2.44 8.3,6.71 2.14,3.73 3.76,8.4 4.95,14.3 2,9.96 -1.37,16.14 -10.62,19.45 -0.05,-0.01 -0.11,-0.02 -0.17,-0.02 -5.59,-0.32 -9.7,-2.57 -12.56,-6.87 -6.93,-10.42 -3.77,-21.66 1.04,-28.11 2.6,-3.49 5.73,-5.44 8.7,-5.44 0.12,0 0.24,0 0.36,0.01z"/>
   <path class="fil0" d="M135.22 370.81l0.26 0c0.91,-0 1.82,-0.02 2.72,-0.03 1.63,-0.02 3.26,-0.05 4.87,0 0.1,0.01 0.17,-0.01 0.26,-0.03 0.15,0.03 0.31,0.04 0.47,-0 3.09,-0.81 6.19,-1.6 9.29,-2.39 7.32,-1.87 14.89,-3.8 22.28,-5.92 7.85,-2.25 13.57,-6.09 17.48,-11.74 3.13,-4.52 4.35,-9.8 3.41,-14.86 -0.91,-4.92 -3.74,-9.14 -8.19,-12.18 -6.45,-4.41 -13.43,-6.33 -21.93,-7.85 -8.88,-1.59 -17.88,-2.03 -26.53,-2.03 -5.75,0 -11.35,0.2 -16.67,0.38 -5.08,0.18 -12.58,1.06 -19.47,4.26 -9.94,4.61 -12.54,12.02 -8.21,23.31 5.98,15.57 17.09,25.41 32.12,28.43 2.57,0.52 5.22,0.63 7.84,0.64zm30.58 -53.11c8.26,1.47 15.02,3.32 21.19,7.54 4.02,2.75 6.58,6.54 7.39,10.96 0.84,4.56 -0.26,9.32 -3.1,13.43 -3.65,5.27 -9.03,8.87 -16.44,10.99 -7.36,2.11 -14.92,4.04 -22.23,5.9 -3.1,0.79 -6.2,1.58 -9.29,2.39 -0.06,-0.02 -0.13,-0.02 -0.2,-0.03 -1.64,-0.05 -3.3,-0.02 -4.95,-0 -3.47,0.05 -7.07,0.1 -10.41,-0.57 -14.57,-2.93 -24.9,-12.1 -30.72,-27.25 -4.01,-10.43 -1.85,-16.68 7.23,-20.9 6.6,-3.06 13.83,-3.91 18.74,-4.08 5.3,-0.19 10.88,-0.38 16.6,-0.38 8.57,0 17.46,0.44 26.21,2z"/>
   <path class="fil0" d="M140.97 384.49c2.12,-0.38 4.24,-0.72 6.36,-1.07 4.7,-0.77 9.55,-1.56 14.27,-2.68l1.98 -0.47c10.04,-2.37 20.43,-4.82 29.87,-10.02 16,-8.81 23.33,-24.84 19.11,-41.82 -1.99,-8 -7.7,-13.61 -17.46,-17.12 -9.55,-3.44 -20.22,-5.81 -33.59,-7.46 -4.79,-0.59 -9.65,-1.39 -14.36,-2.16 -5.03,-0.82 -10.24,-1.68 -15.4,-2.29 -5.41,-0.64 -10.43,-0.96 -15.17,-0.96 -8.12,0 -15.38,0.95 -22.22,2.86 -8.79,2.46 -15.41,6.71 -19.7,12.64 -5.18,7.16 -5.52,15.38 -1.04,25.15 4.43,9.66 11.62,17.12 18.06,23.14 7.97,7.46 17.79,15.58 30.12,19.32 4.11,1.25 8.47,1.74 12.69,2.21 1.91,0.21 3.81,0.43 5.7,0.71 0.13,0.02 0.25,0.01 0.37,-0.02 0.08,0.02 0.15,0.03 0.23,0.03 0.05,0 0.11,-0.01 0.16,-0.02zm-9.43 -83.18c5.11,0.6 10.3,1.45 15.31,2.27 4.72,0.77 9.6,1.57 14.43,2.17 13.22,1.64 23.77,3.98 33.17,7.37 9.12,3.29 14.43,8.45 16.26,15.79 4,16.1 -2.97,31.31 -18.18,39.69 -9.21,5.08 -19.47,7.49 -29.39,9.83l-1.99 0.47c-4.65,1.1 -9.47,1.89 -14.13,2.65 -2.13,0.35 -4.26,0.69 -6.39,1.07 -0.02,0 -0.04,0.01 -0.06,0.01 -0.03,-0.01 -0.06,-0.01 -0.09,-0.02 -1.91,-0.29 -3.84,-0.5 -5.76,-0.72 -4.14,-0.47 -8.41,-0.95 -12.36,-2.14 -11.96,-3.63 -21.56,-11.58 -29.37,-18.89 -6.31,-5.9 -13.35,-13.19 -17.63,-22.55 -4.17,-9.09 -3.89,-16.69 0.85,-23.23 4.08,-5.65 10.19,-9.55 18.67,-11.92 6.67,-1.87 13.76,-2.79 21.71,-2.79 4.66,0 9.61,0.32 14.95,0.95z"/>
   <path class="fil0" d="M764.65 269.1l-0.04 0c-3.96,0 -8.09,3.47 -9.79,8.48 -1.79,5.24 -3.5,10.6 -5.16,15.78 -1.49,4.65 -2.97,9.31 -4.53,13.94 -4.17,12.41 -6.02,25.31 -5.51,38.32 0.42,10.7 3.41,20.4 8.88,28.82 5.07,7.8 13.29,9.46 19.89,10.03 1.11,0.1 2.23,0.13 3.33,0.13 0.92,0 1.84,-0.02 2.74,-0.04 0.9,-0.02 1.8,-0.04 2.7,-0.04 0.08,0 0.16,-0.01 0.23,-0.03 0.15,0.04 0.32,0.04 0.49,-0.01l2.86 -0.81c2.26,-0.64 4.51,-1.28 6.76,-1.94 11.46,-3.38 22.73,-18.19 24.6,-32.33 1.61,-12.14 -1.5,-23.5 -4.5,-34.49 -0.76,-2.79 -1.53,-5.58 -2.22,-8.38 -2.05,-8.35 -5.57,-15.6 -10.46,-21.54 -6.67,-8.09 -15.89,-13.09 -29.02,-15.74 -0.42,-0.08 -0.84,-0.13 -1.26,-0.13zm9.78 113.54c-1.94,0.04 -3.94,0.09 -5.86,-0.08 -9.16,-0.79 -14.85,-3.62 -18.46,-9.17 -5.28,-8.13 -8.17,-17.5 -8.58,-27.85 -0.51,-12.79 1.31,-25.45 5.41,-37.64 1.56,-4.64 3.05,-9.3 4.54,-13.96 1.65,-5.17 3.36,-10.52 5.14,-15.75 1.57,-4.59 5.55,-7.76 8.91,-7.09 12.85,2.59 21.46,7.24 27.92,15.08 4.78,5.8 8.08,12.6 10.09,20.78 0.69,2.82 1.46,5.62 2.23,8.43 2.96,10.81 6.01,21.98 4.45,33.74 -1.79,13.48 -12.44,27.57 -23.25,30.75 -2.24,0.66 -4.49,1.3 -6.74,1.93l-2.83 0.8c-0.07,-0.02 -0.15,-0.03 -0.23,-0.03 -0.91,0 -1.83,0.02 -2.74,0.04z"/>
   <path class="fil0" d="M145.55 398.21c2.05,-0.38 4.1,-0.72 6.16,-1.06 4.47,-0.74 9.1,-1.51 13.56,-2.69 16.46,-4.35 32.33,-9.14 45.62,-19.82 10.82,-8.69 17.11,-20.69 19.24,-36.69 1.16,-8.74 -0.28,-16.27 -4.39,-23.02 -4.87,-7.99 -12.71,-12.75 -23.96,-14.58 -24.95,-4.05 -47.09,-8.18 -67.7,-12.64 -7.5,-1.62 -14.97,-2.43 -22.4,-2.43 -12.41,0 -24.67,2.26 -36.66,6.77 -16.48,6.2 -23.62,19.02 -21.23,38.1 2.35,18.74 14.94,29.96 25.64,37.64 8.23,5.91 19.17,13.59 30.75,20.57 9.46,5.7 18.57,8.64 27.83,8.99 1.52,0.06 3.08,0.31 4.6,0.55 0.73,0.12 1.45,0.23 2.17,0.33 0.12,0.01 0.24,0.01 0.36,-0.02 0.07,0.02 0.15,0.03 0.23,0.03 0.06,0 0.12,-0.01 0.18,-0.02zm-11.87 -108.64c20.64,4.47 42.82,8.6 67.8,12.66 10.66,1.73 18.07,6.21 22.63,13.69 3.88,6.36 5.23,13.48 4.13,21.78 -2.06,15.5 -8.13,27.09 -18.54,35.46 -13,10.44 -28.66,15.17 -44.91,19.47 -4.38,1.16 -8.96,1.92 -13.39,2.65 -2.07,0.34 -4.14,0.69 -6.2,1.07 -0.02,0 -0.04,0.01 -0.06,0.01 -0.04,-0.01 -0.07,-0.01 -0.1,-0.02 -0.71,-0.1 -1.41,-0.21 -2.13,-0.32 -1.57,-0.25 -3.19,-0.51 -4.83,-0.57 -8.93,-0.33 -17.73,-3.19 -26.91,-8.71 -11.52,-6.94 -22.41,-14.59 -30.62,-20.48 -10.39,-7.46 -22.6,-18.33 -24.86,-36.34 -2.3,-18.35 4.24,-30.15 20.01,-36.08 11.77,-4.43 23.81,-6.65 35.99,-6.65 7.29,0 14.63,0.79 21.99,2.39z"/>
   <path class="fil0" d="M664.91 316.54l-0.06 0c-8.63,0 -16.16,4.35 -22.43,12.96 -6.31,8.67 -10.12,18.83 -11.65,31.06 -0.89,7.1 -1.47,12.93 -1.82,18.35 -0.67,10.09 6.91,18.27 14.74,21.15 6.84,2.51 13.82,3.74 21.21,3.74 1.13,0 2.28,-0.03 3.43,-0.09 0.06,-0 0.13,-0.01 0.18,-0.03 0.13,0.03 0.27,0.04 0.4,0.01 17.57,-3.27 22.39,-16.81 24.98,-30.96 2.14,-11.71 1.51,-23.85 -1.9,-36.08 -3.1,-11.17 -11.1,-18.02 -23.14,-19.81 -1.34,-0.2 -2.66,-0.3 -3.96,-0.31zm3.33 85.27c-8.45,0.42 -16.25,-0.73 -23.89,-3.54 -6.99,-2.57 -14.1,-10.18 -13.5,-19.23 0.36,-5.38 0.93,-11.18 1.81,-18.24 1.49,-11.9 5.18,-21.77 11.29,-30.17 6.77,-9.31 15.07,-13.31 24.64,-11.9 11.23,1.67 18.69,8.04 21.58,18.43 3.32,11.95 3.95,23.8 1.86,35.23 -2.47,13.48 -7.02,26.38 -23.45,29.43 -0.02,0 -0.04,0.01 -0.06,0.01 -0.07,-0.02 -0.14,-0.03 -0.21,-0.03 -0.02,0 -0.04,0 -0.06,0z"/>
   <path class="fil0" d="M97.98 273.65l-0.12 0c-2.42,0 -4.73,0.08 -6.98,0.23 -1.59,0.11 -3.18,0.2 -4.78,0.29 -11.01,0.63 -22.4,1.29 -32.76,7.34 -8.75,5.11 -13.62,12.94 -14.46,23.28 -1.26,15.34 2.01,29.98 4.99,41.02 3.7,13.68 11.68,24.05 23.71,30.82 13.91,7.83 27.99,15.91 41.61,23.72l12.84 7.36c9.24,5.29 19.32,7.97 30,7.97 0.99,0 1.99,-0.02 3,-0.07 0.06,-0 0.13,-0.01 0.19,-0.03 0.15,0.04 0.32,0.04 0.48,-0.01 2.09,-0.57 4.22,-1.08 6.34,-1.58 4.62,-1.1 9.4,-2.24 13.85,-4.08 18.09,-7.5 34.93,-17.56 50.04,-29.9 4.83,-3.94 8.59,-9.46 11.64,-14.34 2.5,-4 4.6,-8.3 6.63,-12.46 1.18,-2.41 2.36,-4.82 3.61,-7.18 5.2,-9.8 5.2,-19.38 0.01,-29.28 -5.45,-10.37 -12.17,-20.58 -24.36,-25.07 -5.11,-1.88 -9.53,-2.93 -13.51,-3.21 -4.1,-0.29 -8.29,-0.32 -12.34,-0.34 -5.86,-0.04 -11.92,-0.07 -17.74,-0.92 -7.24,-1.06 -14.52,-2.87 -21.55,-4.62 -4.62,-1.15 -9.39,-2.33 -14.13,-3.3 -10.83,-2.22 -19.73,-3.66 -28,-4.54 -7.03,-0.75 -12.9,-1.11 -18.21,-1.11zm56.96 140.06c-11.43,0.53 -22.19,-2.05 -31.97,-7.65l-12.84 -7.36c-13.62,-7.81 -27.71,-15.89 -41.62,-23.72 -11.57,-6.51 -19.25,-16.49 -22.81,-29.66 -4.37,-16.18 -5.89,-28.62 -4.93,-40.36 0.79,-9.68 5.34,-17.01 13.52,-21.79 9.96,-5.82 21.12,-6.47 31.91,-7.09 1.6,-0.09 3.2,-0.18 4.8,-0.29 7.08,-0.48 14.79,-0.21 24.98,0.87 8.21,0.87 17.05,2.31 27.82,4.51 4.7,0.96 9.45,2.14 14.05,3.29 7.08,1.76 14.4,3.58 21.73,4.66 5.95,0.87 12.08,0.91 18.01,0.94 4.02,0.02 8.17,0.05 12.22,0.34 3.8,0.27 8.05,1.28 12.99,3.1 10.94,4.03 17.24,12.57 23.33,24.16 4.89,9.3 4.89,18.3 -0,27.5 -1.26,2.38 -2.45,4.81 -3.64,7.23 -2.02,4.12 -4.1,8.38 -6.54,12.29 -2.96,4.75 -6.62,10.11 -11.23,13.88 -14.97,12.22 -31.64,22.18 -49.56,29.62 -4.3,1.78 -9,2.9 -13.56,3.98 -2.14,0.51 -4.27,1.02 -6.38,1.59 -0.07,-0.02 -0.13,-0.03 -0.21,-0.03 -0.02,0 -0.04,0 -0.06,0z"/>
   <path class="fil0" d="M119.81 205.76l-0.12 0c-1.38,0.01 -2.79,0.15 -4.15,0.31 -1.79,0.21 -2.95,0.89 -3.45,2 -0.54,1.2 -0.21,2.74 0.97,4.45 2.85,4.15 7.22,6.83 13.36,8.19 0.84,0.18 1.67,0.4 2.51,0.61l1.13 0.29c0.08,0.02 0.15,0.03 0.23,0.03 0.08,0 0.16,-0.01 0.23,-0.03 0.15,0.04 0.32,0.04 0.48,-0.01 0.49,-0.13 1,-0.24 1.51,-0.35 1.26,-0.27 2.56,-0.54 3.7,-1.2 1.07,-0.62 3.6,-2.28 3.94,-4.28 0.3,-1.73 -1.55,-4.32 -3.14,-4.99 -4.54,-1.9 -9.19,-3.47 -13.83,-4.65 -1.08,-0.28 -2.21,-0.38 -3.36,-0.38zm2.89 2.23c4.55,1.16 9.11,2.69 13.56,4.56 0.94,0.39 2.11,2.24 2,2.91 -0.13,0.8 -1.35,1.99 -3.01,2.95 -0.88,0.51 -1.98,0.74 -3.15,0.99 -0.53,0.11 -1.07,0.23 -1.59,0.37l-1.12 -0.28c-0.86,-0.22 -1.71,-0.44 -2.57,-0.63 -5.72,-1.27 -9.59,-3.63 -12.2,-7.41 -0.75,-1.08 -1.05,-2.05 -0.81,-2.58 0.2,-0.45 0.89,-0.76 1.94,-0.89 1.37,-0.16 2.71,-0.3 4,-0.3 1.02,0 2.01,0.09 2.94,0.33z"/>
   <path class="fil0" d="M680.41 422.91c0.17,0.04 0.36,0.04 0.54,-0.03 1.19,-0.42 2.45,-0.66 3.79,-0.91 3.05,-0.58 6.2,-1.17 8.49,-3.99 0.64,-0.79 1.32,-1.56 1.99,-2.34 2.27,-2.61 4.61,-5.32 5.8,-8.48 5.69,-15.1 8.58,-30.43 8.59,-45.56 0.01,-8.07 0.45,-16.28 0.87,-24.22 0.31,-5.7 0.62,-11.58 0.77,-17.39 0.31,-11.63 -5.62,-19.76 -16.26,-22.33 -12.08,-2.91 -25.05,-5.61 -38.16,-5.65l-0.13 0c-9.77,0 -16.94,4.16 -20.76,12.04 -8.8,18.19 -18.78,38.8 -23.97,60.99 -2.22,9.45 -2.92,17.26 -2.23,24.55 1.11,11.55 7.91,19.53 20.24,23.71 11.85,4.01 24.53,6.93 37.71,8.68 2.84,0.38 5.74,0.55 8.55,0.71 1.28,0.08 2.57,0.15 3.86,0.24 0.03,0 0.05,0 0.08,0 0.08,0 0.15,-0.01 0.22,-0.03zm14.16 -123.4c9.83,2.37 15.08,9.62 14.8,20.42 -0.15,5.77 -0.47,11.65 -0.77,17.33 -0.43,7.97 -0.87,16.21 -0.87,24.32 -0.01,15.11 -2.78,29.8 -8.47,44.9 -1.07,2.85 -3.3,5.42 -5.46,7.9 -0.69,0.8 -1.38,1.59 -2.03,2.39 -1.85,2.28 -4.53,2.78 -7.37,3.32 -1.32,0.25 -2.69,0.51 -3.99,0.96 -0.05,-0.01 -0.1,-0.02 -0.15,-0.02 -1.29,-0.1 -2.59,-0.17 -3.89,-0.25 -2.77,-0.16 -5.63,-0.33 -8.41,-0.7 -13.05,-1.73 -25.62,-4.63 -37.34,-8.6 -11.71,-3.97 -17.91,-11.19 -18.95,-22.08 -0.68,-7.08 0.02,-14.69 2.18,-23.93 5.14,-21.98 15.07,-42.49 23.83,-60.59 3.47,-7.17 10.06,-10.96 19.05,-10.96l0.12 0c12.19,0.04 23.9,2.27 37.72,5.6z"/>
   <path class="fil0" d="M704.03 440.32c0.06,-0 0.11,-0.01 0.17,-0.02 0.16,0.04 0.34,0.04 0.51,-0.02 1.35,-0.42 2.73,-0.8 4.1,-1.17 3.09,-0.85 6.28,-1.73 9.24,-3.1 5.76,-2.66 7.91,-7.46 6.59,-14.67 -1.83,-9.95 -3.45,-20.56 -1.55,-31.24 0.59,-3.3 0.66,-6.7 0.73,-10 0.05,-2.45 0.11,-4.98 0.37,-7.42 0.64,-5.82 0.78,-11.75 0.92,-17.49 0.21,-8.84 0.42,-17.97 2.49,-26.82 1.71,-7.33 2.62,-15.61 2.78,-25.32 0.17,-10.49 -3.1,-17.46 -10,-21.3 -4.01,-2.24 -8.67,-3.73 -13.12,-4.21 -4.42,-0.47 -8.94,-0.57 -13.3,-0.66 -3.75,-0.08 -7.62,-0.17 -11.4,-0.48 -13.68,-1.16 -29.59,-3.37 -43.95,-10.92 -5.43,-2.86 -10.39,-6.75 -15.41,-10.82l-2.64 -2.14c-6.83,-5.51 -13.89,-11.21 -20.06,-17.53 -5.46,-5.6 -10.45,-11.87 -15.28,-17.93 -1.63,-2.05 -3.26,-4.1 -4.92,-6.13 -6.15,-7.55 -14.29,-11.48 -23.1,-11.48 -4.45,0 -9.07,1 -13.7,3.04 -4,1.77 -6.54,4.42 -7.34,7.69 -0.79,3.24 0.22,6.74 2.92,10.13 3.97,4.96 8.78,10.65 14.34,15.18 8.28,6.75 15.3,15.57 22.09,27.76l0.69 1.24c5.27,9.48 10.72,19.28 20.09,26.15 3.65,2.68 6.78,6.19 9.93,9.87 4.45,5.2 5.81,11.84 3.82,18.7 -2.1,7.23 -4.83,14.43 -7.47,21.4 -0.82,2.16 -1.63,4.32 -2.44,6.48l-0.31 0.83c-4.36,11.76 -8.87,23.92 -9.37,36.98 -0.08,2.01 -0.24,4.02 -0.4,6.03 -0.22,2.68 -0.44,5.45 -0.45,8.19 -0.06,13.21 5.48,20.29 18.54,23.7 4.67,1.22 9.5,2.07 14.17,2.89 3.92,0.69 7.97,1.4 11.88,2.33 5.82,1.37 11.7,2.96 17.38,4.5 5.09,1.38 10.36,2.8 15.58,4.07 10.81,2.62 20.87,3.92 30.56,3.92 2.12,0 4.22,-0.06 6.31,-0.19zm-0.11 -1.9c-11.43,0.67 -23.32,-0.53 -36.31,-3.68 -5.19,-1.26 -10.45,-2.68 -15.53,-4.06 -5.7,-1.54 -11.59,-3.14 -17.44,-4.52 -3.97,-0.94 -8.04,-1.65 -11.99,-2.35 -4.63,-0.82 -9.43,-1.66 -14.02,-2.86 -12.22,-3.18 -17.17,-9.51 -17.12,-21.84 0.01,-2.67 0.23,-5.4 0.44,-8.04 0.17,-2.04 0.33,-4.07 0.41,-6.11 0.48,-12.75 4.94,-24.77 9.25,-36.39l0.31 -0.83c0.8,-2.16 1.62,-4.31 2.43,-6.47 2.65,-7 5.4,-14.24 7.52,-21.54 2.17,-7.5 0.68,-14.77 -4.21,-20.47 -3.22,-3.76 -6.43,-7.37 -10.24,-10.16 -9.03,-6.62 -14.14,-15.81 -19.55,-25.54l-0.69 -1.24c-6.91,-12.4 -14.08,-21.4 -22.55,-28.31 -5.42,-4.42 -10.14,-10.01 -14.05,-14.9 -2.32,-2.9 -3.21,-5.84 -2.56,-8.48 0.65,-2.67 2.82,-4.88 6.26,-6.4 13.15,-5.8 25.74,-2.92 34.55,7.9 1.65,2.02 3.27,4.07 4.9,6.12 4.86,6.1 9.88,12.41 15.41,18.08 6.25,6.4 13.36,12.14 20.23,17.68l2.64 2.13c5.1,4.13 10.14,8.09 15.73,11.02 14.66,7.71 30.81,9.96 44.68,11.14 3.84,0.32 7.74,0.41 11.52,0.49 4.33,0.09 8.8,0.19 13.15,0.65 4.19,0.45 8.59,1.86 12.39,3.98 6.31,3.52 9.18,9.75 9.02,19.6 -0.15,9.57 -1.04,17.73 -2.72,24.92 -2.12,9.04 -2.33,18.28 -2.54,27.21 -0.14,5.69 -0.27,11.58 -0.91,17.32 -0.28,2.53 -0.33,5.1 -0.39,7.59 -0.07,3.22 -0.14,6.55 -0.7,9.7 -1.96,10.99 -0.31,21.79 1.55,31.92 1.18,6.4 -0.52,10.28 -5.51,12.59 -2.81,1.3 -5.93,2.16 -8.95,2.99 -1.38,0.38 -2.75,0.76 -4.1,1.18 -0.07,-0.02 -0.14,-0.03 -0.21,-0.03 -0.02,0 -0.05,0 -0.07,0z"/>
   <path class="fil0" d="M420.36 452.22c1.03,-0.03 2.06,-0.03 3.1,-0.02l1.45 0.01c0.08,0 0.16,-0.01 0.23,-0.03 0.13,0.03 0.27,0.04 0.42,0.01 10.72,-2.18 17.95,-7.15 22.08,-15.18 6,-11.66 6.75,-23.59 2.17,-34.52 -2.17,-5.19 -7.08,-9.31 -9.81,-11.31 -5.12,-3.73 -11.01,-7.02 -17.5,-9.77 -3.82,-1.61 -7,-2.46 -9.81,-2.46 -5.3,0 -9.27,3.01 -13.71,9.56 -5.49,8.1 -7.96,17.48 -10.36,26.55l-0.2 0.75c-1.54,5.81 -2.25,11.85 -2.8,17.52 -0.49,5.09 1.8,8.9 7.2,12 8.09,4.64 16.51,6.92 25.66,6.92 0.63,0 1.26,-0.01 1.9,-0.03zm-0.06 -1.9c-9.57,0.33 -18.22,-1.86 -26.55,-6.64 -4.73,-2.72 -6.66,-5.85 -6.25,-10.16 0.54,-5.59 1.24,-11.54 2.74,-17.21l0.2 -0.75c2.35,-8.92 4.79,-18.13 10.09,-25.97 6.28,-9.27 11.03,-10.71 21.2,-6.41 6.36,2.69 12.12,5.9 17.12,9.55 2.57,1.88 7.19,5.74 9.18,10.51 4.42,10.54 3.71,21.61 -2.1,32.91 -3.85,7.48 -10.65,12.12 -20.77,14.18 -0.01,0 -0.02,0 -0.04,0.01 -0.07,-0.02 -0.15,-0.03 -0.23,-0.03l-1.43 -0.01c-0.49,-0 -0.97,-0.01 -1.46,-0.01 -0.57,0 -1.15,0.01 -1.72,0.03z"/>
   <path class="fil0" d="M293.96 373.94l-0.07 0c-8.62,0 -16.02,4.27 -22.97,13.16 -2.68,3.42 -4.73,6.36 -6.46,9.25 -4.37,7.28 -11.19,11.15 -17.92,14.25 -8.78,4.04 -15.42,8.38 -19.27,16.44 -4.72,9.88 -3.28,20.7 3.88,28.94 3.73,4.3 7.64,8.15 13.68,8.15 0.26,0 0.52,-0.01 0.79,-0.02 0.06,-0 0.12,-0.01 0.18,-0.03 0.14,0.04 0.29,0.04 0.44,0 6.64,-1.49 10.02,-6.66 12.45,-11.53 2.87,-5.75 5.84,-11.91 7.8,-18.45 3.21,-10.74 10.31,-17.54 22.33,-21.42 5.14,-1.66 10.59,-4.22 16.65,-7.83 7.13,-4.25 10.23,-10.27 8.73,-16.94 -1.52,-6.78 -7.71,-12.22 -15.41,-13.54 -1.66,-0.28 -3.27,-0.43 -4.84,-0.44zm4.52 2.31c6.83,1.18 12.54,6.15 13.87,12.08 1.32,5.89 -1.39,11.03 -7.85,14.89 -5.93,3.54 -11.25,6.04 -16.26,7.66 -12.68,4.09 -20.17,11.29 -23.58,22.69 -1.91,6.39 -4.84,12.47 -7.68,18.14 -2.34,4.69 -5.31,9.21 -11.16,10.52 -0.01,0 -0.01,0 -0.02,0.01 -0.09,-0.02 -0.18,-0.03 -0.28,-0.03 -5.71,0.32 -9.22,-3.2 -12.93,-7.47 -6.64,-7.65 -7.98,-17.69 -3.59,-26.87 3.6,-7.54 9.94,-11.66 18.35,-15.53 6.67,-3.07 14.11,-7.25 18.75,-15 1.69,-2.82 3.7,-5.7 6.32,-9.05 6.56,-8.4 13.51,-12.42 21.55,-12.42 1.46,0 2.97,0.13 4.51,0.4z"/>
   <path class="fil0" d="M791.83 467.77c0.07,-0 0.14,-0.01 0.21,-0.03 0.15,0.04 0.33,0.04 0.49,-0.01 11.48,-3.3 15.69,-19.66 13.43,-29.04 -0.95,-3.95 -2.03,-8.13 -3.75,-12.03 -3.47,-7.87 -10.64,-9.51 -15.99,-9.51 -1.82,0 -3.43,0.19 -4.61,0.39 -7.75,1.29 -14.42,4.87 -19.82,10.62 -5.75,6.13 -6.38,11.31 -2.25,18.47 4.17,7.23 9.75,13.24 16.58,17.84 4.22,2.84 8.54,3.32 13.56,3.32 0.7,0 1.41,-0.01 2.13,-0.02zm8.64 -40.34c1.66,3.76 2.71,7.85 3.64,11.71 2.11,8.76 -2.03,23.84 -12.07,26.75 -0.08,-0.02 -0.18,-0.03 -0.24,-0.03 -5.61,0.11 -10.25,-0.04 -14.59,-2.97 -6.59,-4.44 -11.98,-10.23 -16,-17.21 -3.71,-6.44 -3.19,-10.69 1.99,-16.21 5.11,-5.44 11.41,-8.82 18.74,-10.04 1.28,-0.21 2.8,-0.38 4.44,-0.38 5.04,0 11.11,1.59 14.11,8.39z"/>
   <path class="fil0" d="M412.24 336.99l-0.08 0c-11.69,0 -20.83,7.11 -24.64,19.33 -3.24,10.36 -6.03,21.31 -8.28,32.56 -4.34,21.63 -14.1,35.83 -30.69,44.68 -7.46,3.98 -13.41,8.67 -18.19,14.32 -3.17,3.75 -4.34,9.02 -2.99,13.41 1.24,4.01 4.44,6.92 9.01,8.19 3,0.83 6.16,1.16 9.21,1.47 1.39,0.14 2.77,0.29 4.15,0.48 0.04,0.01 0.08,0.01 0.12,0.01 0.08,0 0.16,-0.01 0.24,-0.03 0.12,0.03 0.26,0.03 0.4,0.01l5.87 -1.08c4.66,-0.87 9.49,-1.77 14.25,-2.55l2.4 -0.4c3.82,-0.65 7.78,-1.33 11.63,-1.33 3.82,0 7.74,0.32 11.52,0.62 2.96,0.24 6.02,0.48 9.04,0.58l2.78 0.1c6.05,0.22 12.3,0.45 18.38,-0.23 6.23,-0.69 12.3,-2.52 18.48,-4.5 11.85,-3.8 19.89,-12.46 23.9,-25.75 4.66,-15.44 9.14,-30.56 12.74,-45.82 2.88,-12.22 -0.82,-22.67 -10.7,-30.23 -1.28,-0.98 -2.55,-1.97 -3.82,-2.96 -8.47,-6.6 -17.23,-13.42 -28.12,-16.29 -7.33,-1.93 -16.02,-3.98 -24.87,-4.53 -0.58,-0.04 -1.16,-0.05 -1.73,-0.06zm-39.54 128.52l-2.39 0.4c-4.78,0.78 -9.62,1.68 -14.29,2.55l-5.86 1.08c-0.02,0 -0.04,0.01 -0.05,0.01 -0.03,-0.01 -0.07,-0.01 -0.1,-0.02 -1.4,-0.19 -2.81,-0.34 -4.22,-0.48 -2.98,-0.31 -6.05,-0.62 -8.9,-1.41 -5.02,-1.39 -6.96,-4.53 -7.7,-6.91 -1.17,-3.79 -0.14,-8.35 2.62,-11.62 4.62,-5.46 10.38,-10 17.63,-13.86 16.9,-9.02 27.26,-24.06 31.66,-45.99 2.24,-11.18 5.01,-22.07 8.23,-32.37 3.73,-11.94 12.88,-18.67 24.52,-17.94 8.69,0.53 17.26,2.56 24.5,4.47 10.51,2.77 19.12,9.47 27.44,15.96 1.27,0.99 2.55,1.99 3.83,2.97 9.24,7.07 12.7,16.85 10.01,28.28 -3.59,15.21 -8.06,30.3 -12.71,45.71 -3.82,12.65 -11.44,20.89 -22.66,24.48 -6.09,1.95 -12.06,3.75 -18.11,4.42 -2.96,0.33 -5.98,0.44 -9,0.44 -3.05,0 -6.1,-0.11 -9.1,-0.22l-2.79 -0.1c-2.98,-0.1 -6.01,-0.34 -8.95,-0.58 -3.82,-0.31 -7.77,-0.63 -11.67,-0.63 -4.01,0 -8.05,0.69 -11.95,1.36z"/>
   <path class="fil0" d="M343.7 486.04c0.13,0.03 0.27,0.04 0.42,0.01 2.78,-0.56 5.56,-1.15 8.33,-1.75 6.24,-1.34 12.69,-2.72 19.08,-3.61 7.71,-1.07 16.2,-1.67 25.95,-1.84 4.6,-0.08 9.28,0.15 13.82,0.37 3.86,0.19 7.85,0.38 11.79,0.39l0.16 0c11.81,0 21.86,-1.22 30.72,-3.74 15.2,-4.32 25.1,-13.43 29.43,-27.08 2.08,-6.55 3.96,-13.27 5.79,-19.77 1.55,-5.52 3.15,-11.23 4.86,-16.8 1.04,-3.39 2.31,-6.8 3.54,-10.09 1.45,-3.88 2.95,-7.88 4.09,-11.94 3.12,-11.04 3.1,-22.45 2.85,-32.28 -0.19,-7.42 2.25,-13.49 7.46,-18.56l1.73 -1.68c5.43,-5.26 11.04,-10.7 15.66,-16.78 7.57,-9.93 9.39,-20.98 5.41,-32.83 -2.93,-8.72 -14.06,-18.22 -25.27,-17.93 -9.75,0.27 -19.61,1.04 -28.87,1.8 -3.41,0.28 -6.32,-0.72 -8.24,-2.81 -2.18,-2.38 -2.98,-6.04 -2.24,-10.31 2.14,-12.36 4.14,-25.53 3.24,-38.64 -1.14,-16.53 -11.5,-28.8 -27.7,-32.83 -6.86,-1.7 -13.14,-2.56 -19.05,-2.56 -5.85,0 -11.34,0.83 -16.68,2.5 -11.5,3.59 -18.79,11.06 -21.68,22.19 -4.12,15.84 -4.7,29.21 -1.83,42.08 2.38,10.7 8.68,19.21 18.72,25.32 1.55,0.94 3.07,1.92 4.59,2.91 2.82,1.82 5.74,3.7 8.77,5.28 2.17,1.13 3.51,3.1 3.68,5.42 0.18,2.43 -0.93,4.77 -2.96,6.24l-0.84 0.61c-3.44,2.5 -7,5.09 -10.84,6.53 -19.73,7.4 -32.18,20.76 -37.01,39.7 -1.44,5.63 -2.09,11.53 -2.72,17.24 -0.19,1.76 -0.39,3.52 -0.61,5.27 -0.36,2.97 -0.63,5.99 -0.88,8.92 -0.85,9.85 -1.73,20.03 -6.74,29.2 -4.17,7.62 -10.42,12.87 -18.52,18.4l-4.91 3.34c-5.8,3.94 -11.8,8.01 -17.51,12.29 -8.55,6.42 -13.14,14.95 -13.66,25.37 -0.58,11.71 6.05,19.53 18.18,21.44 4.61,0.73 9.37,0.81 13.98,0.89 2.08,0.04 4.16,0.07 6.23,0.17 0.02,0 0.05,0 0.07,0 0.07,0 0.14,-0.01 0.2,-0.03zm53.74 -9.1c-9.83,0.18 -18.39,0.79 -26.17,1.86 -6.46,0.89 -12.95,2.29 -19.22,3.63 -2.77,0.59 -5.53,1.19 -8.3,1.74 -0.01,0 -0.03,0.01 -0.04,0.01 -0.06,-0.01 -0.12,-0.02 -0.18,-0.03 -2.09,-0.09 -4.19,-0.13 -6.29,-0.17 -4.54,-0.08 -9.23,-0.16 -13.72,-0.87 -11.22,-1.77 -17.11,-8.68 -16.57,-19.46 0.49,-9.82 4.83,-17.87 12.9,-23.93 5.67,-4.25 11.65,-8.31 17.44,-12.23l4.91 -3.34c8.32,-5.69 14.76,-11.11 19.11,-19.06 5.21,-9.52 6.1,-19.9 6.97,-29.95 0.25,-2.91 0.51,-5.92 0.88,-8.85 0.22,-1.76 0.41,-3.52 0.61,-5.29 0.62,-5.64 1.27,-11.48 2.67,-16.98 4.67,-18.3 16.73,-31.22 35.84,-38.38 4.09,-1.53 7.75,-4.2 11.29,-6.77l0.83 -0.6c2.57,-1.86 3.97,-4.83 3.75,-7.92 -0.22,-2.99 -1.93,-5.53 -4.7,-6.97 -2.96,-1.54 -5.83,-3.4 -8.62,-5.19 -1.54,-0.99 -3.08,-1.98 -4.64,-2.93 -9.72,-5.91 -15.55,-13.79 -17.85,-24.1 -2.8,-12.56 -2.22,-25.65 1.82,-41.18 2.75,-10.6 9.42,-17.42 20.4,-20.85 10.39,-3.25 21.41,-3.22 34.7,0.09 15.6,3.88 25.17,15.22 26.26,31.11 0.89,12.92 -1.02,25.43 -3.22,38.19 -0.84,4.86 0.12,9.09 2.71,11.92 2.08,2.27 5.07,3.48 8.53,3.48 0.42,0 0.84,-0.02 1.27,-0.05 9.23,-0.76 19.06,-1.53 28.77,-1.8 10.12,-0.29 20.69,8.56 23.41,16.63 3.77,11.21 2.04,21.66 -5.12,31.07 -4.54,5.96 -10.09,11.35 -15.47,16.56l-1.74 1.68c-5.61,5.46 -8.24,11.99 -8.04,19.98 0.25,9.69 0.27,20.93 -2.77,31.71 -1.13,3.98 -2.61,7.95 -4.04,11.79 -1.24,3.32 -2.52,6.75 -3.58,10.19 -1.72,5.59 -3.32,11.31 -4.87,16.84 -1.82,6.49 -3.7,13.19 -5.77,19.71 -4.13,13 -13.59,21.69 -28.14,25.82 -8.69,2.47 -18.57,3.67 -30.2,3.67l-0.16 0c-3.89,-0 -7.86,-0.2 -11.69,-0.39 -3.91,-0.19 -7.94,-0.38 -11.94,-0.38 -0.67,0 -1.33,0.01 -2,0.02z"/>
   <path class="fil0" d="M85.52 517.9c5.27,-5.06 11.4,-10.01 18.66,-13.6 2.58,-1.28 5.22,-1.3 7.25,-0.05 2.01,1.24 3.18,3.61 3.2,6.5 0.01,2.24 0,4.66 -0.11,7.16l1.91 0c0.11,-2.5 0.12,-4.93 0.11,-7.17 -0.02,-3.56 -1.52,-6.51 -4.1,-8.11 -1.3,-0.8 -2.79,-1.2 -4.35,-1.2 -1.54,0 -3.15,0.39 -4.73,1.17 -8.14,4.02 -14.86,9.67 -20.55,15.31l2.73 0z"/>
   <path class="fil0" d="M168.75 252.75c0.06,-0 0.13,-0.01 0.19,-0.03 0.12,0.03 0.25,0.04 0.38,0.01 11.47,-1.9 20.41,-8.28 29.31,-15.21 6.77,-5.27 15.1,-9.61 26.22,-13.64 8.33,-3.02 11.91,-8.91 10.64,-17.51 -1.32,-8.93 -2.78,-16.92 -7.4,-24.18 -4.56,-7.17 -11.59,-11.12 -20.9,-11.73 -6.53,-0.43 -13.17,-0.53 -19.59,-0.62 -5.73,-0.08 -11.65,-0.17 -17.46,-0.49 -22.94,-1.27 -40.86,-7.9 -54.79,-20.27 -1.32,-1.17 -2.69,-2.3 -4.06,-3.43 -1.53,-1.26 -3.12,-2.56 -4.6,-3.91 -8.72,-7.92 -19.71,-10.52 -30.23,-12.5 -4.1,-0.77 -8.33,-1.17 -12.42,-1.54 -1.22,-0.11 -2.45,-0.23 -3.67,-0.35 -0.58,-0.06 -1.14,-0.09 -1.68,-0.09 -6.19,0 -10.5,3.72 -12.53,10.84 -2.38,8.38 -0.54,16.66 1.32,22.93l2.09 7.02c3.77,12.71 7.67,25.85 11.67,38.73 3.67,11.85 11.03,21.12 21.87,27.57 13.16,7.83 27.35,12.67 43.37,14.8 1.87,0.25 3.74,0.51 5.61,0.76 10.51,1.44 21.35,2.93 32.21,2.93 1.48,0 2.96,-0.03 4.44,-0.09zm-0.07 -1.9c-12.19,0.48 -24.46,-1.2 -36.32,-2.82 -1.87,-0.26 -3.74,-0.51 -5.61,-0.76 -15.77,-2.09 -29.72,-6.85 -42.66,-14.55 -10.42,-6.2 -17.5,-15.12 -21.02,-26.5 -3.99,-12.87 -7.89,-26 -11.66,-38.71l-2.08 -7.02c-1.79,-6.03 -3.56,-13.96 -1.32,-21.87 1.95,-6.84 6.03,-10 12.19,-9.38 1.23,0.12 2.45,0.24 3.68,0.35 4.04,0.37 8.22,0.76 12.24,1.52 10.25,1.93 20.95,4.45 29.3,12.04 1.52,1.38 3.12,2.7 4.67,3.98 1.35,1.11 2.7,2.22 4.01,3.38 14.26,12.67 32.57,19.45 55.95,20.75 5.84,0.32 11.79,0.41 17.54,0.5 6.4,0.1 13.02,0.19 19.5,0.62 8.67,0.57 15.2,4.22 19.42,10.85 4.42,6.95 5.84,14.73 7.13,23.44 1.13,7.69 -1.95,12.74 -9.41,15.44 -11.31,4.1 -19.81,8.53 -26.74,13.93 -8.7,6.78 -17.42,13.01 -28.45,14.84 -0.02,0 -0.05,0.01 -0.07,0.01 -0.07,-0.02 -0.14,-0.03 -0.21,-0.03 -0.02,0 -0.03,0 -0.05,0z"/>
   <path class="fil0" d="M313.5 163.11c0.17,0.02 0.35,0.02 0.54,-0.01 8.94,-1.45 16.16,-6.31 23.14,-11.02l0.99 -0.67c7.18,-4.83 14.62,-9.57 21.81,-14.14 3.38,-2.15 6.77,-4.31 10.14,-6.48 17.64,-11.36 28.39,-28.68 32.87,-52.95l0.58 -3.17c0.65,-3.6 1.32,-7.32 2.18,-10.91 2.44,-10.15 9.64,-16.73 17.05,-22.32 13.77,-10.37 29.72,-22.48 44.86,-34.86 2.49,-2.03 4.61,-4.24 6.35,-6.59l-4.94 0c-1.3,1.44 -2.63,2.66 -3.83,3.63 -15.08,12.33 -31,24.41 -44.74,34.76 -7.99,6.02 -15.75,13.15 -18.47,24.47 -0.88,3.69 -1.56,7.47 -2.22,11.12l-0.57 3.15c-4.28,23.18 -14.49,39.68 -31.19,50.44 -3.37,2.17 -6.75,4.32 -10.12,6.47 -7.21,4.59 -14.67,9.34 -21.9,14.2l-0.99 0.67c-6.93,4.67 -13.47,9.07 -21.55,10.4 -0.08,-0.01 -0.16,-0.03 -0.24,-0.01 -6.77,0.05 -11.69,-1.15 -15.91,-3.81 -1.82,-1.15 -3.69,-2.25 -5.56,-3.34 -3.32,-1.94 -6.75,-3.96 -9.8,-6.26 -13.45,-10.15 -27.18,-16.56 -41.98,-19.59 -14.39,-2.95 -24.78,-6.66 -33.71,-12.04 -12.94,-7.81 -22.58,-20.02 -30.34,-38.43 -1.02,-2.41 -1.97,-4.85 -2.92,-7.3 -1.67,-4.27 -3.39,-8.68 -5.44,-12.89 -6.14,-12.6 -17.25,-19.55 -27.31,-24.68 -15.05,-7.68 -31.17,-13.18 -46.77,-18.5 -2.5,-0.85 -4.99,-1.71 -7.48,-2.56 -7.03,-2.43 -12.52,-5.68 -16.61,-9.9l-5.02 0c4.7,5.95 11.46,10.42 20.39,13.5 2.5,0.86 5,1.71 7.5,2.57 15.47,5.28 31.46,10.74 46.27,18.29 9.5,4.85 19.97,11.36 25.61,22.95 1.98,4.07 3.68,8.41 5.32,12.6 0.97,2.47 1.93,4.95 2.96,7.39 8.09,19.19 18.22,31.97 31.89,40.22 9.31,5.61 20.08,9.47 34.91,12.51 14.23,2.91 27.46,9.09 40.45,18.89 3.23,2.44 6.76,4.51 10.17,6.51 1.83,1.07 3.66,2.15 5.45,3.28 4.8,3.04 10.27,4.4 17.69,4.4 0.05,0 0.1,0 0.15,0 0.11,0 0.23,-0 0.33,-0.01zm-121.69 -163.11l5.55 0 0.09 0.08c2.75,2.42 5.72,4.74 8.58,6.98 1.69,1.32 3.38,2.64 5.05,4 5.58,4.53 9.21,10.47 12.73,16.21 1.18,1.93 2.36,3.87 3.62,5.74 3.42,5.12 8.08,7.52 13.95,7.29 8.52,-0.29 15.96,-4.51 22.85,-8.8 13.13,-8.18 22.24,-19.31 29.28,-31.5l4.39 0c-7.44,13.4 -17.19,25.72 -31.66,34.74 -7.33,4.57 -15.28,9.05 -24.74,9.37 -0.27,0.01 -0.53,0.01 -0.8,0.01 -6.93,0 -12.46,-3.01 -16.46,-9 -1.28,-1.92 -2.49,-3.89 -3.7,-5.87 -3.5,-5.72 -6.81,-11.13 -11.88,-15.24 -1.65,-1.34 -3.32,-2.64 -4.99,-3.95 -2.91,-2.27 -5.92,-4.62 -8.75,-7.12 -1.08,-0.95 -2.12,-1.93 -3.12,-2.94z"/>
   <path class="fil0" d="M521.98 158.96c8.04,-0.73 12.81,-6.62 16.65,-11.35 1.23,-1.52 2.38,-3.11 3.5,-4.66 1.64,-2.26 3.33,-4.6 5.23,-6.65l2.19 -2.38c4.74,-5.15 9.65,-10.48 15.13,-14.83 5.74,-4.56 11.85,-8.86 17.77,-13.02 4.81,-3.38 9.78,-6.88 14.54,-10.51 8.86,-6.76 19.53,-11.44 33.57,-14.74 15.31,-3.59 24.45,-12.55 28.76,-28.2 3.74,-13.56 8.4,-29.22 16.5,-43.38 4.42,-7.73 6.27,-8.1 14.72,-6.71 11.18,1.84 21.34,1.01 30.69,-2.54l-6.38 0c-4.22,1.06 -8.6,1.58 -13.18,1.58 -3.5,0 -7.1,-0.31 -10.83,-0.92 -9.56,-1.57 -12.07,-0.43 -16.68,7.64 -8.21,14.35 -12.91,30.14 -16.68,43.82 -4.1,14.9 -12.8,23.43 -27.36,26.84 -14.31,3.37 -25.2,8.16 -34.29,15.08 -4.73,3.6 -9.69,7.09 -14.48,10.47 -5.94,4.17 -12.07,8.49 -17.85,13.08 -5.6,4.44 -10.56,9.83 -15.35,15.03l-2.19 2.37c-1.98,2.13 -3.7,4.52 -5.38,6.83 -1.1,1.52 -2.25,3.1 -3.44,4.58 -4.59,5.66 -8.63,10.04 -15.34,10.65 -0.05,0 -0.09,0.01 -0.14,0.02 -0.05,-0.01 -0.11,-0.02 -0.16,-0.02 -4.35,-0.31 -8.54,-1.89 -12.81,-4.85 -7.5,-5.2 -15,-10.01 -24.17,-11.58 -5.22,-0.9 -10.63,-1.65 -16.52,-2.3 -10.51,-1.16 -17.58,-6.95 -21.63,-17.71 -3.17,-8.42 -3.93,-17.24 -2.32,-26.98 2.75,-16.62 10.01,-29.43 22.19,-39.16 2.74,-2.19 5.64,-4.28 8.45,-6.31 3.89,-2.81 7.92,-5.72 11.61,-8.93 10.75,-9.38 16.92,-22.12 22.88,-34.44l0.27 -0.56c0.68,-1.41 1.36,-2.82 2.03,-4.24l-2.11 0c-0.54,1.14 -1.09,2.27 -1.63,3.41l-0.27 0.56c-5.88,12.15 -11.97,24.71 -22.42,33.83 -3.62,3.16 -7.61,6.04 -11.47,8.83 -2.83,2.04 -5.75,4.15 -8.52,6.36 -12.56,10.04 -20.05,23.23 -22.88,40.34 -1.67,10.07 -0.87,19.22 2.42,27.96 4.33,11.5 11.92,17.69 23.21,18.94 5.85,0.65 11.22,1.39 16.41,2.29 8.78,1.51 16.08,6.19 23.4,11.27 4.55,3.16 9.05,4.85 13.76,5.18 0.11,0 0.2,-0 0.3,-0.02 0.07,0.02 0.15,0.03 0.23,0.03 0.03,0 0.06,-0 0.09,-0.01z"/>
  </g>
 </g>
</svg>
