<?xml version="1.0" encoding="UTF-8"?>
<!DOCTYPE svg PUBLIC "-//W3C//DTD SVG 1.1//EN" "http://www.w3.org/Graphics/SVG/1.1/DTD/svg11.dtd">
<!-- Creator: CorelDRAW -->
<svg xmlns="http://www.w3.org/2000/svg" xml:space="preserve" width="11.0895mm" height="11.0894mm" version="1.1" style="shape-rendering:geometricPrecision; text-rendering:geometricPrecision; image-rendering:optimizeQuality; fill-rule:evenodd; clip-rule:evenodd"
viewBox="0 0 19.95 19.95"
 xmlns:xlink="http://www.w3.org/1999/xlink"
 xmlns:xodm="http://www.corel.com/coreldraw/odm/2003">
 <defs>
  <style type="text/css">
   <![CDATA[
    .fil0 {fill:white;fill-rule:nonzero}
   ]]>
  </style>
 </defs>
 <g id="Camada_x0020_1">
  <metadata id="CorelCorpID_0Corel-Layer"/>
  <path id="XMLID_469_" class="fil0" d="M14.76 11.46c-0.04,-0.02 -1.49,-0.73 -1.75,-0.83 -0.11,-0.04 -0.22,-0.08 -0.34,-0.08 -0.2,0 -0.36,0.1 -0.49,0.29 -0.15,0.22 -0.59,0.73 -0.72,0.88 -0.02,0.02 -0.04,0.04 -0.06,0.04 -0.01,0 -0.24,-0.09 -0.31,-0.12 -1.56,-0.68 -2.74,-2.31 -2.91,-2.58 -0.02,-0.04 -0.02,-0.06 -0.02,-0.06 0.01,-0.02 0.06,-0.07 0.09,-0.1 0.08,-0.08 0.17,-0.18 0.25,-0.28 0.04,-0.05 0.08,-0.09 0.12,-0.14 0.12,-0.14 0.17,-0.25 0.24,-0.38l0.03 -0.07c0.15,-0.3 0.02,-0.56 -0.02,-0.64 -0.03,-0.07 -0.65,-1.55 -0.71,-1.71 -0.16,-0.38 -0.36,-0.55 -0.65,-0.55 -0.03,0 0,0 -0.11,0 -0.14,0.01 -0.88,0.1 -1.21,0.31 -0.35,0.22 -0.94,0.92 -0.94,2.15 0,1.11 0.7,2.16 1.01,2.55 0.01,0.01 0.02,0.03 0.04,0.06 1.16,1.69 2.6,2.94 4.06,3.53 1.41,0.56 2.08,0.63 2.45,0.63 0,0 0,0 0,0 0.16,0 0.29,-0.01 0.4,-0.02l0.07 -0.01c0.49,-0.04 1.56,-0.6 1.8,-1.27 0.19,-0.53 0.24,-1.11 0.11,-1.32 -0.09,-0.14 -0.24,-0.22 -0.43,-0.31z"/>
  <path id="XMLID_470_" class="fil0" d="M10.15 0c-5.4,0 -9.8,4.36 -9.8,9.72 0,1.73 0.46,3.43 1.34,4.92l-1.68 4.96c-0.03,0.09 -0.01,0.19 0.06,0.26 0.05,0.05 0.12,0.08 0.18,0.08 0.03,0 0.05,-0 0.08,-0.01l5.18 -1.64c1.42,0.76 3.02,1.16 4.64,1.16 5.4,0 9.8,-4.36 9.8,-9.72 0,-5.36 -4.39,-9.72 -9.8,-9.72zm0 17.42c-1.52,0 -3,-0.44 -4.27,-1.27 -0.04,-0.03 -0.09,-0.04 -0.14,-0.04 -0.03,0 -0.05,0 -0.08,0.01l-2.59 0.82 0.84 -2.47c0.03,-0.08 0.01,-0.17 -0.04,-0.24 -0.97,-1.32 -1.48,-2.88 -1.48,-4.51 0,-4.24 3.48,-7.7 7.76,-7.7 4.28,0 7.76,3.45 7.76,7.7 0,4.24 -3.48,7.7 -7.76,7.7z"/>
 </g>
</svg>
